<?xml version="1.0" encoding="utf-8"?>
<svg viewBox="0 0 500 500" xmlns="http://www.w3.org/2000/svg">
  <g id="Hire_Agile" data-name="Hire Agile" transform="matrix(7.955097, 0, 0, 7.966801, -4.472294, -4.947576)" style="">
    <g id="Group_212" data-name="Group 212">
      <circle id="Ellipse_205" data-name="Ellipse 205" cx="1" cy="1" r="1" transform="translate(11 15)" fill="#012d4a"/>
      <circle id="Ellipse_206" data-name="Ellipse 206" cx="1" cy="1" r="1" transform="translate(19 15)" fill="#012d4a"/>
      <path id="Path_2330" data-name="Path 2330" d="M21,21H19a2,2,0,0,1-2,2H13v2h4A4,4,0,0,0,21,21Z" fill="#012d4a"/>
      <path id="Path_2331" data-name="Path 2331" d="M61,39H47V34.92a6.989,6.989,0,0,0,5.15-10.259l3.593-3.992-1.486-1.338-3.331,3.7A6.985,6.985,0,0,0,47,21.08V16.92A6.989,6.989,0,0,0,52.15,6.661l3.593-3.992L54.257,1.331l-3.331,3.7A6.989,6.989,0,0,0,39.08,9H28.572a11.019,11.019,0,0,0-10.58-8H14.386A8.908,8.908,0,0,0,6.2,6.336,7.288,7.288,0,0,0,3,12.375a7.371,7.371,0,0,0,.142,1.434l.582,2.908A3.964,3.964,0,0,0,3,19a4,4,0,0,0,4,4h.08a7.011,7.011,0,0,0,4.5,5.56l-.4,1.584-2.145.429A10.026,10.026,0,0,0,1,40.378V53H3v1a5.009,5.009,0,0,0,4,4.9V63H25V58.9A5.009,5.009,0,0,0,29,54v7a2,2,0,0,0,2,2H61a2,2,0,0,0,2-2V41a2,2,0,0,0-2-2ZM23,40V53H18.414l2.693-2.693-3.03-12.12.678-1.017,1.519,1.519,2.992-5.982A8.024,8.024,0,0,1,29,40.378V51H25V40Zm-2.859-7.952,1.107.221-1.521,3.042-2.038-2.038Zm-2.828,3.679L16.465,37h-.93l-.848-1.273L16,34.414ZM15.781,39h.439l2.673,10.693L16,52.586l-2.893-2.893ZM46.953,54.588a1.353,1.353,0,0,1-1.907,0L32.308,41H59.692ZM31,42.528l8.254,8.8L31,59.586Zm9.622,10.264,2.964,3.161a3.306,3.306,0,0,0,4.827,0l2.965-3.162L59.586,61H32.414Zm12.124-1.46L61,42.528V59.586ZM49.582,24.525l-3.62,4.023-2.255-2.255-1.414,1.414,3.745,3.745,4.642-5.158A4.937,4.937,0,0,1,51,28a5.023,5.023,0,1,1-1.418-3.475ZM46,5a4.977,4.977,0,0,1,3.582,1.525l-3.62,4.023L43.707,8.293,42.293,9.707l3.745,3.745L50.68,8.294A4.937,4.937,0,0,1,51,10a5,5,0,1,1-5-5Zm-6.92,6A7,7,0,0,0,45,16.92v4.16a6.991,6.991,0,0,0,0,13.84V39H31l-.1,0a10.033,10.033,0,0,0-7.943-8.43l-2.145-.429-.4-1.583A7.009,7.009,0,0,0,24.92,23H25a3.992,3.992,0,0,0,3.276-6.284l.51-2.549A11.043,11.043,0,0,0,29,12.009c0-.341-.021-.676-.051-1.009ZM25,17a2,2,0,0,1,0,4ZM7.364,7.959l.449-.3.115-.288A6.923,6.923,0,0,1,14.385,3h3.606a9.009,9.009,0,0,1,8.834,10.776L26.519,15.3A3.963,3.963,0,0,0,25,15h-.28a5.777,5.777,0,0,0-5.489-4H16.908a8.584,8.584,0,0,1-4.773-1.445A3.3,3.3,0,0,0,7,12.3V15a3.972,3.972,0,0,0-1.52.3L5.1,13.417A5.366,5.366,0,0,1,5,12.375,5.3,5.3,0,0,1,7.364,7.959ZM5,19a2,2,0,0,1,2-2v4A2,2,0,0,1,5,19Zm4,3V12.3a1.3,1.3,0,0,1,2.026-1.084A10.571,10.571,0,0,0,16.908,13h2.323A3.772,3.772,0,0,1,23,16.769V22a5.006,5.006,0,0,1-5,5H14a5.006,5.006,0,0,1-5-5Zm5,7h4c.156,0,.31-.013.464-.023l.372,1.488L16,31.882l-2.836-1.418.372-1.488c.154.011.308.024.464.024Zm-2.141,3.048,2.452,1.226-2.038,2.038L10.752,32.27ZM3,40.378a8.027,8.027,0,0,1,5.735-7.672l2.992,5.982,1.519-1.519.678,1.017-3.03,12.12L13.586,53H9V40H7V51H3ZM5,54V53H7v3.816A3,3,0,0,1,5,54Zm12,7V57H15v4H9V55H23v6Zm8-4.184V53h2v1A3,3,0,0,1,25,56.816Z" fill="#012d4a"/>
    </g>
  </g>
</svg>