<?xml version="1.0" encoding="utf-8"?>
<svg viewBox="0 0 500 500" xmlns="http://www.w3.org/2000/svg">
  <g id="Highly_Curated_Workforce" data-name="Highly Curated Workforce" transform="matrix(7.931679, 0, 0, 8.47331, 3.482769, -134.525011)" style="">
    <g id="Group_211" data-name="Group 211" transform="translate(0 16.557)">
      <path id="Path_2329" data-name="Path 2329" d="M13.525,40.969V25.512a.908.908,0,0,1,.906-.91h1.8L10.94,18.431,5.654,24.6H7.445a.911.911,0,0,1,.91.91v15.46Zm42.132,8.252L50.12,47.347l-3.652,1.789v1.716a4.595,4.595,0,0,0,9.189,0Zm-9.189-2.1L49.6,45.586a.907.907,0,0,1,.745-.075l5.307,1.8V44.955a2.18,2.18,0,0,0-2.173-2.17H48.64a2.18,2.18,0,0,0-2.173,2.17Zm-40.12-1.3h9.186V42.785H8.516a2.18,2.18,0,0,0-2.169,2.173Zm9.186,1.819H6.347v3.209a4.593,4.593,0,0,0,9.186,0Zm20.06-10.8a7.063,7.063,0,0,1-5.938-1.569,5.207,5.207,0,0,1-3.247.759v2.616a4.528,4.528,0,0,0,.309,1.655,4.667,4.667,0,0,0,.48.916,3.933,3.933,0,0,1,1.383-.247h4.843a3.915,3.915,0,0,1,1.38.247,4.574,4.574,0,0,0,.79-2.571V36.84ZM26.407,34.2a3.357,3.357,0,0,0,2.76-.8.9.9,0,0,1,1.277.093A5.241,5.241,0,0,0,35.593,35V32.748a2.18,2.18,0,0,0-2.169-2.169H28.58a2.18,2.18,0,0,0-2.173,2.169V34.2Zm9.186,14.843a7.063,7.063,0,0,1-5.938-1.569,5.227,5.227,0,0,1-3.247.762v2.612a4.593,4.593,0,0,0,9.186,0V49.046ZM26.407,46.41a3.356,3.356,0,0,0,2.76-.8.906.906,0,0,1,1.277.093,5.244,5.244,0,0,0,5.149,1.51V44.955a2.18,2.18,0,0,0-2.169-2.17H28.58a2.18,2.18,0,0,0-2.173,2.17V46.41ZM6.539,41.5V26.422H5.4a1.7,1.7,0,0,1-1.239-2.863l5.489-6.412a1.681,1.681,0,0,1,1.3-.591,1.7,1.7,0,0,1,1.287.608l5.523,6.453a1.7,1.7,0,0,1-1.287,2.8H15.34V40.969h1.1a.905.905,0,0,1,.906.906v8.976a6.372,6.372,0,0,1-1.26,3.807,6.082,6.082,0,0,1,3.972,1.758V48.542a6.12,6.12,0,0,1,5.393-6.055c.075-.093.154-.185.237-.271a6.67,6.67,0,0,1-.663-1.26,6.365,6.365,0,0,1-.436-2.31v-5.9a3.973,3.973,0,0,1,1.17-2.815,4.133,4.133,0,0,1,.838-.645V26.422H25.463a1.729,1.729,0,0,1-1.2-.5,1.7,1.7,0,0,1-.5-1.2,1.733,1.733,0,0,1,.491-1.194l5.458-6.378a1.685,1.685,0,0,1,1.3-.591,1.7,1.7,0,0,1,1.291.608l5.523,6.453a1.7,1.7,0,0,1-1.287,2.8H35.4v2.87a3.887,3.887,0,0,1,.834.642,3.958,3.958,0,0,1,1.17,2.815v5.9a6.365,6.365,0,0,1-.436,2.31,6.487,6.487,0,0,1-.659,1.26c.082.086.161.179.237.271a6.121,6.121,0,0,1,5.389,6.055v7.874a6.084,6.084,0,0,1,3.975-1.758,6.359,6.359,0,0,1-1.263-3.807v-5.9A4,4,0,0,1,46.659,41.5V26.422H45.523a1.7,1.7,0,0,1-1.236-2.863l5.485-6.412a1.7,1.7,0,0,1,2.605.031l5.509,6.44a1.7,1.7,0,0,1-1.287,2.8H55.464V41.5a4,4,0,0,1,2.008,3.457v5.9a6.358,6.358,0,0,1-1.263,3.807A6.109,6.109,0,0,1,62,60.748V72.182a2.663,2.663,0,0,1-2.375,2.365h-6.5a.908.908,0,1,1,0-1.816h2.863V61.709a.9.9,0,1,1,1.809,0V72.731h1.754a.9.9,0,0,0,.639-.639V60.748a4.3,4.3,0,0,0-4.281-4.28H54.142a6.382,6.382,0,0,1-6.161,0H46.22a4.3,4.3,0,0,0-4.281,4.28V72.092a.9.9,0,0,0,.639.639h1.751V61.709a.908.908,0,1,1,1.816,0V72.731H49a.908.908,0,1,1,0,1.816H42.486a2.668,2.668,0,0,1-1.456-.632,2.576,2.576,0,0,1-1.486.632H33.056a.908.908,0,0,1,0-1.816h2.866V61.709a.9.9,0,1,1,1.809,0V72.731h1.754a.9.9,0,0,0,.638-.639V60.748a4.3,4.3,0,0,0-4.28-4.28H34.082a6.382,6.382,0,0,1-6.161,0H26.16a4.3,4.3,0,0,0-4.281,4.28V72.092a.9.9,0,0,0,.635.639h1.754V61.709a.908.908,0,1,1,1.816,0V72.731h2.859a.908.908,0,1,1,0,1.816H22.425a2.647,2.647,0,0,1-1.455-.632,2.616,2.616,0,0,1-1.469.632H13a.908.908,0,0,1,0-1.816h2.863V61.709a.9.9,0,1,1,1.809,0V72.731h1.758a.9.9,0,0,0,.635-.639V60.748a4.3,4.3,0,0,0-4.281-4.28H14.019a6.376,6.376,0,0,1-6.158,0H6.1a4.3,4.3,0,0,0-4.281,4.28V72.092a.908.908,0,0,0,.638.639H4.2V61.709a.91.91,0,0,1,1.819,0V72.731H8.883a.908.908,0,0,1,0,1.816H2.365A2.665,2.665,0,0,1,0,72.182V60.748a6.121,6.121,0,0,1,5.791-6.089,6.348,6.348,0,0,1-1.26-3.807V44.958A3.965,3.965,0,0,1,5.7,42.14a3.816,3.816,0,0,1,.837-.642Zm41.94-.525h5.169V25.512a.908.908,0,0,1,.906-.91h1.792l-5.283-6.172L45.777,24.6h1.792a.911.911,0,0,1,.91.91ZM28.415,28.763h5.169V25.512a.911.911,0,0,1,.91-.91h1.792L31,18.431,25.717,24.6h1.792a.908.908,0,0,1,.906.91Zm8.994,22.089a6.348,6.348,0,0,1-1.26,3.807,6.09,6.09,0,0,1,3.975,1.758V48.542a4.267,4.267,0,0,0-1.16-2.924,4.334,4.334,0,0,0-1.576-1.068,4.016,4.016,0,0,1,.021.405ZM25.851,54.658a6.371,6.371,0,0,1-1.26-3.807v-5.9a4.019,4.019,0,0,1,.021-.405,4.322,4.322,0,0,0-1.572,1.068,4.252,4.252,0,0,0-1.16,2.924v7.874A6.083,6.083,0,0,1,25.851,54.658Z" transform="translate(0 -16.557)" fill="#012d4a"/>
    </g>
  </g>
</svg>