<?xml version="1.0" encoding="utf-8"?>
<svg viewBox="0 0 500 500" xmlns="http://www.w3.org/2000/svg">
  <g id="Group_225" data-name="Group 225" transform="matrix(7.790866, 0, 0, 8.025341, -616.224619, -652.288096)" style="">
    <g id="Group_224" data-name="Group 224" transform="translate(79.732 81.79)">
      <g id="Group_223" data-name="Group 223" transform="translate(0 0)">
        <g id="Group_221" data-name="Group 221" transform="translate(6.3 7.394)">
          <path id="Path_2400" data-name="Path 2400" d="M354.2,130.583a.879.879,0,0,1-.879-.879v-4.992a.879.879,0,1,1,1.759,0V129.7A.879.879,0,0,1,354.2,130.583Z" transform="translate(-311.508 -123.832)" fill="#012d4a"/>
          <path id="Path_2401" data-name="Path 2401" d="M354.2,176.276a.879.879,0,0,1-.879-.879v-.587a.879.879,0,1,1,1.759,0v.587A.879.879,0,0,1,354.2,176.276Z" transform="translate(-311.508 -165.119)" fill="#012d4a"/>
          <path id="Path_2402" data-name="Path 2402" d="M123.344,126.13h-7.4a.393.393,0,0,0-.394.394v.687a.394.394,0,0,0,.394.394h2.9v8.535a.394.394,0,0,0,.394.394h.812a.393.393,0,0,0,.394-.394V127.6h2.9a.393.393,0,0,0,.394-.394v-.687a.394.394,0,0,0-.394-.393Z" transform="translate(-115.554 -125.726)" fill="#012d4a"/>
          <path id="Path_2403" data-name="Path 2403" d="M174.09,125.974a3.98,3.98,0,0,0-5.8,1.737,5.934,5.934,0,0,0-.5,2.492v.99a5.218,5.218,0,0,0,1.132,3.509,3.808,3.808,0,0,0,3.019,1.342,3.99,3.99,0,0,0,2.179-.6,3.9,3.9,0,0,0,1.458-1.713,5.978,5.978,0,0,0,.494-2.495v-1.156a5.854,5.854,0,0,0-.52-2.427,3.916,3.916,0,0,0-1.456-1.676Zm-2.155,8.577a2.207,2.207,0,0,1-1.844-.852,3.891,3.891,0,0,1-.707-2.466v-1a3.928,3.928,0,0,1,.709-2.51,2.433,2.433,0,0,1,3.675,0,3.894,3.894,0,0,1,.7,2.475v1.017a4.007,4.007,0,0,1-.689,2.508,2.187,2.187,0,0,1-1.843.837Z" transform="translate(-158.598 -125.106)" fill="#012d4a"/>
          <path id="Path_2404" data-name="Path 2404" d="M232.955,126.995a3.847,3.847,0,0,0-2.628-.865h-3.276a.393.393,0,0,0-.394.394v9.615a.394.394,0,0,0,.394.394h.812a.393.393,0,0,0,.394-.394v-3.523h2.05a3.941,3.941,0,0,0,2.681-.835,3.4,3.4,0,0,0-.033-4.787Zm-.6,2.411a1.619,1.619,0,0,1-.491,1.276,2.243,2.243,0,0,1-1.539.46h-2.07V127.6h2.118a2.116,2.116,0,0,1,1.486.5,1.71,1.71,0,0,1,.5,1.306Z" transform="translate(-207.119 -125.726)" fill="#012d4a"/>
        </g>
        <g id="Group_222" data-name="Group 222">
          <path id="Path_2405" data-name="Path 2405" d="M310.055,96.764,306.973,92.9l1.1-4.818a1.519,1.519,0,0,0-1.48-1.856H301.65l-3.081-3.864a1.518,1.518,0,0,0-2.374,0l-3.081,3.864h-4.943a1.519,1.519,0,0,0-1.48,1.856l1.1,4.818-3.082,3.864a1.518,1.518,0,0,0,.528,2.314l4.453,2.145,1.1,4.819a1.519,1.519,0,0,0,2.139,1.03l4.453-2.144,4.453,2.145a1.519,1.519,0,0,0,2.139-1.03l1.1-4.819,4.453-2.144a1.518,1.518,0,0,0,.528-2.315Zm-5.849,2.925a1.511,1.511,0,0,0-.821,1.03l-1.058,4.638-4.286-2.064a1.51,1.51,0,0,0-1.318,0l-4.286,2.064-1.058-4.638a1.513,1.513,0,0,0-.822-1.03l-4.286-2.064,2.966-3.719a1.512,1.512,0,0,0,.293-1.284l-1.059-4.638h4.757a1.512,1.512,0,0,0,1.187-.572l2.966-3.719,2.966,3.72a1.512,1.512,0,0,0,1.187.571h4.757l-1.058,4.638a1.511,1.511,0,0,0,.293,1.285l2.966,3.719Z" transform="translate(-248.387 -81.79)" fill="#012d4a"/>
          <path id="Path_2406" data-name="Path 2406" d="M111.838,229.981a3,3,0,0,0,2.746.347l2.031-.754v15.782a2.993,2.993,0,0,0,2.99,2.99h1.836a2.993,2.993,0,0,0,2.99-2.99V223a2.993,2.993,0,0,0-2.99-2.99h-.306a3,3,0,0,0-1.04.187l-7.592,2.816a3,3,0,0,0-1.95,2.8v1.714A3,3,0,0,0,111.838,229.981Zm.475-4.169a1.236,1.236,0,0,1,.8-1.154l7.59-2.815a1.242,1.242,0,0,1,.43-.078h.306A1.232,1.232,0,0,1,122.672,223v22.36a1.232,1.232,0,0,1-1.231,1.231H119.6a1.232,1.232,0,0,1-1.231-1.231V228.31a.88.88,0,0,0-1.185-.824l-3.213,1.193a1.231,1.231,0,0,1-1.663-1.153Z" transform="translate(-105.133 -195.698)" fill="#012d4a"/>
          <path id="Path_2407" data-name="Path 2407" d="M238.9,268.905a2.911,2.911,0,0,0,2.675-1.407,9.822,9.822,0,0,0,1.084-5.127v-4.281a9.8,9.8,0,0,0-1.055-5.124,2.89,2.89,0,0,0-2.734-1.389,2.921,2.921,0,0,0-2.705,1.357,9.46,9.46,0,0,0-1.084,4.99v4.36a9.759,9.759,0,0,0,1.1,5.167A2.97,2.97,0,0,0,238.9,268.905Zm-2.061-10.973c.021-2.484.508-3.593.8-4.032.245-.374.5-.563,1.235-.563.885,0,1.079.306,1.251.575.291.457.779,1.608.779,4.179v4.276c-.011,2.559-.51,3.72-.807,4.184a1.161,1.161,0,0,1-1.193.6,1.22,1.22,0,0,1-1.24-.643,8.42,8.42,0,0,1-.822-4.219v-4.352Z" transform="translate(-207.756 -221.718)" fill="#012d4a"/>
          <path id="Path_2408" data-name="Path 2408" d="M203.107,243.961a9.529,9.529,0,0,0,15.011-.088c1.513-2.135,2.28-5.124,2.28-8.884v-4.127c-.05-3.661-.858-6.565-2.4-8.629a9.584,9.584,0,0,0-14.966.125c-1.533,2.124-2.31,5.107-2.31,8.866v4.023c.037,3.677.84,6.609,2.387,8.713Zm1.349-20.574a7.831,7.831,0,0,1,12.132-.1c1.316,1.76,2.006,4.315,2.051,7.595v4.109c0,3.388-.658,6.034-1.956,7.867a7.774,7.774,0,0,1-12.159.063c-1.324-1.8-2.012-4.388-2.045-7.68v-4.015C202.479,227.843,203.144,225.206,204.456,223.388Z" transform="translate(-179.442 -194.622)" fill="#012d4a"/>
          <path id="Path_2409" data-name="Path 2409" d="M128.727,164.309a.879.879,0,0,0-.879.879v28.959a2.641,2.641,0,0,1-2.638,2.638H84.129a2.641,2.641,0,0,1-2.638-2.638V153.5a2.641,2.641,0,0,1,2.638-2.638.879.879,0,1,0,0-1.759,4.4,4.4,0,0,0-4.4,4.4v40.643a4.4,4.4,0,0,0,4.4,4.4H125.21a4.4,4.4,0,0,0,4.4-4.4V165.189a.879.879,0,0,0-.879-.88Z" transform="translate(-79.732 -137.269)" fill="#012d4a"/>
        </g>
      </g>
    </g>
  </g>
</svg>