<?xml version="1.0" encoding="utf-8"?>
<svg viewBox="0 0 500 500" xmlns="http://www.w3.org/2000/svg" xmlns:bx="https://boxy-svg.com">
  <g id="Future_Ready_Salespeople" data-name="Future Ready Salespeople" transform="matrix(8.162496, 0, 0, 8.074386, -19.589987, -11.923015)" style="" bx:origin="-0.117 1.582">
    <path id="Path_2325" data-name="Path 2325" d="M59.335,22.176a3.03,3.03,0,0,0-2.035.794,3.005,3.005,0,0,0-4.07,0,2.957,2.957,0,0,0-3.053-.606V15.053a3.053,3.053,0,1,0-6.106,0V27.924l-3.848,4.81A1.019,1.019,0,0,0,40,33.37v6.106a1.017,1.017,0,0,0,.3.719l2.755,2.755V46.6a1.017,1.017,0,0,0,1.018,1.018H59.335A1.017,1.017,0,0,0,60.352,46.6V42.95l1.737-1.737a1.017,1.017,0,0,0,.3-.719V25.229a3.056,3.056,0,0,0-3.053-3.053Zm-1.018,23.4H45.088V43.546H58.317Zm2.035-5.509-1.439,1.439H44.492l-2.457-2.457V33.727l2.035-2.544v3.2h2.035V15.053a1.018,1.018,0,1,1,2.035,0V30.317h2.035V25.229a1.018,1.018,0,1,1,2.035,0v5.088h2.035V25.229a1.018,1.018,0,1,1,2.035,0v5.088h2.035V25.229a1.018,1.018,0,1,1,2.035,0Z" transform="translate(0.651 0.176)" fill="#012d4a"/>
    <path id="Path_2326" data-name="Path 2326" d="M17.441,42.285a1.017,1.017,0,0,0,1.788-.276l7.365-22.092L30.582,27.9A1.018,1.018,0,0,0,32.339,28L46.756,6.379v3.762h2.035V3.018a1.017,1.017,0,0,0-1.3-.979L40.372,4.074l.558,1.958,4.461-1.275L31.619,25.417l-4.3-8.608a1,1,0,0,0-.983-.559,1.015,1.015,0,0,0-.892.693L17.924,39.489l-6.978-9.594a1.018,1.018,0,0,0-1.8.319L3.038,51.584,5,52.142,10.527,32.78Z" fill="#012d4a"/>
    <path id="Path_2327" data-name="Path 2327" d="M51.048,36.661l-1.316-1.316-1.439,1.439,2.035,2.035a1.017,1.017,0,0,0,1.439,0l5.088-5.088-1.439-1.439Z" transform="translate(0.797 0.533)" fill="#012d4a"/>
    <path id="Path_2328" data-name="Path 2328" d="M42.634,50.282a1.017,1.017,0,0,0-1.018-1.018H38.563V44.176a1.017,1.017,0,0,0-1.018-1.018H34.493V35.018A1.017,1.017,0,0,0,33.475,34H29.4a1.017,1.017,0,0,0-1.018,1.018V45.194H26.352V44.176a1.017,1.017,0,0,0-1.018-1.018h-4.07a1.017,1.017,0,0,0-1.018,1.018V51.3H18.211V49.264a1.017,1.017,0,0,0-1.018-1.018h-4.07a1.017,1.017,0,0,0-1.018,1.018v5.088H9.053A1.017,1.017,0,0,0,8.035,55.37v5.088H6v2.035H44.669V60.458H42.634ZM10.07,56.387h2.035v4.07H10.07Zm4.07-1.018V50.282h2.035V60.458H14.141Zm4.07-2.035h2.035v7.123H18.211Zm4.07-1.018V45.194h2.035V60.458H22.282Zm4.07-5.088h2.035V60.458H26.352Zm4.07-1.018V36.035h2.035V60.458H30.423Zm4.07-1.018h2.035V60.458H34.493Zm4.07,15.264V51.3H40.6v9.158Z" transform="translate(0.052 0.563)" fill="#012d4a"/>
  </g>
</svg>