<?xml version="1.0" encoding="utf-8"?>
<svg viewBox="0 0 500 500" xmlns="http://www.w3.org/2000/svg" xmlns:xlink="http://www.w3.org/1999/xlink">
  <defs>
    <linearGradient id="linear-gradient" x1="0.303" y1="0.018" x2="0.575" y2="0.717" gradientUnits="objectBoundingBox">
      <stop offset="0" stop-color="#40d5e6"/>
      <stop offset="1" stop-color="#57f"/>
    </linearGradient>
    <linearGradient id="linear-gradient-2" x1="0" y1="0.5" x2="1" y2="0.5" xlink:href="#linear-gradient"/>
    <linearGradient id="linear-gradient-6" y1="0.5" x2="1" y2="0.5" gradientUnits="objectBoundingBox">
      <stop offset="0" stop-color="#ff9340"/>
      <stop offset="1" stop-color="#ffce45"/>
    </linearGradient>
    <linearGradient id="linear-gradient-7" y1="0.5" x2="1" y2="0.5" gradientUnits="objectBoundingBox">
      <stop offset="0" stop-color="#c97332"/>
      <stop offset="1" stop-color="#ffce45"/>
    </linearGradient>
    <linearGradient id="linear-gradient-8" x1="0.214" y1="-0.108" x2="0.632" y2="0.781" xlink:href="#linear-gradient"/>
    <linearGradient id="linear-gradient-10" x1="0.24" y1="-0.459" x2="0.635" y2="1.026" xlink:href="#linear-gradient"/>
    <linearGradient id="linear-gradient-11" x1="-0.017" y1="-0.189" x2="0.503" y2="0.588" xlink:href="#linear-gradient"/>
  </defs>
  <g id="Group_480" data-name="Group 480" transform="matrix(0.926451, 0, 0, 1.13931, -543.7472, -613.905832)" style="">
    <g id="Group_479" data-name="Group 479" transform="translate(591.141 540.73)">
      <g id="Group_226" data-name="Group 226" transform="translate(93.667 130.378)">
        <path id="Path_2410" data-name="Path 2410" d="M1031.075,1278.964l-34.62-24.637,7.737-17.33a96.556,96.556,0,0,1-13.642-21.8l-18.988-.6L964.5,1172.7l17.744-6.793a96.494,96.494,0,0,1,5.743-25.069L975.006,1127l24.631-34.619,17.331,7.736a96.551,96.551,0,0,1,21.807-13.642l.6-18.983,41.895-7.064,6.787,17.744a96.5,96.5,0,0,1,25.074,5.743l13.837-12.984,34.619,24.631-7.736,17.33a96.725,96.725,0,0,1,13.642,21.807l18.982.6,7.059,41.894-17.738,6.787a97.214,97.214,0,0,1-1.717,11.29l-.216,1.013-46.74-11.515.17-.93a49.054,49.054,0,1,0-61.691,38.32l.883.25-8.961,47.334-1.021-.241a96.214,96.214,0,0,1-11.592-3.527Zm-32.117-25.32,31.942,22.731,13.553-12.719.587.224a94.232,94.232,0,0,0,10.905,3.424l8.23-43.47a51.084,51.084,0,1,1,65.256-40.562l42.9,10.568a95.033,95.033,0,0,0,1.525-10.656l.054-.627,17.377-6.649-6.512-38.653-18.595-.59-.256-.574a94.707,94.707,0,0,0-14.007-22.39l-.4-.481,7.578-16.976-31.942-22.726-13.554,12.719-.587-.225a94.483,94.483,0,0,0-25.744-5.9l-.627-.054-6.649-17.382-38.653,6.518-.589,18.6-.574.256a94.551,94.551,0,0,0-22.39,14.006l-.481.4-16.976-7.578-22.726,31.942,12.719,13.554-.225.587a94.486,94.486,0,0,0-5.9,25.738l-.053.627-17.383,6.655,6.512,38.653,18.6.59.256.574a94.54,94.54,0,0,0,14.007,22.384l.4.481Z" transform="translate(-964.503 -1060.428)" fill="url(#linear-gradient)"/>
      </g>
      <g id="Group_231" data-name="Group 231" transform="translate(465.016 310.283)">
        <path id="Path_2411" data-name="Path 2411" d="M2448.356,1777.719c3.579-1.712,7.141,9.682,7.141,9.682,6.083,8.038,14.584-2.656,13.753,9.361-1.455,21.026,24.2,6.612,12.365,28.564s10.451,12.412,3.1,30.113,2.178,38.812-8.89,30.137c0,0-9.746-21.371-19.8-27.983s6.021-14.457,2.876-23.438c-4.567-13.044-15.572-12.532-7.637-26.549S2436.19,1783.537,2448.356,1777.719Z" transform="translate(-2444.73 -1777.544)" fill="url(#linear-gradient-2)"/>
        <g id="Group_227" data-name="Group 227" transform="translate(14.407 22.291)">
          <path id="Path_2412" data-name="Path 2412" d="M2522.346,1944.1c-4.8-3.374-10.412-26.886-10.747-40.891-.172-7.173-2.292-10.162-4.163-12.8-1.789-2.52-3.333-4.7-2.433-9.7,1.719-9.552-2.8-13.675-2.847-13.715l.523-.6c.2.176,4.909,4.429,3.1,14.453-.841,4.67.545,6.623,2.3,9.1,1.841,2.594,4.132,5.823,4.309,13.239.36,15.029,6.1,37.229,10.41,40.261Z" transform="translate(-2502.156 -1866.398)" fill="#fff"/>
        </g>
        <g id="Group_228" data-name="Group 228" transform="translate(30.449 54.634)">
          <path id="Path_2413" data-name="Path 2413" d="M2572.043,2042.416a10.273,10.273,0,0,1-2.028-.22,4.427,4.427,0,0,1-3.6-2.9c-1.293-3.7,1.7-9.707,4.135-12.6a18.491,18.491,0,0,0,3.677-11.919c-.073-1.156-.193-2.225-.3-3.17-.306-2.729-.527-4.7.646-6.017,1.033-1.161,3.027-1.663,6.667-1.68,6.385-.03,8.909-2.673,10.938-4.8a11.573,11.573,0,0,1,2.664-2.294h0c3.182-1.737,6.552-1.992,8.014-.607.694.658,1.28,1.947.13,4.351a16.809,16.809,0,0,1-3.509,4.705c-1.474,1.5-2.447,2.5-1.941,4.477.119.465.256.934.394,1.405.984,3.367,2.1,7.182-3.662,9.772-1.223.549-2.336.987-3.32,1.373-4.022,1.578-6.45,2.531-9.19,8.316-.53,1.12-1,2.181-1.452,3.208C2578.144,2038.712,2576.509,2042.416,2572.043,2042.416Zm23.176-44.9a10.845,10.845,0,0,0-2.47,2.145c-2.132,2.232-4.786,5.011-11.508,5.043-3.348.016-5.222.452-6.079,1.415-.937,1.053-.732,2.877-.449,5.4.106.952.228,2.033.3,3.208a18.953,18.953,0,0,1-3.86,12.479c-2.408,2.867-5.135,8.572-3.994,11.832a3.681,3.681,0,0,0,3.011,2.384c5.427,1.1,6.925-2.3,9.406-7.923.455-1.031.926-2.1,1.46-3.228,2.875-6.069,5.558-7.122,9.618-8.715.974-.382,2.08-.816,3.284-1.358,5.131-2.306,4.206-5.473,3.226-8.826-.141-.479-.281-.958-.4-1.431-.618-2.413.6-3.656,2.142-5.229a15.912,15.912,0,0,0,3.361-4.493c.521-1.089.951-2.569.04-3.432-1.2-1.137-4.246-.824-7.088.728Z" transform="translate(-2566.1 -1995.319)" fill="url(#linear-gradient-2)"/>
        </g>
        <g id="Group_229" data-name="Group 229" transform="translate(33.657 60.97)">
          <path id="Path_2414" data-name="Path 2414" d="M2579.682,2065.917l-.792-.041c.039-.745,1.038-18.291,8.083-23.427,7.729-5.634,10.167-11.689,11.327-15.752,1.368-4.789,8.329-6.069,8.625-6.121l.138.781c-.068.012-6.768,1.247-8,5.557-1.192,4.177-3.7,10.4-11.622,16.176C2580.7,2048.006,2579.691,2065.739,2579.682,2065.917Z" transform="translate(-2578.889 -2020.576)" fill="url(#linear-gradient-2)"/>
        </g>
        <path id="Path_2415" data-name="Path 2415" d="M2565.41,1848.225c-5.008-1.717-3.968,7.935-6.083,15.075s-23.538,3.115-14.546,21-11.373,5.98-5.29,21.584.529,32.293,7.141,28.048,3.715-23.9,10.591-26.23,8-5.058,1.19-11.406,17.841-12.649,11.757-25.467S2571.2,1850.209,2565.41,1848.225Z" transform="translate(-2514.853 -1830.343)" fill="url(#linear-gradient-2)"/>
        <g id="Group_230" data-name="Group 230" transform="translate(31.737 40.267)">
          <path id="Path_2416" data-name="Path 2416" d="M2574.346,2000.623c-.63-2.671-6.008-26.18-.99-29.021,4.423-2.5,4.314-12.246,3.624-21.445-.611-8.143,9.847-11.949,10.292-12.107l.265.748c-.1.037-10.332,3.762-9.767,11.3.708,9.446.784,19.471-4.024,22.194-3.81,2.158-.3,21.051,1.371,28.149Z" transform="translate(-2571.235 -1938.05)" fill="#fff"/>
        </g>
        <path id="Path_2417" data-name="Path 2417" d="M2538.6,2154.1l-7.149,27.124h-15.977l-7.15-27.124Z" transform="translate(-2492.37 -2059.635)" fill="url(#linear-gradient-6)"/>
        <path id="Path_2418" data-name="Path 2418" d="M2538.6,2154.1s-15.739,2.955-15.739,27.124h-7.387l-7.15-27.124Z" transform="translate(-2492.37 -2059.635)" fill="url(#linear-gradient-7)"/>
      </g>
      <g id="Group_232" data-name="Group 232" transform="translate(208.183 263.988)">
        <path id="Path_2419" data-name="Path 2419" d="M1420.973,1625.98v-2.007a49.115,49.115,0,0,0,45.8-30.967l1.862.747A51.112,51.112,0,0,1,1420.973,1625.98Z" transform="translate(-1420.973 -1593.006)" fill="#48b1f0"/>
      </g>
      <g id="Group_233" data-name="Group 233" transform="translate(208.183 295.173)">
        <path id="Path_2420" data-name="Path 2420" d="M1420.973,1733.474v-2.007a64.986,64.986,0,0,0,40.731-14.154l1.246,1.574A66.975,66.975,0,0,1,1420.973,1733.474Z" transform="translate(-1420.973 -1717.313)" fill="#48b1f0"/>
      </g>
      <g id="Group_234" data-name="Group 234" transform="translate(254.945 277.322)">
        <path id="Path_2421" data-name="Path 2421" d="M1608.494,1683.507l-1.124-1.663a83.759,83.759,0,0,0,29.824-35.688l1.837.809A85.762,85.762,0,0,1,1608.494,1683.507Z" transform="translate(-1607.37 -1646.156)" fill="#48b1f0"/>
      </g>
      <g id="Group_235" data-name="Group 235" transform="translate(372.443 87.286)">
        <rect id="Rectangle_76" data-name="Rectangle 76" width="2.007" height="50.894" transform="matrix(0.741, -0.672, 0.672, 0.741, 0, 1.349)" fill="#98a6b1"/>
      </g>
      <path id="Path_2422" data-name="Path 2422" d="M1192.385,1191.632l-3.4-20.137-18.79-.595a95.8,95.8,0,0,0-14.153-22.628l7.657-17.15-33.282-23.682-13.693,12.852a94.6,94.6,0,0,0-10.505-3.336l-8.461,45.543a50.143,50.143,0,0,1,33.886,56.742l44.814,11.04a96.21,96.21,0,0,0,1.756-11.792l17.554-6.719Zm-150.8-10.5a49.819,49.819,0,0,1,14.023-13.293l-22.869-40.08a95.1,95.1,0,0,0-12.248,8.749l-17.15-7.657L991.5,1145.489l-11.839,16.639,12.852,13.7a95.455,95.455,0,0,0-5.961,26.01l-17.563,6.723,3.4,20.138,3.392,20.138,18.79.594a95.63,95.63,0,0,0,14.157,22.623l-7.657,17.15,16.639,11.848,16.643,11.839,13.693-12.852a94.492,94.492,0,0,0,12.053,3.708l8.6-45.4a50.1,50.1,0,0,1-27.107-77.214Z" transform="translate(-874.199 -965.268)" fill="url(#linear-gradient-8)"/>
      <path id="Path_2423" data-name="Path 2423" d="M974.6,832.593A38.911,38.911,0,0,0,977.028,822l7.148-2.736-1.381-8.2-1.381-8.2-7.649-.243a38.914,38.914,0,0,0-5.763-9.21l3.117-6.983-6.774-4.82-6.774-4.821L952,782.028a38.923,38.923,0,0,0-10.59-2.427l-2.736-7.147-8.2,1.381-8.2,1.381-.243,7.649a38.915,38.915,0,0,0-9.21,5.763l-6.983-3.117-4.82,6.774-4.821,6.774,5.233,5.576A38.915,38.915,0,0,0,899,815.224l-7.148,2.735,1.381,8.2,1.381,8.2,7.649.242a38.92,38.92,0,0,0,5.763,9.21l-3.117,6.983,6.774,4.821,6.774,4.82,5.576-5.233a38.918,38.918,0,0,0,10.59,2.427l2.735,7.148,8.2-1.381,8.2-1.381.243-7.649a38.922,38.922,0,0,0,9.21-5.763l6.982,3.117,4.821-6.774,4.82-6.774ZM926.2,835.222a20.385,20.385,0,1,1,28.428-4.789A20.385,20.385,0,0,1,926.2,835.222Z" transform="translate(-816.414 -714.32)" fill="url(#linear-gradient-2)"/>
      <g id="Group_236" data-name="Group 236" transform="translate(368.199 19.955)">
        <path id="Path_2424" data-name="Path 2424" d="M2063.8,689.453a4.994,4.994,0,0,0,4.988-4.988h-1.175a3.813,3.813,0,1,1-3.813-3.813h.588v-60.38h-1.175v59.239a4.988,4.988,0,0,0,.587,9.942Z" transform="translate(-2058.809 -620.272)" fill="#385369"/>
      </g>
      <g id="Group_237" data-name="Group 237" transform="translate(371.834 50.426)">
        <rect id="Rectangle_77" data-name="Rectangle 77" width="2.808" height="28.513" transform="translate(2.808 28.513) rotate(180)" fill="#98a6b1"/>
      </g>
      <g id="Group_238" data-name="Group 238" transform="translate(338.295 86.461)">
        <path id="Path_2425" data-name="Path 2425" d="M1941.1,925.234l-1.486-1.349,34.892-38.515,1.378,1.242Z" transform="translate(-1939.611 -885.369)" fill="#98a6b1"/>
      </g>
      <path id="Path_2426" data-name="Path 2426" d="M1930.9,1061.862a95.419,95.419,0,0,0,11.134-9.8l-32.05-33.214a50.127,50.127,0,0,1-74.107-.432l-31.456,33.848a94.826,94.826,0,0,0,10.616,9.338l-3.661,18.44,18.849,7.856,18.852,7.851,10.511-15.584a95.845,95.845,0,0,0,26.691.071l10.438,15.615,18.883-7.778,18.883-7.778Z" transform="translate(-1500.042 -898.579)" fill="url(#linear-gradient-10)"/>
      <g id="Group_243" data-name="Group 243" transform="translate(360.481 367.264)">
        <g id="Group_239" data-name="Group 239">
          <path id="Path_2427" data-name="Path 2427" d="M2050.328,2006.657h64.07l-20.193,62.012,1.888.615,21.04-64.613h-68.247l-20.839,64,1.888.615Z" transform="translate(-2028.047 -2004.672)" fill="#fb5"/>
        </g>
        <g id="Group_240" data-name="Group 240" transform="translate(21.159)">
          <path id="Path_2428" data-name="Path 2428" d="M2135.316,2068.67l-20.193-62.012h64.069l20.393,62.627,1.888-.615-20.84-64h-68.247l21.039,64.613Z" transform="translate(-2112.388 -2004.672)" fill="#fb5"/>
        </g>
        <g id="Group_241" data-name="Group 241" transform="translate(16.32 19.527)">
          <rect id="Rectangle_78" data-name="Rectangle 78" width="78.419" height="1.986" fill="#fb5"/>
        </g>
        <g id="Group_242" data-name="Group 242" transform="translate(8.242 41.089)">
          <rect id="Rectangle_79" data-name="Rectangle 79" width="93.822" height="1.986" fill="#fb5"/>
        </g>
      </g>
      <g id="Group_291" data-name="Group 291" transform="translate(375.006 235.156)">
        <g id="Group_246" data-name="Group 246" transform="translate(72.499 4.999)">
          <g id="Group_245" data-name="Group 245">
            <g id="Group_244" data-name="Group 244">
              <path id="Path_2429" data-name="Path 2429" d="M2377.033,1504.026s.453-1.553-.24-2.164a5.187,5.187,0,0,1-1.093-1.953c-.16-.451-1.166-1.654-.6-1.861s1.754,1.9,2.092,2.3.719-1.891,1.117-2.253,4.145.484,3.7,2.021-1.931,2.885-1.956,3.171a9.792,9.792,0,0,1-.278,1.131Z" transform="translate(-2374.929 -1498.007)" fill="#e09e7f"/>
            </g>
          </g>
        </g>
        <g id="Group_249" data-name="Group 249" transform="translate(75.691)">
          <g id="Group_248" data-name="Group 248">
            <g id="Group_247" data-name="Group 247">
              <path id="Path_2430" data-name="Path 2430" d="M2387.652,1483.5s1.67-4.614,2.038-4.829.614-.109.475.329-1.484,4.5-1.484,4.5,2.894-5.129,3.157-5.371c.155-.142.64.034.588.275s-2.63,5.489-2.63,5.489,2.71-4.784,2.991-4.921a.379.379,0,0,1,.475.522c-.177.369-2.441,4.951-2.441,4.951s2.191-3.358,2.5-3.333c.187.015.614.147.021,1s-1.78,3-1.78,3Z" transform="translate(-2387.652 -1478.081)" fill="#e09e7f"/>
            </g>
          </g>
        </g>
        <g id="Group_252" data-name="Group 252" transform="translate(4.03 51.588)">
          <g id="Group_251" data-name="Group 251">
            <g id="Group_250" data-name="Group 250">
              <path id="Path_2431" data-name="Path 2431" d="M2108.192,1685.057s-1.48.653-2.177.046a5.18,5.18,0,0,0-2.08-.829c-.468-.1-1.792-.94-1.923-.35s2.116,1.49,2.549,1.773-1.78.96-2.087,1.4,1.022,4.045,2.488,3.4,2.608-2.292,2.888-2.354a9.734,9.734,0,0,0,1.084-.424Z" transform="translate(-2102.006 -1683.716)" fill="#e09e7f"/>
            </g>
          </g>
        </g>
        <g id="Group_255" data-name="Group 255" transform="translate(0 54.742)">
          <g id="Group_254" data-name="Group 254">
            <g id="Group_253" data-name="Group 253">
              <path id="Path_2432" data-name="Path 2432" d="M2090.748,1696.285s-4.356,2.26-4.521,2.653-.028.622.389.428,4.272-2.061,4.272-2.061-4.706,3.541-4.912,3.833c-.12.172.118.63.35.547s5.1-3.325,5.1-3.325-4.388,3.313-4.487,3.61a.379.379,0,0,0,.58.4c.342-.223,4.589-3.068,4.589-3.068s-3.042,2.612-2.978,2.912c.04.183.227.589.99-.109s2.739-2.158,2.739-2.158Z" transform="translate(-2085.944 -1696.285)" fill="#e09e7f"/>
            </g>
          </g>
        </g>
        <g id="Group_257" data-name="Group 257" transform="translate(8.654 30.404)">
          <g id="Group_256" data-name="Group 256">
            <path id="Path_2433" data-name="Path 2433" d="M2120.44,1621.877l2.332,2.875s15.008-6.2,17.3-8.354a24.43,24.43,0,0,0,3.714-2.7h0c.664-.527,1.312-1.026,1.908-1.462l.405-.36,0,0,4.144-3.7s7.526-4,4.459-8.315a2.952,2.952,0,0,0-3.235-.222,28.393,28.393,0,0,0-5.464,4.022c-.671.643-5.021,4.353-5.255,4.589-.868.88-3.824,3.514-5.35,4.663C2132.715,1614.94,2120.44,1621.877,2120.44,1621.877Z" transform="translate(-2120.44 -1599.275)" fill="#323657"/>
          </g>
        </g>
        <g id="Group_263" data-name="Group 263" transform="translate(40.598 10.773)">
          <g id="Group_262" data-name="Group 262">
            <g id="Group_261" data-name="Group 261">
              <g id="Group_260" data-name="Group 260">
                <g id="Group_259" data-name="Group 259">
                  <g id="Group_258" data-name="Group 258">
                    <path id="Path_2434" data-name="Path 2434" d="M2258.748,1532.738l0,0a17.952,17.952,0,0,1-2.04,3.368c-2.654,3.405-8.844,3.49-8.935-5.86a14.462,14.462,0,0,1,.559-4.371c1.267-4.15,4.244-4.84,4.244-4.84,2.2-.122,6.049.423,7.332,3.287C2260.816,1526.362,2260.157,1529.734,2258.748,1532.738Z" transform="translate(-2247.769 -1521.024)" fill="#eea987"/>
                  </g>
                </g>
              </g>
            </g>
          </g>
        </g>
        <g id="Group_269" data-name="Group 269" transform="translate(41.158 10.353)">
          <g id="Group_268" data-name="Group 268">
            <g id="Group_267" data-name="Group 267">
              <g id="Group_266" data-name="Group 266">
                <g id="Group_265" data-name="Group 265">
                  <g id="Group_264" data-name="Group 264">
                    <path id="Path_2435" data-name="Path 2435" d="M2260.42,1531.482l0,.005s-.317.085-1.46-2.224c-.229-.463-.406-.132-.5-.337l-1.821-.71s1.8-3.012-.555-3.847c-2.4-.852-6.075.255-6.075.255.786-7.427,4.244-4.84,4.244-4.84,2.2-.121,6.9.011,8.186,2.875C2263.343,1524.694,2261.829,1528.478,2260.42,1531.482Z" transform="translate(-2250.002 -1519.348)" fill="#665249"/>
                  </g>
                </g>
              </g>
            </g>
          </g>
        </g>
        <g id="Group_275" data-name="Group 275" transform="translate(49.078 17.878)">
          <g id="Group_274" data-name="Group 274">
            <g id="Group_273" data-name="Group 273">
              <g id="Group_272" data-name="Group 272">
                <g id="Group_271" data-name="Group 271">
                  <g id="Group_270" data-name="Group 270">
                    <path id="Path_2436" data-name="Path 2436" d="M2281.731,1550c.135-.625,1.37-1.163,1.895.18s-1.231,2.768-1.693,2.473S2281.507,1551.035,2281.731,1550Z" transform="translate(-2281.571 -1549.346)" fill="#eea987"/>
                  </g>
                </g>
              </g>
            </g>
          </g>
        </g>
        <g id="Group_277" data-name="Group 277" transform="translate(17.578 127.201)">
          <g id="Group_276" data-name="Group 276">
            <path id="Path_2437" data-name="Path 2437" d="M2164,1985.2a14.275,14.275,0,0,1-4.7,2.551c-2.147.465-3.274,1.563-3.29,2.837s6.178,2.114,8.635.829c3.667-1.917,4.04-1.339,4.447-2.3s.08-3.495.106-3.8C2169.231,1984.945,2164,1985.2,2164,1985.2Z" transform="translate(-2156.011 -1985.116)" fill="#2e2626"/>
          </g>
        </g>
        <g id="Group_279" data-name="Group 279" transform="translate(25.5 125.967)">
          <g id="Group_278" data-name="Group 278">
            <path id="Path_2438" data-name="Path 2438" d="M2187.833,1980.823a8.737,8.737,0,0,0-.238,1.062c.042.022,4.838.56,4.693-.275-.118-.677-.286-1.413-.286-1.413Z" transform="translate(-2187.59 -1980.197)" fill="#2e2626"/>
          </g>
        </g>
        <g id="Group_281" data-name="Group 281" transform="translate(49.656 128.903)">
          <g id="Group_280" data-name="Group 280">
            <path id="Path_2439" data-name="Path 2439" d="M2290.3,1991.952s-1.588,2.405-3.6,2.888c-1.988.477-2.721,1.234-2.819,2.434s4.686,2.771,8.047.663c2.208-1.385,3.032-1.306,3.477-2.186s.108-3.358.152-3.644C2295.608,1991.755,2290.3,1991.952,2290.3,1991.952Z" transform="translate(-2283.875 -1991.897)" fill="#2e2626"/>
          </g>
        </g>
        <g id="Group_283" data-name="Group 283" transform="translate(56.545 127.703)">
          <g id="Group_282" data-name="Group 282">
            <path id="Path_2440" data-name="Path 2440" d="M2311.405,1987.493a9.177,9.177,0,0,0-.062,1.036c.038.023,4.467.807,4.44.008a6.177,6.177,0,0,0-.281-1.423Z" transform="translate(-2311.335 -1987.114)" fill="#2f6b8c"/>
          </g>
        </g>
        <g id="Group_285" data-name="Group 285" transform="translate(24.731 62.527)">
          <g id="Group_284" data-name="Group 284">
            <path id="Path_2441" data-name="Path 2441" d="M2198.122,1731.789s-6.019,14.929-7.749,20a76.175,76.175,0,0,0-3.817,15.745c-.36,4.022-1.772,23-2.024,24.179s6.755.781,6.755.781,3.942-23.934,5.016-28.218c1-3.988,10.464-22.082,11.375-20.993s3.943,19.61,4.618,22.756,2.486,27.908,2.486,27.908,6.15.986,7.388,0c0,0-.97-22.081-1.4-27.978-.164-2.248,1.422-26.907-2.379-36.851C2216.384,1723.861,2198.122,1731.789,2198.122,1731.789Z" transform="translate(-2184.526 -1727.317)" fill="#f2c344"/>
          </g>
        </g>
        <g id="Group_286" data-name="Group 286" transform="translate(36.657 29.511)">
          <path id="Path_2442" data-name="Path 2442" d="M2240.226,1595.714s-5.207,1.069-5.883,1.668c-.733.637-2.2,7.079-2.275,8.816a63.058,63.058,0,0,0,1.1,11.6c.733,2.7-.649,13.95-1.112,17.695,0,0,9.028,4.1,24.292.9,0,0-2.682-11.642-2.231-15.345.578-4.744,2.12-15.132,2.12-15.132s1.4-9.9.109-9.654c-4.231.8-9.7-.551-9.7-.551Z" transform="translate(-2232.06 -1595.714)" fill="#323657"/>
        </g>
        <g id="Group_287" data-name="Group 287" transform="translate(43.657 22.287)">
          <path id="Path_2443" data-name="Path 2443" d="M2259.965,1575.35s1.6,1.2,6.942-1.154a14.754,14.754,0,0,1,.516-6.333c1.047-3.422-6.891,3.568-6.891,3.568.087.061.1.4.053.88,0,.031-.007.062-.011.094a9.384,9.384,0,0,1-.214,1.166c-.012.051-.026.1-.039.155C2260.021,1574.869,2259.965,1574.351,2259.965,1575.35Z" transform="translate(-2259.965 -1566.92)" fill="#eea886"/>
        </g>
        <g id="Group_288" data-name="Group 288" transform="translate(44.053 25.183)">
          <path id="Path_2444" data-name="Path 2444" d="M2261.542,1582.216h0c3.828.492,5.918-3.634,5.978-3.755-2.621,3.82-5.764,2.58-5.764,2.58h0A9.415,9.415,0,0,1,2261.542,1582.216Z" transform="translate(-2261.542 -1578.461)" fill="#a77860"/>
        </g>
        <g id="Group_289" data-name="Group 289" transform="translate(43.254 29.149)">
          <path id="Path_2445" data-name="Path 2445" d="M2258.784,1594.881s-1.224,1.821.482,2.131,5.189-.069,7.089-2.379C2266.355,1594.634,2261.354,1593.673,2258.784,1594.881Z" transform="translate(-2258.359 -1594.271)" fill="#eea886"/>
        </g>
        <g id="Group_290" data-name="Group 290" transform="translate(52.367 9.48)">
          <path id="Path_2446" data-name="Path 2446" d="M2294.8,1545.708c-.542-1.119.827-4.037,3.151-6.076a17.057,17.057,0,0,1,4.755-2.973c.957-.359,7.491-2.464,7.806-3.281.4-1.036,2.134-6.119,2.275-6.564.281-.885,3.542-10.943,3.542-10.943l4.064.931s-3.03,14.542-3.408,16.405a6.7,6.7,0,0,1-3.194,5.142c-2.78,1.775-8.874,6.276-9.486,6.514S2297.217,1550.692,2294.8,1545.708Z" transform="translate(-2294.685 -1515.871)" fill="#323657"/>
        </g>
      </g>
      <g id="Group_296" data-name="Group 296" transform="translate(238.208 78.537)">
        <g id="Group_292" data-name="Group 292">
          <path id="Path_2447" data-name="Path 2447" d="M1549.447,895.163a7.586,7.586,0,0,1-3.93-2.627,5.684,5.684,0,0,1-1.149-4.68,34.5,34.5,0,0,0-.2-9.1,15.251,15.251,0,1,1,17.777,4.278,32.821,32.821,0,0,0-3.715,7.824c-.726,3.278-4.406,5.271-8.218,4.445Q1549.723,895.243,1549.447,895.163Zm10.363-39.576a14,14,0,0,0-14.578,22.5l.115.136.026.177a35.979,35.979,0,0,1,.227,9.647l-.008.047a4.456,4.456,0,0,0,.915,3.681,6.422,6.422,0,0,0,3.765,2.308c3.148.682,6.172-.894,6.739-3.514l.005-.023.007-.023a34.28,34.28,0,0,1,3.966-8.321l.105-.167.182-.076a14,14,0,0,0-1.467-26.375Z" transform="translate(-1540.658 -853.783)" fill="#ffd255"/>
        </g>
        <g id="Group_293" data-name="Group 293" transform="translate(7.09 19.036)">
          <path id="Path_2448" data-name="Path 2448" d="M1568.919,946.337l1.455-16.674,2.8,3.516,2.592-1.892,1.359,2.57,3.732-2.02-5.343,15.886-1.182-.4,4.332-12.883-2.053,1.112-1.273-2.409-2.393,1.747-1.6-2.009-1.184,13.563Z" transform="translate(-1568.919 -929.662)" fill="#ffd255"/>
        </g>
        <g id="Group_294" data-name="Group 294" transform="translate(3.454 38.888)">
          <rect id="Rectangle_80" data-name="Rectangle 80" width="10.816" height="4.359" transform="matrix(0.977, 0.212, -0.212, 0.977, 0.923, 0)" fill="#ffd255"/>
        </g>
        <g id="Group_295" data-name="Group 295" transform="translate(2.134 34.168)">
          <rect id="Rectangle_81" data-name="Rectangle 81" width="14.294" height="7.016" transform="translate(1.486 0) rotate(12.226)" fill="#ffd255"/>
        </g>
      </g>
      <g id="Group_316" data-name="Group 316" transform="translate(52.524 164.144)">
        <g id="Group_299" data-name="Group 299">
          <g id="Group_298" data-name="Group 298">
            <g id="Group_297" data-name="Group 297">
              <path id="Path_2449" data-name="Path 2449" d="M801.258,1258.38l-.754-.259,6.321-18.4,14.123-3.911,4.858-20.172,10.876-4.951,2.268-15.668.789.114-2.33,16.1-10.919,4.97-4.877,20.25-14.17,3.924Z" transform="translate(-800.504 -1195.02)" fill="#ffd078"/>
            </g>
          </g>
        </g>
        <g id="Group_301" data-name="Group 301" transform="translate(18.65 38.986)">
          <g id="Group_300" data-name="Group 300">
            <path id="Path_2450" data-name="Path 2450" d="M878.6,1351.183a2.126,2.126,0,1,1-2.995-.266A2.126,2.126,0,0,1,878.6,1351.183Z" transform="translate(-874.844 -1350.421)" fill="#fff"/>
          </g>
        </g>
        <g id="Group_303" data-name="Group 303" transform="translate(18.252 38.589)">
          <g id="Group_302" data-name="Group 302">
            <path id="Path_2451" data-name="Path 2451" d="M877.4,1353.3a2.525,2.525,0,1,1,.316-3.556A2.527,2.527,0,0,1,877.4,1353.3Zm-2.728-3.261a1.727,1.727,0,1,0,2.433.216A1.729,1.729,0,0,0,874.675,1350.035Z" transform="translate(-873.26 -1348.837)" fill="#ffd078"/>
          </g>
        </g>
        <g id="Group_305" data-name="Group 305" transform="translate(23.577 18.896)">
          <g id="Group_304" data-name="Group 304">
            <path id="Path_2452" data-name="Path 2452" d="M898.239,1271.1a2.126,2.126,0,1,1-2.995-.266A2.126,2.126,0,0,1,898.239,1271.1Z" transform="translate(-894.483 -1270.34)" fill="#fff"/>
          </g>
        </g>
        <g id="Group_307" data-name="Group 307" transform="translate(23.179 18.498)">
          <g id="Group_306" data-name="Group 306">
            <path id="Path_2453" data-name="Path 2453" d="M897.042,1273.215a2.525,2.525,0,1,1,.316-3.556A2.528,2.528,0,0,1,897.042,1273.215Zm-2.729-3.261a1.727,1.727,0,1,0,2.433.216A1.729,1.729,0,0,0,894.313,1269.955Z" transform="translate(-892.898 -1268.756)" fill="#ffd078"/>
          </g>
        </g>
        <g id="Group_309" data-name="Group 309" transform="translate(34.283 13.809)">
          <g id="Group_308" data-name="Group 308">
            <path id="Path_2454" data-name="Path 2454" d="M940.915,1250.827a2.126,2.126,0,1,1-2.995-.266A2.126,2.126,0,0,1,940.915,1250.827Z" transform="translate(-937.158 -1250.065)" fill="#fff"/>
          </g>
        </g>
        <g id="Group_311" data-name="Group 311" transform="translate(33.885 13.412)">
          <g id="Group_310" data-name="Group 310">
            <path id="Path_2455" data-name="Path 2455" d="M939.718,1252.94a2.525,2.525,0,1,1,.316-3.556A2.527,2.527,0,0,1,939.718,1252.94Zm-2.729-3.261a1.727,1.727,0,1,0,2.433.216A1.729,1.729,0,0,0,936.989,1249.679Z" transform="translate(-935.574 -1248.481)" fill="#ffd078"/>
          </g>
        </g>
        <g id="Group_313" data-name="Group 313" transform="translate(4.585 43.083)">
          <g id="Group_312" data-name="Group 312">
            <path id="Path_2456" data-name="Path 2456" d="M822.536,1367.514a2.126,2.126,0,1,1-2.995-.266A2.126,2.126,0,0,1,822.536,1367.514Z" transform="translate(-818.78 -1366.752)" fill="#fff"/>
          </g>
        </g>
        <g id="Group_315" data-name="Group 315" transform="translate(4.187 42.686)">
          <g id="Group_314" data-name="Group 314">
            <path id="Path_2457" data-name="Path 2457" d="M821.339,1369.627a2.525,2.525,0,1,1,.316-3.556A2.527,2.527,0,0,1,821.339,1369.627Zm-2.728-3.261a1.727,1.727,0,1,0,2.433.216A1.729,1.729,0,0,0,818.611,1366.366Z" transform="translate(-817.196 -1365.168)" fill="#ffd078"/>
          </g>
        </g>
      </g>
      <rect id="Rectangle_82" data-name="Rectangle 82" width="34.209" height="2.398" transform="translate(499.147 176.625) rotate(180)" fill="#ffd887"/>
      <rect id="Rectangle_83" data-name="Rectangle 83" width="34.209" height="10.082" transform="translate(499.147 188.829) rotate(180)" fill="#ffd887"/>
      <rect id="Rectangle_84" data-name="Rectangle 84" width="20.181" height="1.507" transform="translate(469.05 193.725) rotate(180)" fill="#ffd887"/>
      <rect id="Rectangle_85" data-name="Rectangle 85" width="20.181" height="4.08" transform="translate(469.05 198.464) rotate(180)" fill="#ffd887"/>
      <rect id="Rectangle_86" data-name="Rectangle 86" width="1.507" height="28.247" transform="translate(506.272 189.55) rotate(180)" fill="#ffd989"/>
      <g id="Group_326" data-name="Group 326" transform="translate(480.197 245.117)">
        <g id="Group_319" data-name="Group 319">
          <g id="Group_318" data-name="Group 318">
            <g id="Group_317" data-name="Group 317">
              <path id="Path_2458" data-name="Path 2458" d="M2529.868,1532.116l-24.626-13.772,8.464-.558Z" transform="translate(-2505.242 -1517.785)" fill="#d6d6d6"/>
            </g>
          </g>
        </g>
        <g id="Group_322" data-name="Group 322" transform="translate(10.689 1.973)">
          <g id="Group_321" data-name="Group 321">
            <g id="Group_320" data-name="Group 320">
              <path id="Path_2459" data-name="Path 2459" d="M2561.786,1538.006l-7.578-12.189-6.359-.169Z" transform="translate(-2547.85 -1525.648)" fill="#e8e8e8"/>
            </g>
          </g>
        </g>
        <g id="Group_325" data-name="Group 325" transform="translate(5.17 3.725)">
          <g id="Group_324" data-name="Group 324">
            <g id="Group_323" data-name="Group 323">
              <path id="Path_2460" data-name="Path 2460" d="M2526.343,1532.634l-.493,3.1,19.456,7.5Z" transform="translate(-2525.85 -1532.634)" fill="#c2c2c2"/>
            </g>
          </g>
        </g>
      </g>
      <g id="Group_327" data-name="Group 327" transform="translate(79.431 205.992)">
        <path id="Path_2461" data-name="Path 2461" d="M908.349,1428.68a73.563,73.563,0,0,1-.587-9.894c0-.739.009-1.508.029-2.305l2.007.051c-.02.779-.029,1.532-.029,2.254a73.087,73.087,0,0,0,.566,9.6Zm2.589-24-1.978-.341a66.7,66.7,0,0,1,3.127-11.811l1.882.7A64.711,64.711,0,0,0,910.937,1404.684Zm392.111-13.123a65.9,65.9,0,0,0-10.435-5.6l.8-1.843a67.943,67.943,0,0,1,10.754,5.776Zm-164.489-.92c-3.947-.039-8.009-.166-12.075-.378l.1-2c4.037.211,8.071.337,11.99.375Zm12.084-.156-.073-2.006c4.01-.145,8.037-.388,11.967-.723l.171,2C1158.745,1390.092,1154.685,1390.338,1150.643,1390.484Zm-36.206-1.085c-3.9-.353-7.933-.788-12-1.3l.248-1.991c4.047.5,8.062.937,11.935,1.288Zm60.287-.975-.272-1.989c3.951-.54,7.93-1.189,11.829-1.93l.375,1.972C1182.723,1387.224,1178.708,1387.88,1174.724,1388.424Zm-84.24-1.987c-3.8-.583-7.8-1.248-11.9-1.976l.351-1.976c4.082.724,8.069,1.387,11.853,1.968Zm107.978-2.515-.451-1.956c3.989-.92,7.969-1.749,11.831-2.463l.365,1.973C1206.374,1382.185,1202.422,1383.008,1198.462,1383.922ZM919.3,1382.737l-1.661-1.126a42.647,42.647,0,0,1,8.262-9.083l1.271,1.553A40.636,40.636,0,0,0,919.3,1382.737Zm147.43-.493c-3.655-.716-7.518-1.5-11.811-2.392l.409-1.965c4.285.892,8.141,1.674,11.788,2.388Zm214.654-.216a108.109,108.109,0,0,0-11.648-2.532l.321-1.982a110.321,110.321,0,0,1,11.865,2.58Zm-59.343-2.444-.266-1.989c4.074-.545,8.122-.972,12.03-1.268l.152,2C1230.091,1378.621,1226.082,1379.043,1222.046,1379.583Zm35.83-1.435c-3.377-.231-6.892-.364-10.44-.348q-.75,0-1.512.007l-.019-2.007c.525,0,1.048-.007,1.562-.007,3.586,0,7.134.119,10.546.352Zm-214.736-.794-11.77-2.528.42-1.963,11.771,2.528Zm-23.541-5.011c-4.3-.889-8.158-1.66-11.789-2.357l.379-1.971c3.641.7,7.506,1.472,11.817,2.363Zm-82.393-4.281-.784-1.848a53.342,53.342,0,0,1,11.746-3.386l.341,1.978A51.3,51.3,0,0,0,937.205,1368.062Zm58.782-.223c-4.107-.7-8.1-1.318-11.863-1.845l.278-1.987c3.784.529,7.8,1.153,11.921,1.854Zm-23.772-3.29q-1.723-.175-3.445-.328c-2.849-.254-5.64-.382-8.295-.382l-.167-2.007h.083q4.2,0,8.556.39,1.734.154,3.47.331Z" transform="translate(-907.761 -1361.831)" fill="#e0e0e0"/>
      </g>
      <rect id="Rectangle_87" data-name="Rectangle 87" width="70.851" height="82.289" rx="20.18" transform="translate(167.304 286.744)" fill="#f5f5f5"/>
      <g id="Group_329" data-name="Group 329" transform="translate(175.156 308.862)">
        <g id="Group_328" data-name="Group 328">
          <path id="Path_2462" data-name="Path 2462" d="M1324.486,1783.892a18.106,18.106,0,1,0-34.1,12.195c.137.383.286.76.446,1.129a18.107,18.107,0,0,0,33.651-13.323Zm-12.477,18.879a13.56,13.56,0,0,1-17.019-7.365q-.18-.414-.335-.846a13.575,13.575,0,1,1,17.354,8.211Z" transform="translate(-1289.327 -1771.878)" fill="#4aafff"/>
        </g>
      </g>
      <g id="Group_331" data-name="Group 331" transform="translate(175.983 308.87)">
        <g id="Group_330" data-name="Group 330">
          <path id="Path_2463" data-name="Path 2463" d="M1296.948,1785.967l-4.326-1.351a18.132,18.132,0,0,1,16.743-12.706l.135,4.53a13.6,13.6,0,0,0-12.553,9.527Z" transform="translate(-1292.622 -1771.91)" fill="#1a598c"/>
        </g>
      </g>
      <g id="Group_333" data-name="Group 333" transform="translate(175.156 321.576)">
        <g id="Group_332" data-name="Group 332">
          <path id="Path_2464" data-name="Path 2464" d="M1294.99,1833.372l-4.156,1.809c-.16-.368-.309-.746-.446-1.129a18.024,18.024,0,0,1-.236-11.494l4.326,1.351a13.515,13.515,0,0,0,.177,8.617Q1294.81,1832.957,1294.99,1833.372Z" transform="translate(-1289.327 -1822.558)" fill="#2273b5"/>
        </g>
      </g>
      <g id="Group_335" data-name="Group 335" transform="translate(176.664 332.39)">
        <g id="Group_334" data-name="Group 334">
          <path id="Path_2465" data-name="Path 2465" d="M1298.146,1871.98a18.017,18.017,0,0,1-2.807-4.507l4.155-1.809a13.5,13.5,0,0,0,2.1,3.38Z" transform="translate(-1295.339 -1865.664)" fill="#3788cc"/>
        </g>
      </g>
      <g id="Group_337" data-name="Group 337" transform="translate(215.32 331.215)">
        <g id="Group_336" data-name="Group 336">
          <path id="Path_2466" data-name="Path 2466" d="M1460.117,1861.7a7.49,7.49,0,1,0-6.406,13.54c.152.072.306.139.46.2a7.49,7.49,0,0,0,5.946-13.74Zm1.873,9.172a5.608,5.608,0,0,1-7.132,2.824c-.116-.046-.231-.1-.345-.149a5.615,5.615,0,1,1,7.477-2.674Z" transform="translate(-1449.422 -1860.978)" fill="#4aafff"/>
        </g>
      </g>
      <g id="Group_339" data-name="Group 339" transform="translate(215.32 333.57)">
        <g id="Group_338" data-name="Group 338">
          <path id="Path_2467" data-name="Path 2467" d="M1451.94,1878.108l-1.66.87a7.5,7.5,0,0,1,1.181-8.614l1.364,1.286a5.623,5.623,0,0,0-.885,6.458Z" transform="translate(-1449.422 -1870.364)" fill="#1a598c"/>
        </g>
      </g>
      <g id="Group_341" data-name="Group 341" transform="translate(216.177 341.313)">
        <g id="Group_340" data-name="Group 340">
          <path id="Path_2468" data-name="Path 2468" d="M1457.417,1903.85l-.686,1.744q-.232-.092-.46-.2a7.454,7.454,0,0,1-3.431-3.293l1.661-.87a5.59,5.59,0,0,0,2.572,2.469Q1457.243,1903.781,1457.417,1903.85Z" transform="translate(-1452.839 -1901.231)" fill="#2273b5"/>
        </g>
      </g>
      <g id="Group_343" data-name="Group 343" transform="translate(215.32 308.407)">
        <g id="Group_342" data-name="Group 342">
          <path id="Path_2469" data-name="Path 2469" d="M1463.685,1780.76a7.49,7.49,0,1,0-13.54-6.406c-.072.152-.139.306-.2.461a7.49,7.49,0,0,0,13.74,5.946Zm-9.172,1.873a5.609,5.609,0,0,1-2.824-7.132c.046-.116.1-.231.149-.345a5.615,5.615,0,1,1,2.674,7.478Z" transform="translate(-1449.424 -1770.065)" fill="#4aafff"/>
        </g>
      </g>
      <g id="Group_345" data-name="Group 345" transform="translate(219.334 308.407)">
        <g id="Group_344" data-name="Group 344">
          <path id="Path_2470" data-name="Path 2470" d="M1466.294,1772.583l-.87-1.66a7.5,7.5,0,0,1,8.614,1.181l-1.285,1.365a5.624,5.624,0,0,0-6.458-.885Z" transform="translate(-1465.424 -1770.065)" fill="#4aafff"/>
        </g>
      </g>
      <g id="Group_347" data-name="Group 347" transform="translate(215.842 309.264)">
        <g id="Group_346" data-name="Group 346">
          <path id="Path_2471" data-name="Path 2471" d="M1453.247,1778.06l-1.745-.686c.061-.155.128-.309.2-.461a7.456,7.456,0,0,1,3.293-3.431l.87,1.66a5.591,5.591,0,0,0-2.469,2.572C1453.342,1777.829,1453.292,1777.944,1453.247,1778.06Z" transform="translate(-1451.502 -1773.482)" fill="#2273b5"/>
        </g>
      </g>
      <g id="Group_349" data-name="Group 349" transform="translate(215.344 313.156)">
        <g id="Group_348" data-name="Group 348">
          <path id="Path_2472" data-name="Path 2472" d="M1449.52,1791.133a7.456,7.456,0,0,1,.5-2.139l1.745.686a5.578,5.578,0,0,0-.373,1.6Z" transform="translate(-1449.52 -1788.994)" fill="#3788cc"/>
        </g>
      </g>
      <path id="Path_2473" data-name="Path 2473" d="M1428.349,1923.673h-13.986v-.278h13.708v-5.284h.278Z" transform="translate(-1207.839 -1572.563)" fill="#e2f3fe"/>
      <path id="Path_2474" data-name="Path 2474" d="M1310.812,1913.625h-18.19v-.278h17.912V1904.7h.278Z" transform="translate(-1116.639 -1562.516)" fill="#e2f3fe"/>
      <rect id="Rectangle_88" data-name="Rectangle 88" width="12.516" height="1.668" transform="translate(175.983 347.939)" fill="#4aafff"/>
      <rect id="Rectangle_89" data-name="Rectangle 89" width="7.362" height="1.668" transform="translate(206.525 347.939)" fill="#4aafff"/>
      <rect id="Rectangle_90" data-name="Rectangle 90" width="5.99" height="1.28" transform="translate(173.147 293.808)" fill="#4aafff"/>
      <rect id="Rectangle_91" data-name="Rectangle 91" width="9.294" height="1.28" transform="translate(198.12 298.628)" fill="#4aafff"/>
      <rect id="Rectangle_92" data-name="Rectangle 92" width="5.674" height="1.28" transform="translate(186.102 298.628)" fill="#4aafff"/>
      <rect id="Rectangle_93" data-name="Rectangle 93" width="11.241" height="1.28" transform="translate(173.147 298.628)" fill="#4aafff"/>
      <rect id="Rectangle_94" data-name="Rectangle 94" width="8.876" height="1.28" transform="translate(180.961 293.808)" fill="#4aafff"/>
      <rect id="Rectangle_95" data-name="Rectangle 95" width="2.438" height="1.28" transform="translate(193.552 298.628)" fill="#4aafff"/>
      <rect id="Rectangle_96" data-name="Rectangle 96" width="6.631" height="1.28" transform="translate(200.783 293.879)" fill="#4aafff"/>
      <rect id="Rectangle_97" data-name="Rectangle 97" width="5.654" height="1.28" transform="translate(209.778 298.628)" fill="#4aafff"/>
      <rect id="Rectangle_98" data-name="Rectangle 98" width="7.029" height="1.28" transform="translate(192.02 293.879)" fill="#4aafff"/>
      <path id="Rectangle_99" data-name="Rectangle 99" d="M8.951,0h0A8.952,8.952,0,0,1,17.9,8.952v0A8.952,8.952,0,0,1,8.952,17.9h0A8.952,8.952,0,0,1,0,8.952v0A8.951,8.951,0,0,1,8.951,0Z" transform="translate(193.778 358.859)" fill="#fff"/>
      <rect id="Rectangle_100" data-name="Rectangle 100" width="1.694" height="7.123" transform="translate(201.883 364.249)" fill="#c5ccd1"/>
      <rect id="Rectangle_101" data-name="Rectangle 101" width="1.694" height="7.123" transform="translate(206.291 366.963) rotate(90)" fill="#c5ccd1"/>
      <g id="Group_350" data-name="Group 350" transform="translate(237.665 340.238)">
        <path id="Path_2475" data-name="Path 2475" d="M1538.517,1896.946a.017.017,0,0,1,.01,0C1538.486,1896.963,1538.48,1896.964,1538.517,1896.946Z" transform="translate(-1538.493 -1896.945)" fill="#323657"/>
      </g>
      <g id="Group_415" data-name="Group 415" transform="translate(0 307.629)">
        <g id="Group_352" data-name="Group 352" transform="translate(74.067 33.159)">
          <g id="Group_351" data-name="Group 351">
            <path id="Path_2476" data-name="Path 2476" d="M916.945,1899.146s-7.425,21.663-7.9,24.109c-.519,2.675-6.326,21.93-6.326,21.93s-12.188-11.935-15.995-14.963S911.694,1898.51,916.945,1899.146Z" transform="translate(-886.379 -1899.136)" fill="#edb14f"/>
          </g>
        </g>
        <g id="Group_354" data-name="Group 354" transform="translate(108.495 114.762)">
          <g id="Group_353" data-name="Group 353">
            <path id="Path_2477" data-name="Path 2477" d="M1023.609,2226.79s2.462-1,3.473-1.427,1.163-1.367,1.587-.741,2.536,2.55,3.675,2.794,8.533,1.366,8.678,3.042-3.3,2.265-8.168,2.519-4.983,1.51-8.227.681C1023.617,2233.4,1023.609,2226.79,1023.609,2226.79Z" transform="translate(-1023.609 -2224.413)" fill="#eddad3"/>
          </g>
        </g>
        <g id="Group_356" data-name="Group 356" transform="translate(30.137 89.844)">
          <g id="Group_355" data-name="Group 355">
            <path id="Path_2478" data-name="Path 2478" d="M717.914,2125.089s1.218,2.269,1.737,3.2,1.444.982.882,1.458a9.5,9.5,0,0,0-2.319,3.846c-.118,1.126-.432,8.4-2.037,8.712s-2.535-2.957-3.288-7.637-1.98-4.663-1.517-7.887C711.516,2125.778,717.914,2125.089,717.914,2125.089Z" transform="translate(-711.27 -2125.089)" fill="#eddad3"/>
          </g>
        </g>
        <g id="Group_358" data-name="Group 358" transform="translate(118.399 34.029)">
          <g id="Group_357" data-name="Group 357">
            <path id="Path_2479" data-name="Path 2479" d="M1063.092,1906.714s1.182-2.157,1.373-2.481a5.927,5.927,0,0,1,2.269-1.2,6.884,6.884,0,0,1,3.02-.372,1.055,1.055,0,0,1,.573.673,2.031,2.031,0,0,1,.049,1.029,1.237,1.237,0,0,1,.3,1.155,1.077,1.077,0,0,1,.105,1.193.9.9,0,0,1,.135.984,8.2,8.2,0,0,0-1.25.726,17.191,17.191,0,0,1-4.41,1.561S1062.993,1910.6,1063.092,1906.714Z" transform="translate(-1063.088 -1902.604)" fill="#eea886"/>
          </g>
        </g>
        <g id="Group_360" data-name="Group 360" transform="translate(121.446 37.285)">
          <g id="Group_359" data-name="Group 359">
            <path id="Path_2480" data-name="Path 2480" d="M1075.58,1915.583a6.046,6.046,0,0,1-.332,1.557c-.209.328,2.356,1.414,2.356,1.414S1077.07,1915.772,1075.58,1915.583Z" transform="translate(-1075.236 -1915.583)" fill="#cf8c6c"/>
          </g>
        </g>
        <g id="Group_362" data-name="Group 362" transform="translate(36.094 52.984)">
          <g id="Group_361" data-name="Group 361">
            <path id="Path_2481" data-name="Path 2481" d="M777.747,1978.226c-2.014,1.518-4.718,7.461-6.605,12.1-.041.083-4.535,9.178-6.243,11.729-2.566,3.832-5.762,3.49-11.266,5.582-4.472,1.7-18.618,6.809-18.618,6.809l3.312,6.59s21.411-4.909,28.265-7.75c3.474-1.44,14.953-11.122,14.954-11.123h0c1.43-1.173,2.723-2.312,3.825-3.326h0c.877-.806,1.633-1.533,2.243-2.133,1.093-1.078,1.715-1.75,1.715-1.75S779.438,1976.951,777.747,1978.226Z" transform="translate(-735.014 -1978.161)" fill="#292c47"/>
          </g>
        </g>
        <g id="Group_364" data-name="Group 364" transform="translate(89.025 24.565)">
          <g id="Group_363" data-name="Group 363">
            <path id="Path_2482" data-name="Path 2482" d="M953.21,1864.88l6.067,15.333s.3,2.125,4.731.689c4.521-1.465,11.769-3.4,11.769-3.4s2.563,5.382,2.028,5.695c-1.546.9-14.018,5.55-19.217,6.967-4.125,1.125-12.587-21.006-12.587-21.006Z" transform="translate(-946.001 -1864.88)" fill="#ffbf55"/>
          </g>
        </g>
        <g id="Group_366" data-name="Group 366" transform="translate(75.398 56.441)">
          <g id="Group_365" data-name="Group 365">
            <path id="Path_2483" data-name="Path 2483" d="M923.255,2020.411c.091-2.561-2.791-9.79-4.963-14.174h0c-3.406-7.005-6.869-14.3-6.869-14.3s-19.773-.01-19.738,2.107c.065,4.014,9.743,13.046,11.275,14.819l.649.707a34.927,34.927,0,0,1,5.152,6.219,47.378,47.378,0,0,1,4.683,11.822c1.278,4.61,10.072,26.312,10.072,26.312l8.192-2.823S923.114,2024.387,923.255,2020.411Z" transform="translate(-891.685 -1991.941)" fill="#292c47"/>
          </g>
        </g>
        <g id="Group_368" data-name="Group 368" transform="translate(74.413 16.248)">
          <g id="Group_367" data-name="Group 367">
            <path id="Path_2484" data-name="Path 2484" d="M887.757,1872.76s13.5-14.394,12.334-23.7a18.167,18.167,0,0,1,.07-5.035,16.865,16.865,0,0,1,8.225-12.188s-.039-1.189,5.643,4.269a28.245,28.245,0,0,1,3.91,11.929c.527,7.412-1.6,8.9-4.211,14.536-1.912,4.119-4.663,7.707-5.247,9.35C908.481,1871.921,906.963,1874.346,887.757,1872.76Z" transform="translate(-887.757 -1831.727)" fill="#443c7d"/>
          </g>
        </g>
        <g id="Group_370" data-name="Group 370" transform="translate(95.182 6.259)">
          <g id="Group_369" data-name="Group 369">
            <path id="Path_2485" data-name="Path 2485" d="M976.4,1801.538s-.069.3-.166.771c-.072.345-.16.78-.249,1.252a17.513,17.513,0,0,0-.415,3.551c.124,1.362-5.029-4.87-5.029-4.87a65.889,65.889,0,0,0,1.225-9.245C972.046,1788.065,976.4,1801.538,976.4,1801.538Z" transform="translate(-970.543 -1791.91)" fill="#eea886"/>
          </g>
        </g>
        <g id="Group_372" data-name="Group 372" transform="translate(97.163 13.699)">
          <g id="Group_371" data-name="Group 371">
            <path id="Path_2486" data-name="Path 2486" d="M982.159,1824.492c-.072.345-.168.816-.256,1.287a24.446,24.446,0,0,1-3.463-4.209A21.557,21.557,0,0,0,982.159,1824.492Z" transform="translate(-978.44 -1821.57)" fill="#a77860"/>
          </g>
        </g>
        <g id="Group_374" data-name="Group 374" transform="translate(69.802 15.804)">
          <g id="Group_373" data-name="Group 373">
            <path id="Path_2487" data-name="Path 2487" d="M898.75,1852.707a3.586,3.586,0,0,1-.155.379c-.187.432-.676.983-1.149,1.8-4.016,6.9-8.308,16.344-10.016,22.948-1.947,7.526-2.976,13.477-2.976,13.477l-15.076-13.763s5.235-11.217,10.724-17.9c6.078-7.4,4.352-24.243,4.352-24.243l8.674-4.023,1.292-1.414,4.742,3.554,2.594,1.682S900.493,1847.077,898.75,1852.707Z" transform="translate(-869.378 -1829.959)" fill="#ffbf55"/>
          </g>
        </g>
        <g id="Group_377" data-name="Group 377" transform="translate(0 22.174)">
          <g id="Group_376" data-name="Group 376" transform="translate(0 0)">
            <g id="Group_375" data-name="Group 375">
              <rect id="Rectangle_102" data-name="Rectangle 102" width="2.695" height="158.458" transform="translate(158.163 0) rotate(86.5)" fill="#dedede"/>
            </g>
          </g>
        </g>
        <g id="Group_380" data-name="Group 380" transform="translate(1.579 47.99)">
          <g id="Group_379" data-name="Group 379" transform="translate(0 0)">
            <g id="Group_378" data-name="Group 378" transform="translate(0 0)">
              <rect id="Rectangle_103" data-name="Rectangle 103" width="2.695" height="158.458" transform="translate(158.163 0) rotate(86.5)" fill="#dedede"/>
            </g>
          </g>
        </g>
        <g id="Group_395" data-name="Group 395" transform="translate(14.776 23.345)">
          <g id="Group_382" data-name="Group 382" transform="translate(127.904 0)">
            <g id="Group_381" data-name="Group 381" transform="translate(0)">
              <rect id="Rectangle_104" data-name="Rectangle 104" width="2.917" height="27.243" transform="translate(0 0.178) rotate(-3.496)" fill="#dedede"/>
            </g>
          </g>
          <g id="Group_384" data-name="Group 384" transform="translate(106.585 1.303)">
            <g id="Group_383" data-name="Group 383" transform="translate(0 0)">
              <rect id="Rectangle_105" data-name="Rectangle 105" width="2.917" height="27.243" transform="translate(0 0.178) rotate(-3.501)" fill="#dedede"/>
            </g>
          </g>
          <g id="Group_386" data-name="Group 386" transform="translate(85.268 2.607)">
            <g id="Group_385" data-name="Group 385" transform="translate(0 0)">
              <rect id="Rectangle_106" data-name="Rectangle 106" width="2.917" height="27.243" transform="translate(0 0.178) rotate(-3.501)" fill="#dedede"/>
            </g>
          </g>
          <g id="Group_388" data-name="Group 388" transform="translate(63.951 3.91)">
            <g id="Group_387" data-name="Group 387" transform="translate(0 0)">
              <rect id="Rectangle_107" data-name="Rectangle 107" width="2.917" height="27.243" transform="translate(0 0.178) rotate(-3.501)" fill="#dedede"/>
            </g>
          </g>
          <g id="Group_390" data-name="Group 390" transform="translate(42.634 5.214)">
            <g id="Group_389" data-name="Group 389" transform="translate(0 0)">
              <rect id="Rectangle_108" data-name="Rectangle 108" width="2.917" height="27.243" transform="translate(0 0.178) rotate(-3.501)" fill="#dedede"/>
            </g>
          </g>
          <g id="Group_392" data-name="Group 392" transform="translate(21.317 6.517)">
            <g id="Group_391" data-name="Group 391" transform="translate(0 0)">
              <rect id="Rectangle_109" data-name="Rectangle 109" width="2.917" height="27.243" transform="translate(0 0.178) rotate(-3.501)" fill="#dedede"/>
            </g>
          </g>
          <g id="Group_394" data-name="Group 394" transform="translate(0 7.82)">
            <g id="Group_393" data-name="Group 393" transform="translate(0 0)">
              <rect id="Rectangle_110" data-name="Rectangle 110" width="2.917" height="27.243" transform="translate(0 0.178) rotate(-3.501)" fill="#dedede"/>
            </g>
          </g>
        </g>
        <g id="Group_401" data-name="Group 401" transform="translate(77.934 49.042)">
          <g id="Group_400" data-name="Group 400">
            <g id="Group_399" data-name="Group 399">
              <g id="Group_398" data-name="Group 398">
                <g id="Group_397" data-name="Group 397">
                  <g id="Group_396" data-name="Group 396">
                    <path id="Path_2488" data-name="Path 2488" d="M903.709,1970.932a2.815,2.815,0,0,1-.587-.683s-.177-.521-.325-.884a2.663,2.663,0,0,0-.126-.275,5.157,5.157,0,0,1-.721-1.482,34.527,34.527,0,0,1-.16-3.973l1.766-.491,1.588-.7a34.785,34.785,0,0,1,3.425,3.807,1.748,1.748,0,0,1,.059.187,6.594,6.594,0,0,1,.076,1.353c.016.112.1,1.239-.138,1.473a1.1,1.1,0,0,1-1.015.347,2.639,2.639,0,0,1-1.3.634,1.64,1.64,0,0,1-1.393.395S904.165,1971.167,903.709,1970.932Z" transform="translate(-901.791 -1962.449)" fill="#eea886"/>
                  </g>
                </g>
              </g>
            </g>
          </g>
        </g>
        <g id="Group_403" data-name="Group 403" transform="translate(69.407 17.728)">
          <g id="Group_402" data-name="Group 402">
            <path id="Path_2489" data-name="Path 2489" d="M892.827,1845.981s3.439-.219,1.729-5.431c-2.307-7.032-9.164.089-23.648,6.017a4.986,4.986,0,0,0-2.9,5.977c1.162,4.336,6.3,18.108,6.639,19.493l5.8-3.192a88.534,88.534,0,0,1-3.349-10.414c-.706-3.578-1.206-6.9-1.206-6.9Z" transform="translate(-867.804 -1837.628)" fill="#ffbf55"/>
          </g>
        </g>
        <g id="Group_405" data-name="Group 405" transform="translate(121.537 34.083)">
          <g id="Group_404" data-name="Group 404">
            <path id="Path_2490" data-name="Path 2490" d="M1078.824,1902.92s-2.842,1.148-2.714,1.629a.779.779,0,0,0,.467.579l-.956,1s-.257,1.021.93,1c0,0-.339.929.805.775,0,0,.05.713.592.735a10.228,10.228,0,0,0,2.341-.792s.392-.376-.046-1.019a1.028,1.028,0,0,0-.124-1.164,1.184,1.184,0,0,0-.305-1.164s.331-1.259-.69-1.686C1079.125,1902.82,1078.944,1902.871,1078.824,1902.92Z" transform="translate(-1075.598 -1902.82)" fill="#db9c7c"/>
          </g>
        </g>
        <g id="Group_407" data-name="Group 407" transform="translate(119.532 35.611)">
          <g id="Group_406" data-name="Group 406">
            <path id="Path_2491" data-name="Path 2491" d="M1067.933,1908.911a10.416,10.416,0,0,1,3.195.793c.248.137.464.315.431.6s-.485.593-1.4.557a7.7,7.7,0,0,0-2.107.337S1067.129,1910.885,1067.933,1908.911Z" transform="translate(-1067.605 -1908.911)" fill="#eea886"/>
          </g>
        </g>
        <g id="Group_409" data-name="Group 409" transform="translate(94.579 1.231)">
          <g id="Group_408" data-name="Group 408">
            <path id="Path_2492" data-name="Path 2492" d="M979.731,1775.522s1.6,2.979.8,3.439c-.658.381.762,3.3.948,3.782s-1.192.821-1.485,1.127-1.169,4.082-2.3,4.193-6.241-1.678-7.629-3.128-2.515-7.989-1.579-10.743S976.911,1770.317,979.731,1775.522Z" transform="translate(-968.139 -1771.872)" fill="#eea886"/>
          </g>
        </g>
        <g id="Group_411" data-name="Group 411" transform="translate(93.449)">
          <g id="Group_410" data-name="Group 410">
            <path id="Path_2493" data-name="Path 2493" d="M976.695,1772.456s.607-2.163-2.362-4.554-7.5.486-8.065.926c-.5.391-3.522,2.9-2.371,6.556,1.924,6.115,1.9,5.861,1.9,5.861s.832-3.69,1.947-3.946c1.21-.279,2.865-.472,2.865-.472s-1.043-2.79.6-3.18S975.037,1771.836,976.695,1772.456Z" transform="translate(-963.637 -1766.963)" fill="#202338"/>
          </g>
        </g>
        <g id="Group_413" data-name="Group 413" transform="translate(97.411 8.471)">
          <g id="Group_412" data-name="Group 412">
            <path id="Path_2494" data-name="Path 2494" d="M981.734,1802.322c-.081-.326-.452-1.787-1.6-1.57s-.763,2.013.12,3.064S982.186,1804.143,981.734,1802.322Z" transform="translate(-979.427 -1800.729)" fill="#eea886"/>
          </g>
        </g>
        <g id="Group_414" data-name="Group 414" transform="translate(92.452 2.061)">
          <path id="Path_2495" data-name="Path 2495" d="M963.052,1775.178s-3.966.81-3.317,3.809a41.4,41.4,0,0,0,2.658,7.07C962.645,1786.76,963.052,1775.178,963.052,1775.178Z" transform="translate(-959.663 -1775.178)" fill="#202338"/>
        </g>
      </g>
      <g id="Group_419" data-name="Group 419" transform="translate(74.079 0)">
        <path id="Path_2496" data-name="Path 2496" d="M968.058,947.109a17.757,17.757,0,0,0-2.718,3.185c-1.286,1.929-4.7,2.032-4.846,4.665s4.642,2.715,7.156,1.857,2.894-3.429,4.414-4.072,2.309-1.164,2.192-2.419a15.293,15.293,0,0,0-.958-3.293,10.383,10.383,0,0,1-1.5.363A12.431,12.431,0,0,1,968.058,947.109Z" transform="translate(-941.909 -845.101)" fill="#163f75"/>
        <path id="Path_2497" data-name="Path 2497" d="M1006.249,640s-.963,5.729-1.74,9.514h0a22.7,22.7,0,0,1-.776,3.132,44.03,44.03,0,0,1-4.244,4.7c-3.884,4-9.015,9.032-9.015,9.032l-2.006-3.807s4.557-5.343,7.647-8.908c1.43-1.65,2.546-2.919,2.75-3.1.646-.578,1.4-6.271,2.449-10.963a18.9,18.9,0,0,1,3.166-7.284Z" transform="translate(-962.87 -609.34)" fill="#f2c344"/>
        <path id="Path_2498" data-name="Path 2498" d="M999.49,721.095c-3.884,4-9.015,9.032-9.015,9.032l-2.006-3.807s4.557-5.343,7.647-8.908A6.479,6.479,0,0,1,999.49,721.095Z" transform="translate(-962.87 -673.087)" fill="#eea886"/>
        <g id="Group_416" data-name="Group 416" transform="translate(55.597 100.308)">
          <path id="Path_2499" data-name="Path 2499" d="M1113.969,940.7s1.319,1.458,2.1,2.342,3.767,2.465,3.783,5.09c.017,2.847-2.2,2.6-4.18,2.494a5.462,5.462,0,0,1-4.414-3.081c-.832-1.612-3.046-2.036-3.2-3.336s1.026-3.64,1.026-3.64Z" transform="translate(-1108.041 -940.567)" fill="#163f75"/>
        </g>
        <path id="Path_2500" data-name="Path 2500" d="M1112.443,930.906l-.255,2.424s4.125,1.8,4.888.131l-.177-2.159Z" transform="translate(-1055.55 -833.021)" fill="#5f8cc9"/>
        <path id="Path_2501" data-name="Path 2501" d="M990.882,940.35l-.225,1.754a8.647,8.647,0,0,0,5.239-.078l.056-1.56Z" transform="translate(-964.508 -840.096)" fill="#5f8cc9"/>
        <path id="Path_2502" data-name="Path 2502" d="M1053.762,655.86c.144.51-26.4,0-26.4,0s7.343-5.345,7.819-6.773-1.87-9.995-2.176-12.782c-.245-2.23-.858-12.21.612-13.734,1.537-1.594,7.071-3.264,7.071-3.264l8.068.3a12.659,12.659,0,0,1,2.283.72c.952.442,6.4,2.381,7.279,5.1s-5.432,11.463-5.432,11.463-.012.393-.031,1.037h0c-.024.859-.06,2.164-.094,3.579-.042,1.833-.079,3.852-.079,5.327A52.641,52.641,0,0,0,1053.762,655.86Z" transform="translate(-992.003 -599.595)" fill="#f2c344"/>
        <path id="Path_2503" data-name="Path 2503" d="M997.964,760.905s3.611,5.3,3.662,8.923-1.337,13.659-1.44,15.648-1.971,18.561-1.971,18.561-1.445,1.343-5.779-.34c0,0-.957-15.716-1.058-17.4s-.1-9.433-1.071-10.555-6.832-4.64-7.6-5.3-14.089,2.518-15.485,2.88c-3.615.938-1.968,7.228-1.168,10.048,1.338,4.718,2.508,21.757,2.508,21.757a12.276,12.276,0,0,1-6.888.17s-8.469-30.766-8.741-33.825-.406-8.1,20.466-11.939Z" transform="translate(-936.205 -704.64)" fill="#1b4d8f"/>
        <path id="Path_2504" data-name="Path 2504" d="M1072.458,549.107s-7-1.58-5.4,7.234,3.284,9.507,7.509,7.682,3.847-7.471,4.06-10.24S1074.693,549.2,1072.458,549.107Z" transform="translate(-1021.562 -546.923)" fill="#eea886"/>
        <path id="Path_2505" data-name="Path 2505" d="M1081.917,595.168s3.1,3.289,8,.3c0,0-1.1-7.126-.519-10.6s-6.4,5.378-6.4,5.378c.092.048.153.379.167.851a9.5,9.5,0,0,1-.073,1.412C1082.955,593.665,1082.6,594.884,1081.917,595.168Z" transform="translate(-1032.873 -573.192)" fill="#eea886"/>
        <path id="Path_2506" data-name="Path 2506" d="M1104.083,571.585a.893.893,0,0,1,1.753.1c.124,1.166-.7,3.212-1.282,3.01S1103.956,572.657,1104.083,571.585Z" transform="translate(-1049.43 -563.336)" fill="#eea886"/>
        <path id="Path_2507" data-name="Path 2507" d="M1077.066,552.113s-.181-2.777-1.2-2.864-1.17,1.032-1.17,1.032l-1.024.193s.324-2.434-.689-2.859-6.562,1.34-7.375.626-.431-5.652,1.04-6.328,5.531-2.19,8.506-.176c0,0,2.319-.264,2.663,1.607S1077.7,550.722,1077.066,552.113Z" transform="translate(-1020.345 -540.73)" fill="#3a3f47"/>
        <path id="Path_2508" data-name="Path 2508" d="M1086.627,603.847c5.057-1.559,5.439-4.6,5.444-4.652-1.665,2.862-5.37,3.24-5.37,3.24A9.494,9.494,0,0,1,1086.627,603.847Z" transform="translate(-1036.402 -584.528)" fill="#a77860"/>
        <path id="Path_2509" data-name="Path 2509" d="M1084.375,618.948s-3.7,7.373-9.686,6.9-1.02-7.886-.748-7.955C1074.239,617.815,1080.077,616.361,1084.375,618.948Z" transform="translate(-1025.258 -598.177)" fill="#eea886"/>
        <path id="Path_2510" data-name="Path 2510" d="M1015.257,756.717s18.332,2.26,29.438.373l-21.221-2.651S1023.348,754.98,1015.257,756.717Z" transform="translate(-982.937 -700.825)" fill="#f2c344"/>
        <path id="Path_2511" data-name="Path 2511" d="M1065.833,751.111l-1.366.692s.311,2.169,1.059,2.827l1.532-.391S1066.739,751.859,1065.833,751.111Z" transform="translate(-1019.801 -698.332)" fill="#eea886"/>
        <path id="Path_2512" data-name="Path 2512" d="M1091.123,664.123a69.257,69.257,0,0,1-7.948,3.334h0c-5.562,2.143-11.836,4.169-11.836,4.169l-1.428-3.061s6.57-3.57,11.01-6.074c2.1-1.183,3.719-2.127,3.948-2.346.714-.68.9-1.77.374-3.672s-1.734-10.64-1.87-11.66.34-3.739,2.89-3.875a7.653,7.653,0,0,1,3.847.583s.64.267,1.116,6.453S1091.769,663.376,1091.123,664.123Z" transform="translate(-1023.879 -615.786)" fill="#f2c344"/>
        <path id="Path_2513" data-name="Path 2513" d="M1124.338,671.228h0c-.024.859-.061,2.164-.094,3.579a17.881,17.881,0,0,1-1.026-11.049C1122.949,665.414,1124.319,671.147,1124.338,671.228Z" transform="translate(-1063.487 -632.894)" fill="#b59233"/>
        <path id="Path_2514" data-name="Path 2514" d="M1048.891,682.21h0a22.685,22.685,0,0,1-.776,3.132,32.367,32.367,0,0,1-.085-9.379A52.923,52.923,0,0,0,1048.891,682.21Z" transform="translate(-1007.251 -642.037)" fill="#b59233"/>
        <path id="Path_2515" data-name="Path 2515" d="M1083.175,731.867h0c-5.562,2.143-12.038,4.235-12.038,4.235l-1.226-3.127s6.57-3.57,11.01-6.074C1080.92,726.9,1082.535,727.688,1083.175,731.867Z" transform="translate(-1023.879 -680.196)" fill="#eea886"/>
        <path id="Path_2516" data-name="Path 2516" d="M990.529,763.156l-26.056-.383,13.155,6.68Z" transform="translate(-944.893 -707.068)" fill="#5e5853"/>
        <path id="Path_2517" data-name="Path 2517" d="M1013.867,770.6l12.9-5v-1.3l-13.92,5.022Z" transform="translate(-981.131 -708.213)" fill="#91887f"/>
        <g id="Group_417" data-name="Group 417" transform="translate(35.879 52.937)">
          <path id="Path_2518" data-name="Path 2518" d="M1038.525,752.323s-1.628-.253-2.753-.515c-.87-.2-3.035.077-3.586.635s-2.3,4.451-2.636,4.689.17.787.752.511c0,0,.535,1.7,1.854,1.066s2.216-2.03,2.907-2.275,4.715-1.482,4.715-1.482S1039.562,751.908,1038.525,752.323Z" transform="translate(-1029.444 -751.742)" fill="#eea886"/>
        </g>
        <g id="Group_418" data-name="Group 418" transform="translate(35.997 53.383)">
          <path id="Path_2519" data-name="Path 2519" d="M1032.934,753.519a11.357,11.357,0,0,0-1.318.73c-.273.225-1.379,1.053-1.647,1.248s.4.749,2.382-.108S1032.934,753.519,1032.934,753.519Z" transform="translate(-1029.912 -753.519)" fill="#eea886"/>
        </g>
        <path id="Path_2520" data-name="Path 2520" d="M919.161,726.21l-7.75-21.161-24.985.408,7.386,19.5Z" transform="translate(-886.425 -663.826)" fill="#6e6760"/>
        <path id="Path_2521" data-name="Path 2521" d="M941.492,736.479c.762,1.524.532,3.184-.514,3.707s-2.513-.287-3.275-1.812-.532-3.184.514-3.708S940.73,734.955,941.492,736.479Z" transform="translate(-924.502 -685.894)" fill="#807066"/>
      </g>
      <g id="Group_456" data-name="Group 456" transform="translate(210.879 307.629)">
        <g id="Group_422" data-name="Group 422" transform="translate(7.676)">
          <g id="Group_421" data-name="Group 421">
            <g id="Group_420" data-name="Group 420">
              <path id="Path_2522" data-name="Path 2522" d="M1473,1767.875s4.153,2.031,3.126,7.557-1.481,6.271-.333,8.431,2.5,11.371,1.47,13.117-12.8-7.673-14.426-15.575,1.034-11.417,1.976-12.726S1469.332,1766.014,1473,1767.875Z" transform="translate(-1462.319 -1766.963)" fill="#0e2d3d"/>
            </g>
          </g>
        </g>
        <g id="Group_423" data-name="Group 423" transform="translate(19.506 20.861)">
          <path id="Path_2523" data-name="Path 2523" d="M1509.474,1850.118a5.784,5.784,0,0,1,3.3,2.177c.826,1.215.893,3.916,1.012,4.424s1.7,6.263,1.7,6.263l-4.4,2.951Z" transform="translate(-1509.474 -1850.118)" fill="#285173"/>
        </g>
        <g id="Group_424" data-name="Group 424" transform="translate(30.196 113.138)">
          <path id="Path_2524" data-name="Path 2524" d="M1557.664,2224.076s2.874,3.868,2.479,4.481-3.416.7-5.255,0-1.883-5.234-2.715-7.182c-.348-.815.4-3.223,1.445-3.4a4.413,4.413,0,0,1,2.188.338S1554.719,2221.06,1557.664,2224.076Z" transform="translate(-1552.086 -2217.941)" fill="#1d3b54"/>
        </g>
        <g id="Group_426" data-name="Group 426" transform="translate(31.062 113.083)">
          <g id="Group_425" data-name="Group 425">
            <path id="Path_2525" data-name="Path 2525" d="M1558.412,2218.118a18.26,18.26,0,0,1,.825,3.22c.183,1.3,2.047,4.074,1.96,4.425s-2.452.668-3.416-.236-1.583-3.53-1.8-5.1a12.612,12.612,0,0,0-.447-2.186S1557.492,2217.155,1558.412,2218.118Z" transform="translate(-1555.538 -2217.72)" fill="#eea886"/>
          </g>
        </g>
        <g id="Group_427" data-name="Group 427" transform="translate(5.081 113.14)">
          <path id="Path_2526" data-name="Path 2526" d="M1457.657,2224.146s2.77,3.8,2.376,4.417-3.416.7-5.255,0-1.883-5.234-2.715-7.182c-.348-.815.4-3.223,1.445-3.4a4.706,4.706,0,0,1,2.277.375S1454.712,2221.13,1457.657,2224.146Z" transform="translate(-1451.976 -2217.949)" fill="#1d3b54"/>
        </g>
        <g id="Group_429" data-name="Group 429" transform="translate(6.379 112.997)">
          <g id="Group_428" data-name="Group 428">
            <path id="Path_2527" data-name="Path 2527" d="M1459.659,2217.931a25.964,25.964,0,0,0,.569,3.066c.35,1.27,2.234,4.161,2.146,4.511s-2.453.668-3.416-.235-1.708-3.518-1.8-5.1a8.414,8.414,0,0,1,.219-2.615A2.14,2.14,0,0,1,1459.659,2217.931Z" transform="translate(-1457.147 -2217.378)" fill="#eea886"/>
          </g>
        </g>
        <g id="Group_431" data-name="Group 431" transform="translate(2.185 42.208)">
          <g id="Group_430" data-name="Group 430">
            <path id="Path_2528" data-name="Path 2528" d="M1460.979,1943.572s2.466,11.471,3.032,14.359,2.152,16.876,2.322,19.254,2.573,11.34,2.46,12.189,3.563,17.913,3.563,17.913a2.211,2.211,0,0,1-2.579.091c-.68-.473-8.065-15.975-8.065-20.222,0-5.871-4.341-13.535-4.9-14.849-5.2-12.2-4.179-15.932-4.859-16.725s-.739.49-1.135,2.245-1.245,16.932-1.755,18.858-.114,8.438-.4,11.723-1.526,18.142-1.526,18.142a1.35,1.35,0,0,1-2.314.039c-.291-.316-2.332-16.55-2.389-20.458s-.117-9.3-.227-10.986c-1.049-16.192-3.628-18.5.433-29.964C1450.246,1923.725,1460.979,1943.572,1460.979,1943.572Z" transform="translate(-1440.432 -1935.209)" fill="#eea886"/>
          </g>
        </g>
        <g id="Group_432" data-name="Group 432" transform="translate(1.416 47.364)">
          <path id="Path_2529" data-name="Path 2529" d="M1442.124,1955.761s-7.025,9.831-4,30.746c0,0,16.662,2.266,25.589-2.621,0,0-3.691-21.563-5.029-24.918S1442.124,1955.761,1442.124,1955.761Z" transform="translate(-1437.367 -1955.76)" fill="#1d3b54"/>
        </g>
        <g id="Group_433" data-name="Group 433" transform="translate(30.206 116.232)">
          <path id="Path_2530" data-name="Path 2530" d="M1552.125,2230.271v4.05h.526v-3.13Z" transform="translate(-1552.125 -2230.271)" fill="#1d3b54"/>
        </g>
        <g id="Group_434" data-name="Group 434" transform="translate(5.091 116.232)">
          <path id="Path_2531" data-name="Path 2531" d="M1452.015,2230.271v4.05h.525v-3.13Z" transform="translate(-1452.015 -2230.271)" fill="#1d3b54"/>
        </g>
        <g id="Group_435" data-name="Group 435" transform="translate(2.746 19.292)">
          <path id="Path_2532" data-name="Path 2532" d="M1455.521,1844a27.068,27.068,0,0,0,3.487,1.4c.9.18,4.385,4.709,5,6.362s0,4.134-1.258,7.045-.072,3.882-.647,6.793a67.723,67.723,0,0,0-.97,10.694c.108,1.617-14.539,1.922-17.882-1.025,0,0,3.36-5.032,3.791-5.751s.072-4.637-.324-5.643-3.027-9.565-3.027-9.565-2.153-6.573-.208-8.083c1.69-1.312,6.294-1.78,7.121-2.067A14.122,14.122,0,0,1,1455.521,1844Z" transform="translate(-1442.665 -1843.863)" fill="#eddad3"/>
        </g>
        <g id="Group_436" data-name="Group 436" transform="translate(16.352 18.507)">
          <path id="Path_2533" data-name="Path 2533" d="M1496.977,1847.424l1.573-1.841-1.366-4.848A32.022,32.022,0,0,0,1496.977,1847.424Z" transform="translate(-1496.901 -1840.734)" fill="#d6c5be"/>
        </g>
        <g id="Group_437" data-name="Group 437" transform="translate(10.68 12.899)">
          <path id="Path_2534" data-name="Path 2534" d="M1480.448,1821.921s-.071.649-.155,1.546c-.036.4-.076.844-.113,1.305a29.579,29.579,0,0,0-.141,3.442s-2.69,2.7-5.748-3.145a8.02,8.02,0,0,0,.318-5.688C1473.64,1816.1,1480.448,1821.921,1480.448,1821.921Z" transform="translate(-1474.291 -1818.378)" fill="#eea886"/>
        </g>
        <g id="Group_438" data-name="Group 438" transform="translate(13.332 22.735)">
          <path id="Path_2535" data-name="Path 2535" d="M1487.96,1857.585v2.462l-3.095-2.313Z" transform="translate(-1484.865 -1857.585)" fill="#eea886"/>
        </g>
        <g id="Group_439" data-name="Group 439" transform="translate(9.414 19.292)">
          <path id="Path_2536" data-name="Path 2536" d="M1476.258,1849.768l-1.285-1.59-4.328-4.314-1.4,1.348Z" transform="translate(-1469.245 -1843.864)" fill="#d6c5be"/>
        </g>
        <g id="Group_440" data-name="Group 440" transform="translate(1.414 19.705)">
          <path id="Path_2537" data-name="Path 2537" d="M1446.156,1845.507s3.632,5.513,3.806,7.939-1.35,20.576-2.57,26.409-10.035-.658-10.035-.658,5.924-9.588,3.65-17.266-3.1-10.747-3.1-10.747.782-4.276,3.555-4.877C1443.891,1845.781,1446.156,1845.507,1446.156,1845.507Z" transform="translate(-1437.356 -1845.507)" fill="#285173"/>
        </g>
        <g id="Group_441" data-name="Group 441" transform="translate(17.521 20.279)">
          <path id="Path_2538" data-name="Path 2538" d="M1508.363,1855.445s.655,2.318-1.9,7.443c0,0,.041,6.558.113,8.607s1.521,9.416,1.521,9.416l-3.488,1.857a.712.712,0,0,1-1.067-.7c.715-5.9,3.041-28.261-1.983-34.272l2.016.594A16.314,16.314,0,0,1,1508.363,1855.445Z" transform="translate(-1501.561 -1847.795)" fill="#285173"/>
        </g>
        <g id="Group_442" data-name="Group 442" transform="translate(16.635 18.507)">
          <path id="Path_2539" data-name="Path 2539" d="M1499.393,1845.582l1.982.547-3.347-5.4Z" transform="translate(-1498.027 -1840.734)" fill="#fae6de"/>
        </g>
        <g id="Group_443" data-name="Group 443" transform="translate(9.616 19.04)">
          <path id="Path_2540" data-name="Path 2540" d="M1475.577,1847.424l-1.81,2.372-3.717-6.194,1.295-.744Z" transform="translate(-1470.051 -1842.857)" fill="#fae6de"/>
        </g>
        <rect id="Rectangle_111" data-name="Rectangle 111" width="0.655" height="7.75" transform="matrix(0.784, -0.621, 0.621, 0.784, 17.763, 33.2)" fill="#eb4747"/>
        <path id="Path_2541" data-name="Path 2541" d="M1499.073,1916.262a1.4,1.4,0,0,0,.761-.219c.521-.393.709-1.362,1.63-1.291s1.347,2.957,1.117,3.5-1.508.82-3.4.443S1499.073,1916.262,1499.073,1916.262Z" transform="translate(-1481.607 -1877.673)" fill="#eea886"/>
        <path id="Path_2542" data-name="Path 2542" d="M1508.561,1911.666a28.889,28.889,0,0,1,2.85-.781c1.34-.29,2.941-.384,3.1-.152.174.259-1.3.483-2.618.855-1.209.343-.921.469-.921.469s-.08-.04,1.3-.17c1.484-.138,3.012-.135,3.163.161.073.144.022.242-.513.377.321-.015.367.069.379.2.063.668-2.1,1.2-2.96,1.411.661-.158,1.16-.206.922.242-.272.512-3.361,1.132-4.45,1.456C1507.622,1916.085,1508.561,1911.666,1508.561,1911.666Z" transform="translate(-1489.02 -1874.567)" fill="#eea886"/>
        <path id="Path_2543" data-name="Path 2543" d="M1437.752,1848.94c-.91-.294-3.582.653-4.034,3.392s-.632,5.78-1.054,7.255-1.5,8.011-.592,8.553a10.236,10.236,0,0,0,5.013,1.037c2.478,0,12.083.431,12.083.431l.6-3.412s-3.648-.189-5.539-.475c-1.682-.255-4.015-.971-6.76-1.272a46.064,46.064,0,0,1,1-5.193C1438.9,1858.112,1441.846,1850.265,1437.752,1848.94Z" transform="translate(-1431.721 -1828.335)" fill="#285173"/>
        <path id="Path_2544" data-name="Path 2544" d="M1524.257,1918.926l.451,1.1-.964-.691Z" transform="translate(-1500.657 -1880.802)" fill="#eea886"/>
        <g id="Group_444" data-name="Group 444" transform="translate(18.308 26.572)">
          <path id="Path_2545" data-name="Path 2545" d="M1504.7,1890.157l9.676-1.919,7.176-15.355-10.328,1.085Z" transform="translate(-1504.698 -1872.882)" fill="#ffb855"/>
        </g>
        <g id="Group_446" data-name="Group 446" transform="translate(28.295 34.525)">
          <g id="Group_445" data-name="Group 445">
            <path id="Path_2546" data-name="Path 2546" d="M1545.4,1909.38a7.847,7.847,0,0,0,1-1.182,17.589,17.589,0,0,0,1.877-3.487,5.254,5.254,0,0,0-2.853.154c-.416.374.409.521.409.521s-1.255.13-1.165.484.846.256.846.256-1.01.194-.857.5.639.308.639.308-.9.112-.785.452,1.527.661,1.338.943A6.655,6.655,0,0,0,1545.4,1909.38Z" transform="translate(-1544.505 -1904.583)" fill="#eea886"/>
          </g>
        </g>
        <g id="Group_449" data-name="Group 449" transform="translate(9.8 1.348)">
          <g id="Group_448" data-name="Group 448">
            <g id="Group_447" data-name="Group 447">
              <path id="Path_2547" data-name="Path 2547" d="M1478.738,1772.514s6.03,1.895,2.757,12.3-11.509-1.206-10.647-7.546S1478.738,1772.514,1478.738,1772.514Z" transform="translate(-1470.785 -1772.338)" fill="#eea987"/>
            </g>
          </g>
        </g>
        <g id="Group_452" data-name="Group 452" transform="translate(9.325 0.513)">
          <g id="Group_451" data-name="Group 451">
            <g id="Group_450" data-name="Group 450">
              <path id="Path_2548" data-name="Path 2548" d="M1480.691,1776.09a13.6,13.6,0,0,1-8.011,3.308s-1.927,2.259-2.075,3.146c0,0-4.474-7.626,1.026-12.2S1482.713,1774.207,1480.691,1776.09Z" transform="translate(-1468.89 -1769.006)" fill="#0e2d3d"/>
            </g>
          </g>
        </g>
        <g id="Group_455" data-name="Group 455" transform="translate(11.083 9.029)">
          <g id="Group_454" data-name="Group 454">
            <g id="Group_453" data-name="Group 453">
              <path id="Path_2549" data-name="Path 2549" d="M1477.993,1805.036c-.039-.758-.505-2.481-1.631-2s.069,3.992.815,3.776C1477.177,1806.813,1478.085,1806.827,1477.993,1805.036Z" transform="translate(-1475.9 -1802.954)" fill="#eea987"/>
            </g>
          </g>
        </g>
        <path id="Path_2550" data-name="Path 2550" d="M1485.823,1829.775c-.036.4-.076.844-.113,1.305h0c-3.486-1.721-4.021-4.2-4.036-4.281C1484.157,1830.009,1485.823,1829.775,1485.823,1829.775Z" transform="translate(-1469.141 -1811.788)" fill="#a77860"/>
      </g>
      <g id="Group_478" data-name="Group 478" transform="translate(251.828 280.28)">
        <g id="Group_457" data-name="Group 457" transform="translate(46.886 45.198)">
          <path id="Path_2551" data-name="Path 2551" d="M1781.837,1849.4s7.607,12.544,10.272,11.889c1.232-.3,5.315-3.45,6.857-5.45.509-.658,1.007-1.349,1.481-2.033a0,0,0,0,0,0,0c1.892-2.731,3.375-5.35,3.375-5.35s7.335-7.418,2.848-10.34c0,0-3.591.5-5.087,2.1a25.529,25.529,0,0,0-3.425,5.565,83.712,83.712,0,0,1-5.854,7.2c-.285.178-2.241-.88-3.529-2.319-1.9-2.119-3.96-4.979-3.96-4.979Z" transform="translate(-1781.837 -1838.11)" fill="#f2c344"/>
        </g>
        <path id="Path_2552" data-name="Path 2552" d="M1632.864,1668.363l-17.882-5.817-20.037,35.591,14.238,12.275a97,97,0,0,0-2.323,11.47l45.546,7.412a50.2,50.2,0,0,1,22.348-36.137l-30.1-35.209A95.451,95.451,0,0,0,1632.864,1668.363Z" transform="translate(-1594.945 -1657.948)" fill="url(#linear-gradient-11)"/>
        <g id="Group_458" data-name="Group 458" transform="translate(46.815 143.364)">
          <path id="Path_2553" data-name="Path 2553" d="M1789.63,2229.493a14.435,14.435,0,0,1-4.751,2.579c-2.171.47-3.31,1.58-3.326,2.868s6.246,2.137,8.73.838c3.707-1.938,4.084-1.354,4.5-2.323s.08-3.533.107-3.841C1794.918,2229.234,1789.63,2229.493,1789.63,2229.493Z" transform="translate(-1781.553 -2229.407)" fill="#8a7272"/>
        </g>
        <g id="Group_459" data-name="Group 459" transform="translate(54.824 142.116)">
          <path id="Path_2554" data-name="Path 2554" d="M1813.723,2225.067a8.759,8.759,0,0,0-.24,1.074c.042.022,4.891.565,4.745-.279-.119-.685-.289-1.429-.289-1.429Z" transform="translate(-1813.479 -2224.434)" fill="#2e2626"/>
        </g>
        <g id="Group_460" data-name="Group 460" transform="translate(79.245 145.084)">
          <path id="Path_2555" data-name="Path 2555" d="M1917.316,2236.318s-1.606,2.431-3.644,2.92c-2.01.482-2.751,1.248-2.85,2.46s4.738,2.8,8.136.671c2.233-1.4,3.065-1.32,3.515-2.209s.109-3.4.154-3.684C1922.682,2236.118,1917.316,2236.318,1917.316,2236.318Z" transform="translate(-1910.82 -2236.262)" fill="#8a7272"/>
        </g>
        <g id="Group_461" data-name="Group 461" transform="translate(86.209 143.87)">
          <path id="Path_2556" data-name="Path 2556" d="M1938.653,2231.81a9.373,9.373,0,0,0-.062,1.047c.038.023,4.516.816,4.489.009a6.236,6.236,0,0,0-.284-1.439Z" transform="translate(-1938.582 -2231.426)" fill="#2f6b8c"/>
        </g>
        <g id="Group_462" data-name="Group 462" transform="translate(54.047 77.979)">
          <path id="Path_2557" data-name="Path 2557" d="M1824.125,1973.3s-6.084,15.093-7.834,20.218a76.957,76.957,0,0,0-3.858,15.918c-.365,4.066-1.791,23.255-2.046,24.444s6.829.79,6.829.79,3.986-24.2,5.071-28.527c1.01-4.033,10.578-22.325,11.5-21.224s3.986,19.825,4.668,23.005,2.514,28.215,2.514,28.215,6.218,1,7.47,0c0,0-.981-22.323-1.416-28.286-.166-2.272,1.438-27.2-2.405-37.255C1842.587,1965.284,1824.125,1973.3,1824.125,1973.3Z" transform="translate(-1810.379 -1968.778)" fill="#323657"/>
        </g>
        <path id="Path_2558" data-name="Path 2558" d="M1858.424,1877.727s12.943,3.925,24.345,2.444c0,0-2.495-15.088-2.035-18.835.324-2.691,1.413-8.677,2.307-13.411.375-1.975.707-3.738.945-4.947.2-1.064.332-1.712.332-1.712a7.041,7.041,0,0,0-1.5-3.132c-1.014-.86-9.817-2.409-9.817-2.409l-6.314,0s-5.262,1.082-5.952,1.686c-.741.647-2.214,7.161-2.3,8.915a63.927,63.927,0,0,0,1.115,11.725C1860.289,1860.782,1858.892,1873.947,1858.424,1877.727Z" transform="translate(-1792.324 -1791.123)" fill="#f2c344"/>
        <rect id="Rectangle_112" data-name="Rectangle 112" width="2.628" height="4.012" transform="translate(69.984 61.096) rotate(180)" fill="#c6cad9"/>
        <path id="Path_2559" data-name="Path 2559" d="M1885.454,1835.551s-1.237,1.841.488,2.155a7.831,7.831,0,0,0,6.983-2.405S1887.881,1834.847,1885.454,1835.551Z" transform="translate(-1812.251 -1790.7)" fill="#eea886"/>
        <path id="Path_2560" data-name="Path 2560" d="M1913.07,1875.991s8.915-5.067,10.908-6.4c.375-1.976.707-3.738.945-4.947C1924.923,1864.64,1918.852,1867.1,1913.07,1875.991Z" transform="translate(-1833.261 -1812.787)" fill="#bf9a36"/>
        <path id="Path_2561" data-name="Path 2561" d="M1821.483,1868.657a1.429,1.429,0,0,1-.417-.785c-.058-.73.7-1.647-.122-2.33s-3.875,1.256-4.2,1.874.465,1.86,2.363,3.08S1821.483,1868.657,1821.483,1868.657Z" transform="translate(-1761.048 -1813.354)" fill="#eea886"/>
        <path id="Path_2562" data-name="Path 2562" d="M1814.93,1850.541a29.039,29.039,0,0,0-1.6-2.908c-.824-1.306-2.075-2.758-2.39-2.608-.73.348.567,1.461,1.292,2.811.667,1.243.361,1.08.361,1.08s.1.032-.9-1.179c-1.083-1.3-2.336-2.527-2.737-2.414-.2.055-.245.173.065.71-.249-.269-.364-.24-.5-.148-.679.477.592,2.637,1.1,3.5-.393-.657-.756-1.1-.981-.55-.258.624,1.687,3.6,2.274,4.727C1811.553,1854.79,1814.93,1850.541,1814.93,1850.541Z" transform="translate(-1754.795 -1798.084)" fill="#eea886"/>
        <path id="Path_2563" data-name="Path 2563" d="M1859.134,1844.174c-.973-.8-4.256-.919-6.726,1.568-1.742,1.754-3.312,3.65-3.971,4.445-1.242,1.5-3.925,5.542-4.8,5.415s-7.2-2.3-7.669-2.378-7.141-2.7-7.141-2.7l-2.183,4.107s13.141,6.29,14.341,6.694,3.728,1.914,6.437-.315c2.575-2.119,7.509-5.978,8.875-7.144C1856.8,1853.44,1863.466,1847.719,1859.134,1844.174Z" transform="translate(-1768.515 -1797.073)" fill="#f2c344"/>
        <path id="Path_2564" data-name="Path 2564" d="M1886.648,1815.218s1.616,1.214,7.018-1.167a14.876,14.876,0,0,1,.53-6.374c1.059-3.459-6.975,3.579-6.975,3.579.088.061.1.407.054.889,0,.031-.007.063-.011.095a9.446,9.446,0,0,1-.216,1.179l-.039.156C1886.705,1814.732,1886.648,1814.208,1886.648,1815.218Z" transform="translate(-1813.468 -1769.398)" fill="#eea886"/>
        <path id="Path_2565" data-name="Path 2565" d="M1888.242,1822.085h0c3.871.5,5.983-3.674,6.045-3.8-2.65,3.862-5.828,2.617-5.828,2.617h0A9.386,9.386,0,0,1,1888.242,1822.085Z" transform="translate(-1814.662 -1778.063)" fill="#a77860"/>
        <g id="Group_467" data-name="Group 467" transform="translate(70.087 25.658)">
          <g id="Group_466" data-name="Group 466">
            <g id="Group_465" data-name="Group 465">
              <g id="Group_464" data-name="Group 464">
                <g id="Group_463" data-name="Group 463">
                  <path id="Path_2566" data-name="Path 2566" d="M1885.417,1772.064l0,0a18.119,18.119,0,0,1-2.062,3.405c-2.683,3.443-8.941,3.528-9.033-5.924a14.6,14.6,0,0,1,.566-4.419c1.281-4.2,4.29-4.893,4.29-4.893,2.224-.123,6.116.428,7.412,3.323C1887.509,1765.618,1886.842,1769.027,1885.417,1772.064Z" transform="translate(-1874.318 -1760.222)" fill="#eea987"/>
                </g>
              </g>
            </g>
          </g>
        </g>
        <g id="Group_472" data-name="Group 472" transform="translate(70.313 24.718)">
          <g id="Group_471" data-name="Group 471">
            <g id="Group_470" data-name="Group 470">
              <g id="Group_469" data-name="Group 469">
                <g id="Group_468" data-name="Group 468">
                  <path id="Path_2567" data-name="Path 2567" d="M1886.092,1769.259l0,.005s-.321.086-1.476-2.248c-.232-.468-.41-.134-.511-.34l-1.84-.718s1.742-2.486-.64-3.331a15.236,15.236,0,0,0-6.063-.3c-1.891-8.266,4.71-5.348,4.71-5.348,2.34.439,5.7.883,6.993,3.779C1888.183,1762.813,1887.517,1766.222,1886.092,1769.259Z" transform="translate(-1875.219 -1756.478)" fill="#665249"/>
                </g>
              </g>
            </g>
          </g>
        </g>
        <g id="Group_477" data-name="Group 477" transform="translate(78.66 32.841)">
          <g id="Group_476" data-name="Group 476">
            <g id="Group_475" data-name="Group 475">
              <g id="Group_474" data-name="Group 474">
                <g id="Group_473" data-name="Group 473">
                  <path id="Path_2568" data-name="Path 2568" d="M1908.653,1789.514c.137-.632,1.385-1.176,1.915.182s-1.244,2.8-1.712,2.5S1908.426,1790.561,1908.653,1789.514Z" transform="translate(-1908.491 -1788.853)" fill="#eea987"/>
                </g>
              </g>
            </g>
          </g>
        </g>
      </g>
    </g>
  </g>
</svg>