<svg xmlns="http://www.w3.org/2000/svg" xmlns:xlink="http://www.w3.org/1999/xlink" width="1122" height="500" viewBox="0 0 1122 500">
  <defs>
    <clipPath id="clip-path">
      <rect id="Rectangle_69" data-name="Rectangle 69" width="1063" height="500"/>
    </clipPath>
  </defs>
  <g id="Group_491" data-name="Group 491" transform="translate(-79 -2801)">
    <g id="Group_489" data-name="Group 489">
      <g id="Group_482" data-name="Group 482" transform="translate(109 2801)">
        <g id="Group_217" data-name="Group 217">
          <g id="Group_216" data-name="Group 216">
            <g id="Group_215" data-name="Group 215" clip-path="url(#clip-path)">
              <path id="Path_2363" data-name="Path 2363" d="M123.223,116.367c2.164,0,2.38.509,4.219,0s7.14-2.853,8.979-3.158,3.029.1.325,1.121-8.006,3.158-7.14,2.954,3.678-.917,7.573-2.139,3.462-.713,4.436-1.936l1.515-1.936s6.058,4.177,6.708,4.381.757,0,1.082-.509a1.826,1.826,0,0,1,1.839-1.019c.866.2.108,1.223.649,1.426a7.785,7.785,0,0,0,3.029-.408c1.623-.408.757-1.121.757-1.121s-.216,0,1.731-.1c1.839-.1,7.681,1.324,9.412,1.834s6.924.815,8.439,1.121,2.056-.611,4.111.2,3.57,1.732,2.056,2.241-5.3.917-3.354,1.223a47.787,47.787,0,0,0,7.681.713c2.813,0,7.9-.713,9.412-.713s2.488.611,4,2.343a7.493,7.493,0,0,0,3.246,2.445c.541.1-.541-.815-.216-1.63a4.773,4.773,0,0,0-.649-2.954c-.325-.509,0-.815-.649-1.63s-1.839-.611.216-1.324,3.462-1.63,6.058-1.426,3.137,2.343,5.3,2.445,2.6.713,6.275.917,2.164,0,6.275.2,2.6-.306,3.462-1.732a2.863,2.863,0,0,1,2.813-1.63c.974.1,4.436.408,4.436.713s-1.515,1.834-.757,2.547a18.009,18.009,0,0,0,3.678,1.936s-.649-1.732-.649-1.936-.216-1.528.216-1.834,2.921.1,4.436-1.936-1.082-1.936-1.082-1.936-.974,0-.433-.815c.433-.815,3.246-1.324,3.246-1.324s.216.408-.216-.306-2.164-.509-4.111-.611-3.246-.306-3.678-1.324a19.492,19.492,0,0,1-.433-4.992c0-1.63,1.947-1.019,2.272-1.936A16.586,16.586,0,0,0,239.2,96.7c-.433-.917.649-2.853.974-4.075s2.164-.713,2.164-.713c-.325-.408.541-1.63,3.137-2.139a30.5,30.5,0,0,1,7.465,0s-.433,0-1.623,1.121-.433,2.954-2.272,4.279-6.383.917-6.383.917,1.406,2.139.865,2.853a6.593,6.593,0,0,0-.974,2.139s4.111.713,4.219,2.445,2.272,2.038,2.7,3.566-1.947,2.954-1.515,3.158a3.921,3.921,0,0,0,2.164.408c1.515,0,3.462.2,3.462.2a1.2,1.2,0,0,0-.108,1.63c.757.815.216,1.426.216,2.343s.865,1.732,1.19,1.528a11.359,11.359,0,0,0,2.272-3.566c.325-1.019.649-1.63,1.3-1.63a7.342,7.342,0,0,1,3.246,1.936c.216.509.433,1.223-.865,2.649s-1.19,2.038,0,2.547a19.873,19.873,0,0,0,3.246,1.019c2.056.611,1.623.611,2.921.306s-.541-2.343-.433-2.445,3.029-.306,2.38-1.324-1.3-1.63,0-2.139,2.272-1.019,2.272-1.019a8.325,8.325,0,0,1-1.731-2.547c-.974-1.834.865-1.324,4.544-1.121s3.895,1.019,5.842,1.732.757.917,1.406,2.038-1.623,1.223-1.623,1.223-1.515.2-1.19,1.019a15.072,15.072,0,0,0,2.164,3.158c1.082,1.324-.325,2.139-1.947,3.26a12.1,12.1,0,0,1-5.626,1.426c-1.947,0-2.813.611-3.029.2a2.349,2.349,0,0,0-2.164-.611c-1.082.1-3.57.815-2.7,1.019s3.137.2,2.164,1.324-1.731,1.223-3.678,1.019-3.678-.1-4.868-.2l-7.14-.306a59.749,59.749,0,0,0,7.248,2.343,23.747,23.747,0,0,0,6.6.306s-1.3,1.63-2.813,3.362-3.029.917-4.327,1.019-2.056.815-4.436,1.019-7.465-.408-6.708-.2a7.112,7.112,0,0,0,2.488.815,8.317,8.317,0,0,1,3.462.917c1.19.713-.757.815-2.38,1.019a3.965,3.965,0,0,0-2.813,1.019l-4.327,4.075a6.456,6.456,0,0,0-1.947,3.769c-.325,1.63-2.38,3.464-1.515,3.871s4.327.408,5.734,1.019,3.029,3.464,4.111,4.584,1.947,1.936,3.137,1.121,3.57-.611,5.842-.1a45,45,0,0,1,8.222,3.566c1.406.917,3.895.815,6.708,1.019s3.137,1.019,3.137,1.019,2.921.1,1.731.917-1.515,0-.325,1.426a4.541,4.541,0,0,1,.865,4.177c-.325.917,3.895.509,5.626,1.121s1.839,3.566,2.813,3.158,2.38-1.019,2.6-1.732a9.725,9.725,0,0,0-.216-3.056c-.216-1.324-.649-3.668-1.623-4.584s1.731-1.324,1.3-1.732-.325-1.223,1.515-1.528,1.947,0,2.921-.509,1.19-2.954,1.3-3.769a6.511,6.511,0,0,0-.757-3.464,28.624,28.624,0,0,0-2.813-3.464c-.649-.509-1.515-.611.325-2.139s.757-1.223.433-1.63a11.186,11.186,0,0,1-.974-2.649c-.325-1.019.757-2.139.108-3.566s-1.3-1.121-1.19-1.426,4.219-.2,7.248,0a27.923,27.923,0,0,0,5.085-.2,12.1,12.1,0,0,1,4.111,1.324c1.731.713,2.38.509,3.246,1.426a3.464,3.464,0,0,0,3.137,1.324,14.531,14.531,0,0,1,3.678.509,1.884,1.884,0,0,0-1.082,2.038,17.563,17.563,0,0,1-.216,3.362c0,.611.541.713,1.3.713s3.029,1.426,5.3,1.936,2.921.407,3.678-.815.866-1.121,1.839-1.223,1.19.1,1.623-.1-.649-.815-.433-1.63a5.744,5.744,0,0,1,2.6-2.649c1.082-.611,1.731.611,2.7,1.834s4.111,4.992,4.977,6.316,2.056,1.324.974,2.547-1.623,1.732.108,2.241,3.246,1.426,3.029,2.343-.541.917.108,1.121,2.6-.509,4.111,0a16.782,16.782,0,0,1,4.327,1.528c1.082.713.974.917-.541,1.324-1.3.306-2.488.611-3.678,1.019-.757.306-1.947.917-1.839,1.324s-.325,1.223.866.611a17.264,17.264,0,0,1,4.436-1.426c1.406-.306.325,0,1.623-.1s2.488.408,4.219.713,1.3,1.019.865,1.732-.865,1.324-.108,2.038-.325,1.426-1.839,2.343-2.6,1.019-5.085,1.223-3.678,1.223-5.409,2.241-2.6.815-5.085.917-1.515-.815-2.272-.611a17.944,17.944,0,0,1-3.354.917c-1.623.1-7.032.2-9.088.611s-1.406,1.324-1.947,2.139-1.3.408-2.921.815-3.462,1.936-5.193,3.973a15.116,15.116,0,0,1-4.327,3.362,16.93,16.93,0,0,0,4.327-2.139c1.19-1.019,6.491-3.464,8.114-4.177s5.085-1.834,5.842-1.732,2.813,1.222,2.813,1.732-.649,1.019-2.056,1.936-3.462,0-3.246.408a4.084,4.084,0,0,0,2.272,1.426,1.327,1.327,0,0,1,1.082,1.528c0,.408-.649,1.019,1.947,2.547a10.379,10.379,0,0,0,6.275,1.426c1.947-.1.865.408,1.731.408s.974-1.019,1.19-1.834a3.206,3.206,0,0,1,1.406-1.936c.649-.306,1.19-1.019,1.406.2a3.592,3.592,0,0,1-1.731,3.362c-.974.407-.757.917-.757,1.223s-1.082.407-3.786,1.426-3.57,1.223-4,1.121a4.86,4.86,0,0,0-2.813.917c-1.3.815-2.7,1.834-3.678,1.834s-1.731-.306-.433-1.223,1.731-2.139,3.029-2.547a9.87,9.87,0,0,1,3.029-.407c1.082,0,.541-.408,1.406-.917s-.649-.306-2.164-.407-.325-1.019-.325-1.019l-1.515.509-2.921.917c-.649,0-.433.306-.649.509a16.725,16.725,0,0,1-2.38.306,4.517,4.517,0,0,1-2.813,1.732c-1.623.2-.541.1-1.731.509s-.974-.407-1.3-.2A10.816,10.816,0,0,1,317.2,194.1a4.776,4.776,0,0,0-3.029,3.362c-.865,2.445.216,3.362.108,3.668s-1.731-.2-2.164,0a7.615,7.615,0,0,1-3.029,1.528c-1.406.306-4.219.713-4.868,1.223s-.649,1.121-.974,2.038a19.358,19.358,0,0,1-1.947,3.158,1.193,1.193,0,0,0-.757-1.528c-1.19-.611-.974-1.222-.974-1.222a3.532,3.532,0,0,0,.108,1.834c.433.917,1.3,1.834.865,2.853a4.832,4.832,0,0,1-2.056,2.547c-.865.408.216-.713.216-1.426s-.649-.917-.974-1.223-.433-1.426.325-2.853-.649-.509-1.406.408-1.3,2.649-.108,3.668-.757,1.019,0,2.547-.974,2.343-.649,2.649,1.3-.1,1.731.713-.866.407-1.3.611-.216.509,0,.917.757.2.541.306a5.629,5.629,0,0,1-1.947.917c-1.082.2-1.19-.1-1.947.408s-1.19,1.019-1.947,1.63-1.3.408-2.056.815-1.082.815-2.056,1.324a27.884,27.884,0,0,0-4.219,2.445c-1.19,1.019-.866,1.324-1.406,3.056s1.406,4.686,2.7,7.437,1.731,2.038,1.623,2.954a4.11,4.11,0,0,1-1.623,2.547c-.866.611-1.406-.407-2.7-1.019s-.216-1.019-1.515-2.343a3.713,3.713,0,0,1-1.3-2.649,9.9,9.9,0,0,0-.974-3.362,3.854,3.854,0,0,0-4.111-1.834c-2.056.509-1.515.306-2.7,0s-4.111-1.019-5.626-.509-6.275-.2-7.357,0-1.731.2-1.731.713-.433.509,1.3.815,1.515.713,1.406,1.223-1.406-.306-2.164-.407-1.3.407-2.6.407-1.406-.815-2.488-.917a11.3,11.3,0,0,1-2.6-.306,14.655,14.655,0,0,0-3.678-.713c-1.19.1-5.842,2.139-8.114,3.26s-3.895,2.139-4.436,3.056-.541.917,1.19,2.241.974,1.121.649,1.834-1.406,1.63-2.6,3.566-.541,2.853.974,4.686a16.41,16.41,0,0,0,4.111,3.973,12.191,12.191,0,0,0,3.137,1.936,5.132,5.132,0,0,1,1.731.713c.433.306.325.509,1.947.2a27.505,27.505,0,0,1,4-.713,7.258,7.258,0,0,1,2.921.408c.649.408.757.2.757,0l.649-1.223a9.644,9.644,0,0,0,1.947-2.547c.216-.815.216-2.445,1.731-2.547a64.826,64.826,0,0,1,7.681-.509c2.921.1,1.623,1.121.865,2.139s-1.082,1.121-1.082,1.936.325.815-.649,1.222-.325-.306-.757.2a4.3,4.3,0,0,1-1.623,1.019c.108-.1.649.815.649,1.223s-.108.611-.108,1.732-3.029,2.139-3.029,2.139a8.526,8.526,0,0,0,2.813.408,18.366,18.366,0,0,1,5.3.509c1.731.509,4.977-.408,7.465.408s1.515,1.324,1.731,2.038a24.607,24.607,0,0,1,.325,3.973c-.216.611-1.3,2.241-1.947,3.464s1.731,2.038,3.895,3.056a21.851,21.851,0,0,0,5.193,1.63c1.082.2,3.137-1.121,7.032-1.019s5.085,2.343,5.085,2.343a9.321,9.321,0,0,1,2.164-3.158c1.731-1.834,1.839-2.343,4.111-2.954s3.137-.713,6.924-1.528,3.137-.2,5.085-.1a81.047,81.047,0,0,1,11.143,1.324c4.544.917,11.576,1.223,14.281,1.936s3.895,2.853,6.6,4.584,6.275,3.26,7.681,4.075,9.629,1.528,11.468,2.038,4.327,2.445,4.436,3.668,1.947,1.732,4.436,2.445,3.246,1.528,4.977,3.668,1.082,2.751,3.354,3.26,17.851,3.362,21.637,4.381,8.763,3.769,10.169,4.075,3.678-.306,4.652.1-.649,2.445.649,3.871,1.406,1.528.649,2.649-3.895,3.668-5.085,4.992-3.786,2.139-5.3,2.649-2.813,0-1.515,1.121.108,2.038-1.082,2.954.108.815-.216,3.973,0,6.52-.541,7.844-3.57-1.223-7.032,1.732-4.436,5.094-6.491,5.4a35.09,35.09,0,0,0-8.547,2.954,8.178,8.178,0,0,0-3.029,2.954c-1.082,1.528-2.056,4.584-3.246,6.52s-2.921,2.954-7.032,5.5-5.95,5.094-8.655,7.131a28.227,28.227,0,0,1-2.6,1.936c-1.406,1.019-7.357-1.528-5.842-.1,1.082,1.019-.649,0,.325.917s1.623,1.324-.433,3.056-4.436,1.426-6.058,1.63-4.111-1.121-4.219-.407a4.553,4.553,0,0,1-2.38,2.853c-1.3.407-4.76,1.121-4.652,1.324,1.623,5.094,4.977,5.6,1.406,5.4-9.737-.611-2.813-2.139-9.52,7.335-1.082,1.426-2.056.713-1.947,2.445s0,3.056,1.406,4.075.433,1.019-1.947,2.445-2.488,1.223-4.652,3.464-4.219,2.139-3.462,3.769.974,4.177,2.272,6.622,4,2.038,8.222,3.769,4.76.815,6.816,1.223-1.515.509-5.193,1.019-6.167.917-8.763.509a58.048,58.048,0,0,1-10.819-3.769c-2.056-1.019-5.409-2.853-6.6-4.584s-2.056-3.566-3.678-6.011-.433-3.973.216-9.271,1.19-9.474,2.38-12.327,4.544-15.587,5.518-18.847,5.409-16.606,5.734-18.745a28.026,28.026,0,0,1,1.3-5.807c.649-2.139.216-6.316.216-6.622s-.216-.408-1.19-2.343-2.488-2.853-4.652-3.668-4.436-1.936-6.167-2.751a27.015,27.015,0,0,1-5.518-3.362c-1.731-1.426-3.354-4.381-4.219-5.6a75.384,75.384,0,0,0-7.032-8.354c-2.921-2.954-3.137-2.954-4.544-6.011s1.3-3.158,1.839-4.89,2.272-3.464,4.111-5.909c1.947-2.445,4.436-3.158,5.842-5.3s.325-2.139-.216-4.279.216-1.732-.757-2.954-1.515-2.547-2.272-2.954a3.279,3.279,0,0,0-2.921-.1c-.757.611-2.164,2.343-3.029,2.445s-1.19-.509-1.731-.917-3.029-.407-3.57-.713a20.7,20.7,0,0,0-2.7-.713,54.725,54.725,0,0,1-5.193-2.038,4.349,4.349,0,0,1-2.164-3.26c0-1.426-1.839-1.936-5.842-3.871s-5.842-2.241-10.71-3.056-6.924-3.158-8.547-3.769-1.515-1.324-5.085-1.121S230,260.012,227.19,259.3s-7.681-1.324-9.737-2.241-5.734-1.223-7.248-3.464-1.3-1.324-.649-3.26-3.57-3.566-6.058-5.4-4.436-2.139-5.734-4.381-3.137-2.139-5.734-3.769-2.272-3.362-3.354-5.2-7.9-4.483-7.9-4.483,1.839,3.056,2.6,4.279a44.651,44.651,0,0,0,4.652,6.418c2.056,2.241,3.895,2.751,5.842,4.992s.108,3.566-.649,2.649-3.462-1.223-3.462-2.241a3.7,3.7,0,0,0-1.3-2.445c-.649-.815-3.246-1.732-5.842-3.158s-4.436-2.038-2.813-2.038,4,1.019,3.57.407-3.354-2.649-4.76-4.075-1.839-2.954-3.246-5.3-6.491-4.584-8.979-4.788-3.246-.917-4-2.649-1.082-3.566-2.164-4.89-5.95-5.909-6.058-7.539-1.515-6.724.216-9.576,1.3-9.067,1.082-10.289-3.354-3.566-3.354-4.483,1.839-.407,3.137-.1,4.327,1.121,4.327,1.121a30.288,30.288,0,0,0-3.57-3.769,23.34,23.34,0,0,0-7.248-2.445c-1.839-.306-4.111-.713-5.085-1.732s-1.947-2.343-2.7-3.26-3.57-1.936-4.327-2.853-.541-2.649-1.515-3.566a4.193,4.193,0,0,0-3.895-1.121c-1.515.408-2.056-.509-3.246-1.936s-3.895-2.038-4.652-2.139a10.373,10.373,0,0,1-3.57-3.158c-.216-.611-4.436-3.668-5.734-4.381s-14.822-3.566-15.146-3.566a46.114,46.114,0,0,1-5.3.2c-1.082-.2-4.544-2.241-6.383-2.649a3.567,3.567,0,0,0-4,1.834c-.865,1.324-5.085,3.668-7.465,4.686s-4.219,1.121-4.111.611a7.673,7.673,0,0,1,.865-2.649c.757-1.324,1.19-1.63,3.57-2.445s2.38-.815,1.406-.815-1.623-.1.216-.815,2.7-.917,2.6-1.528-4.111.917-6.708,2.241a19.665,19.665,0,0,0-6.383,4.89c-2.272,2.445.216,1.528-1.623,3.158s-8.439,4.89-10.278,6.113S45.546,166.286,42.3,167s-4.436.917-6.058,1.732-5.409,1.121-4.111.509,3.678-1.936,5.3-2.547,6.058-1.834,7.357-2.139A24.153,24.153,0,0,0,51.6,161.4a31.872,31.872,0,0,0,4.219-4.177c1.19-1.324,1.515-1.936-1.082-1.324a16.817,16.817,0,0,1-6.383,0c-1.3-.306-4.652,1.019-5.842.407s.108-1.834-.649-2.445-3.462-.2-5.193-.408-4.111-1.121-4.111-2.751-1.731-3.056-.757-4.279,2.38-1.528,3.895-2.241a30.611,30.611,0,0,1,6.708-1.63,5.258,5.258,0,0,0,2.813-1.121c.757-.509-1.839-2.445-1.839-2.445s.433-.2,1.515-.611.216-1.324-1.515-1.223-5.734,1.426-8.114,1.834-5.734.2-5.626-.509.649-1.121-.216-1.63-1.515-1.121-.649-1.426,6.275-2.853,6.275-2.853a9.037,9.037,0,0,0,4,1.528c2.056.2,6.491-2.445,6.491-2.445-2.813-1.121-2.164-1.426-2.164-1.426a32.711,32.711,0,0,1-5.517-.509,2.9,2.9,0,0,1-1.623-2.038c-.216-.713-4.652-1.324-3.462-2.547s3.462-1.63,4.868-2.954c1.515-1.223,2.813-3.566,7.032-4.89s9.3-2.445,11.576-3.566,3.246,0,4.111.1,6.275-.1,8.33-.1,2.38,1.528,3.137,1.936,18.933.713,18.933.713,15.471.2,18.608.713,8.763,2.139,8.763,2.139C121.384,119.117,121.06,116.367,123.223,116.367ZM330.941,53.815s-1.515,4.279-7.789,5.5S305.517,63.9,304.976,64.1s.649,2.547,2.272,3.769,3.029,1.936,4.436,3.158,3.786,1.121,5.734,2.241,3.246.815,8.439.815,3.787.306,9.629.509,11.9.509,13.848,1.732,4.868,5.807,6.6,8.659,4.977,7.437,4.977,7.844-1.947,3.769-1.947,4.381,1.082,1.426,1.947,2.241c.865.713.433,1.324.216,2.038s1.082,2.445,1.19,2.751c.108.2,2.7-1.732,4.436-2.038s5.734,1.936,5.734,3.464c0,3.566,1.406,2.343-7.14,6.52-1.082.611-2.272,4.788-1.406,6.826s2.921,4.483,4.544,7.335,6.491,7.029,8.006,8.863,1.947,4.483,5.409,5.094,6.708,1.426,9.2,1.732,4.111.917,5.409-.611,3.678-7.437,5.626-11.818-.216-5.6,4.436-6.52,12.117-2.954,14.064-3.464,1.623-4.89,6.058-6.214a72.508,72.508,0,0,1,9.3-2.241,74.839,74.839,0,0,0,14.713-4.788c4.327-2.038,5.517-1.019,7.032-2.853s-1.515-4.686-1.947-7.437c-.325-2.853,1.406-2.954,2.272-5.5s1.3-4.177,4.652-5.909,5.193-2.649,4.544-4.279-2.272-4.075-2.272-5.807.649-.713-.757-3.26-1.406-2.853-.108-5.094,4.76-1.732,4.544-2.751-5.517-2.547-5.626-5.4.974-3.668,1.839-4.381,9.629-5.4,10.278-5.807-.216-1.63,4.111-3.056,5.842-2.343,7.465-2.751,4.219-.408-.757-1.324-6.167-1.426-9.412-1.121-4.436,1.528-10.278,1.834a74.017,74.017,0,0,0-12.441,2.241s1.947-1.223.216-2.343,4.544-4.89,5.517-5.3-8.114-1.936-12.874-2.547S432.636,31.1,427.227,31.3s-13.2.2-15.9.815-2.272,2.954-5.409,3.056-8.655-1.223-12.982-.815S381.68,36.8,380.923,36.9s2.7,1.528,4.977,1.834,5.193,3.464,5.193,3.464-6.058-1.324-12.225-2.445-13.307,0-15.8.509a55.306,55.306,0,0,1-10.819,1.528c-4.977.2-10.71,2.853-13.523,4.177s-11.792,4.686-13.956,5.6-1.406,1.223,1.082,1.63,5.085.611,5.085.611ZM202.957,98.335c.649,1.936.649,4.788-.974,3.566s-2.921-3.668-5.518-2.649-5.409.713-4.977.509-.108-1.324-1.406-1.63-2.164.2-3.462.713-5.734,1.222-4,.306,1.19-1.426.541-2.547-5.193.713-7.573,1.936-3.895,2.954-5.3,4.075c-1.406,1.223-.433,1.936,1.731,2.343s5.734.713,2.813,1.426-5.193,1.223-3.678,1.834a16.524,16.524,0,0,0,6.708.509,29.527,29.527,0,0,1,8.979.1,36.326,36.326,0,0,0,6.6.713,20.5,20.5,0,0,1-4.327,1.019c-2.813.306-7.789,0-10.386.306s-6.708.815-5.626,1.426a12.927,12.927,0,0,0,5.409,2.445c3.57.713,4.219,0,6.383.408s.974,1.936,1.515,2.241,4.652-.2,8.655-.713,2.488-.917,5.734-1.426,3.246-2.139,5.085-2.547.541.815,2.7,1.223c2.164.306.974.509,3.354.713s1.947.815,4.219.713,4.977-1.121,4.652-1.324a1,1,0,0,1-.433-1.324c.216-.713-2.272.1-3.246.509-.974.306-.865-1.019,1.082-1.63s3.678,0,4.868,0,.108-2.241-1.947-2.547-3.029-1.223-6.058-2.343c-3.137-1.121-1.515-1.63-2.38-3.158s-2.921-6.011-4.652-6.724c-1.731-.815-3.57-.611-5.3-1.324A3.753,3.753,0,0,0,202.957,98.335Zm-47.818-3.056c.757,1.426.865.509-.649,2.139s-.649,2.139-1.623,3.362c-1.082,1.223-3.787,2.751-2.921,3.566s3.678,1.223,4.76,1.834c1.19.611,2.272,1.834,4.327,1.426a22.4,22.4,0,0,0,4.219-1.324c1.406-.509,2.6-1.121,2.6-2.343s-.108-1.834.433-1.732,1.515.713,1.947-.1a7.474,7.474,0,0,1,2.272-2.547c.974-.611,3.787-1.324,5.085-2.038a35.167,35.167,0,0,0,4.219-2.241c.649-.611-1.19-1.121-2.272-1.426s-2.38-1.426-4.868-1.426-3.895,1.324-3.787.713-1.731-.815-2.813-1.121a13.385,13.385,0,0,0-5.3-.408,42.66,42.66,0,0,0-7.248.917c-2.272.408.866,1.324,1.623,2.751ZM230.111,112.5c-.974.408-1.839.815-2.813,1.324-.974.713,1.947.306,2.921.509s1.623.815,2.38,1.019a17.443,17.443,0,0,0,6.491-.306c1.623-.509,1.839-.713,1.623-.917a27.216,27.216,0,0,0-5.842-3.26c-2.38-.815-2.488-.917-3.029-.713-.433.306-1.406,2.038-1.731,2.343Zm-10.927-16.81c-1.515.509-2.7,1.121,0,2.038a49.364,49.364,0,0,1,5.3,2.445c1.731.713,2.488,2.954,6.275,1.936s5.3-2.139,5.734-3.158c.541-1.019-.541-1.223-1.406-2.139a2.912,2.912,0,0,0-3.029-1.223c-1.947.1-2.6.1-2.6.1a10.38,10.38,0,0,1,3.354-1.732c2.056-.713.325-1.121,1.3-1.834s-2.488-1.019-4-.713-1.515-.1-4-.1-6.383,1.426-6.275,1.936,2.056.306,3.787,1.019,2.272.611.541,2.445-2.6-.408-3.246-.713S220.807,95.177,219.185,95.686Zm-11.035-3.26c-2.6.2-3.462,1.324-2.488,1.528s1.623-.2,3.137.917,2.921,1.732,3.57-.1-.216-2.649-4.219-2.343ZM166.606,78.469c-2.921,1.528-3.462,2.751-5.734,3.769s-1.731,1.834-.974,2.343,3.029,0,4-.408c1.082-.408,1.947-1.223,2.488-.713s3.246-1.834,4.327-2.649a10.087,10.087,0,0,1,2.921-1.63c.325,0-.974.917-.541,1.732s2.488.815,4.327-.509.216-2.445,1.623-3.464,2.6-.815-.216-1.732a5.282,5.282,0,0,0-5.193.611C173.206,76.228,172.232,75.514,166.606,78.469Zm17.526,2.445a17.313,17.313,0,0,0-5.085,1.019,7.263,7.263,0,0,0-4.436,3.973c-.649,1.121.325,1.121,2.813,1.732s5.95-.2,6.708-1.732,1.839.408,1.3,1.121,1.731.1,2.813-.306a20.907,20.907,0,0,1,4.327-.509,18.853,18.853,0,0,1-5.193,2.038,54.379,54.379,0,0,1-5.626,1.019c-.757.1.649.815,3.895,1.223s5.085-1.324,9.629-2.445,4.327-1.324,5.842-1.019,3.137-.509,4.977-.815,2.6.2,3.354-1.63,2.272-3.566-.325-3.668-2.813-.1-3.137,1.834-.541.713-.541.713-1.731-1.732-2.813-2.649-1.731-2.343-2.921-3.056-1.731.306-3.462,1.63-.325,1.834,1.406,2.445,3.029,2.038,2.164,2.445-1.839-.1-5.085.2-3.137-.713-4.111-1.019,1.515-.917-1.947-1.834-3.354-.713-4.544-.713Zm-10.71,1.936c.325-.408-4.327,1.834-5.085,2.649s.757.611,2.164.611S172.232,84.174,173.422,82.85Zm9.2-4.788c-1.19.306-1.19.611.757.815s3.029-.408,2.6-1.019S183.483,77.756,182.618,78.061Zm9.737-6.826c-1.3.1-4.977,1.019-5.193,1.426a2.68,2.68,0,0,0,.649,2.139c.541.713.757.815,4,.306s5.409-1.732,4.327-1.834-1.731-.509-2.7-.611.865-.408,2.921-.917,2.921-1.223-4-.509Zm-10.819,1.121c-.865.306-1.19.306.649.815s3.895.408,3.678.1a4.051,4.051,0,0,0-4.327-.917Zm7.357-3.464a4.477,4.477,0,0,0-2.6,1.732c-.433.306,2.056-.2,3.137-.408s1.406.306,2.488-.408,3.246,0,5.193-.306,2.272-1.121,1.839-1.936S194.085,67.466,188.893,68.893Zm19.474,3.158c-.541.2-.325.713.108,1.426s.541.509,1.515.713a8.053,8.053,0,0,1,2.164.917c.216.2.433.2.757-.408s-.216-.509-1.3-1.426-1.839-1.63-3.246-1.223Zm6.708,5.705a4.2,4.2,0,0,0-2.921.509c-.541.2.325.611.649,1.324s.108,1.019,2.272,1.121,2.813-.2,3.029-1.121-1.623-1.63-3.029-1.834Zm8.547,1.63c-1.406-.713-2.056-1.223-3.354-.815s-.216.815-.216,1.121,1.623,0,1.731.611.541.815-1.515.917-2.6,0-3.354.408,1.515-.1,2.164.509,1.839.713,3.787.509,4.544-.509,4.544-.509a7,7,0,0,0-1.947,1.528c-.541.611-.865,1.528.216,1.936s1.082-.509,3.895-.509,3.678-1.019,3.678-1.019a1.289,1.289,0,0,1-.541-1.324,1.966,1.966,0,0,0,0-1.121c.433.2.974.509,1.406.713,0,0-.216-.611-.649-1.528s-.108-1.121-.541-2.445-.325-1.63-2.488-1.63-3.57.509-5.3.509-2.488.2-1.19.611A4.862,4.862,0,0,1,226,79.284a2.065,2.065,0,0,1,.541,1.63Zm-10.6,5.094h0a1.66,1.66,0,0,0-1.3,1.426c-.108.509,1.19.2,3.137-.2S215.831,83.97,213.018,84.48Zm27.263-2.445a14.642,14.642,0,0,0-3.787,2.038c-.974.713-.108.815,2.272,1.63s4.977,1.019,6.058.1-.541-5.2-4.544-3.769Zm11.143-6.214c-3.029.2-2.164.509-5.626-.306a40.126,40.126,0,0,0-9.2-.815c-1.19,0-.649.408.649,1.732s1.623,1.834,4.219,1.426,4.76-.713,6.6,1.121,2.921,2.445,1.3,3.056-.866,1.732.108,3.158,3.029,1.324,5.842,1.324,21.2-.2,24.126-.509,5.409-1.936,6.924-2.751,2.272-1.834.216-2.649a22.015,22.015,0,0,0-7.357-1.63c-2.272,0-4.327.815-7.9,1.019s-2.813,1.426-5.95,1.426-1.623,1.019-5.626-.1-6.816-2.445-4.977-2.649,3.354-.306,2.272-.917-2.813-2.139-5.626-1.936ZM214.749,65.734c1.947.408,2.38.713.216,1.121s-3.787,1.324-1.623,1.223a35.325,35.325,0,0,1,6.6.408c2.7.306,2.488.1,3.678,1.121s2.488,1.019,4.327.713,2.164-.408.865-1.324-2.488-2.547-4.111-3.158-3.029-1.528-4.652-1.426a3.36,3.36,0,0,1-3.462-1.121c-1.406-1.324-2.6-.713-4.652-.306a8.29,8.29,0,0,0-3.57,1.834c-1.406.917,4.436.611,6.383.917ZM239.632,52.49c-2.272,1.834-4.111,3.464-1.515,3.668s3.678-.1,3.895.408-.433.917-4.219.917-2.6.611-.541,2.241,2.38,1.121,5.518,1.019,4.327-.815,7.032-.408,3.462.917,1.082,1.426-8.114,1.528-6.816,2.343,5.3,2.751,7.14,2.954,2.164-.815,6.167-.509,3.029.611,3.354-.2,2.6-2.547,3.029-3.26,1.515-1.121,3.678-1.426,2.813-.815.865-1.223-4.327-.713-4.111-1.019,1.515-1.528.649-2.038-2.272-.509-3.354-.815-2.38-1.63-3.787-2.241-2.7-.611-4.436-1.528-4.436-3.056-7.9-2.954c-2.488,0-3.462.917-5.734,2.649ZM235.2,68.281c-.865.306-3.029.306-1.406,1.223s1.19.917,3.137.408a19.1,19.1,0,0,0,5.193-2.139c.216-.408-2.056-1.121-3.57-1.426s-2.6-1.121-5.842-1.732c-4.652-.815,3.354,3.464,2.488,3.668Zm105.7-28.016c-3.57-.611-16.336-2.343-20.555-1.63s-3.895-1.426-9.737-.917-14.605.2-17.418.509,1.406,1.121,2.921,1.732-7.14-.713-13.74.509-10.819,1.834-3.787,3.668,7.9,2.343,7.9,2.343-8.979-1.121-12.766-2.038-1.731-.917-8.871.408-14.064,2.038-13.74,3.566,5.734,3.362,9.3,3.871,10.927-.713,11.576-.815-2.921,1.936-2.921,1.936,3.678-.509,7.789-1.223S284.2,50.657,288.1,49.74a39.17,39.17,0,0,0,4.652-1.223,65.88,65.88,0,0,1-11.468,4.788,68.683,68.683,0,0,1-13.74,2.038c-2.921.1-2.38,1.324.433,2.343s5.085,3.158,6.6,3.871a2.956,2.956,0,0,1,1.731,1.834,10.887,10.887,0,0,0-9.412,0c-4.977,2.343-4.219,3.566-3.029,3.871s5.626.611,6.491,1.63,6.6-.917,6.6-.917-2.921,2.547-5.734,2.547-2.6-1.63-6.708-1.324-3.786.917-2.056,1.834,3.137,1.223.108,2.139-4.327,1.223-4.436,2.343,3.895,1.121,6.491,1.121,4.977-.2,9.52-.2,4-1.121,5.734-1.121,3.462.306,2.813,1.528.649.408,5.734-.815,2.813-3.056,2.38-3.769-2.164-.815-3.354-1.223,3.462-3.566,2.813-4.584,5.626-.2,8.547-2.751,1.839-4.381-.216-4.788,3.787-.1,5.626-.815,5.842-1.63,7.465-2.954,2.164-1.834-1.731-1.63,5.626-1.121,10.278-3.158,9.953-4.381,11.035-4.992,2.164-.306-3.246-.1-11.9-.306-8.33-.611,14.172-1.121,16.985-2.547q2.272-.917,4.219-1.834ZM276.415,90.083c-5.734-.306-14.172-1.324-15.9,2.038a81.18,81.18,0,0,0-4.544,12.021c-.216,1.324,6.924,3.362,11.9,3.464s12.982.306,11.36-.408c-1.623-.815-.216-1.223,4.436-1.121s5.085-.611,5.085-1.324.865.815,4,1.936c3.246,1.121,5.95,4.381,8.871,6.214s9.3,4.381,8.114,5.807,1.406,6.52-8.547,7.641-10.494.408-10.386,1.834.541,2.139,4.436,2.139,9.3-2.139,11.143-.611a13.972,13.972,0,0,0,5.95,2.547c1.623.408-1.947,1.019-2.921,1.223s1.947.407,7.573,2.241,12.441,2.038,9.088.713-4.977-3.668-6.491-4.483-.108-.1,2.6.306a19.1,19.1,0,0,1,6.167,2.547c1.19.611,1.731-.2,2.488-2.751s-.325-2.547-4.868-4.483-5.842-3.566-6.383-4.992,2.272-1.732,3.462-2.751,4.327,1.834,6.6,3.464,4,4.483,5.734,2.445a20.526,20.526,0,0,0,3.354-7.844c0-1.019-1.731.1-9.088-2.343s-11.143-3.362-11.9-3.362,1.947-.917,5.193-2.038,4.652-.917-2.272-5.3-8.871-5.3-13.415-5.6-5.734-3.464-8.979-4.483-10.71,1.324-12.874,1.63c-2.164.408-1.515.917-4.219-1.732-2.6-2.547-4.76-4.483-4.76-4.584Zm5.193,0c-2.813.2,1.731,3.769,5.409,3.871a24.022,24.022,0,0,0,7.573-1.223c.866-.1-8.547-2.853-12.982-2.649Zm-12.982,35.657a13.135,13.135,0,0,0-1.839,4.381,5.285,5.285,0,0,1-.974,2.547c-.433.917,1.406-.2,2.6,1.223s.649,1.732,2.813.2a8.754,8.754,0,0,1,7.573-1.426c3.029.611,5.409.917,4.327-.306s-2.38-1.121-4.436-2.853a13.326,13.326,0,0,0-6.275-2.751c-2.38-.611-2.7-2.649-3.787-1.019Zm21.745,125.919c-.866-1.223-2.272-3.26-7.9-3.973s-7.465.713-9.52,1.121,1.947.713,4.652,0a7.2,7.2,0,0,1,5.085.2c.433.306-.865.509-1.406.2s-.541.815,2.488,1.528,3.786,1.019,4,1.936a3.991,3.991,0,0,0,.974,2.037c.649.713.974,1.019-.325,1.324s-.866.306.108.611a14.257,14.257,0,0,0,5.409,1.121c2.6.1,3.462.509,1.731-1.121s-4.977-4.584-5.3-4.992Zm8.439,7.844a2.25,2.25,0,0,1,.974,2.649c-.108.611-1.623.1-4.544-.408s-2.488-.306.108.611,4.111.713,4,1.936,2.272.1,3.354-.611.974-.1,5.409.408,5.409,1.019,4.652-.306,2.056-1.223-1.947-2.445-13.74-2.954-12.009-1.834Zm-12.766.713c-1.731-1.223-3.787-1.426-3.787-.408s.541,1.019,2.164,1.324,2.7-.1,1.623-.917Zm32.456,5.4c-1.839-.408-2.164.509-.974,1.324s3.137.509,4.868.407-.757-.917-3.895-1.732ZM297.511,115.348c-2.38.713-3.895,1.121-1.731,3.056s3.354,3.056,4.219,1.63S301.623,114.227,297.511,115.348Zm-19.474,19.968c-3.678.408-4.868.408-4.219,1.834s1.515,1.121,4,.306,4.219-2.547.216-2.139Zm7.573,2.038c-.649.1-.865,1.121,0,1.936s2.38-.306,3.029-1.324-.649-1.019-3.029-.611ZM245.8,71.134c-3.462.1-8.655.917-5.734.917s5.193.408,9.953.306,5.085-.408,5.193-1.936S252.181,70.93,245.8,71.134ZM224.161,58.4c-3.57.713-2.6,1.223,1.515,2.445s4.219.611,3.787-1.63-3.137-1.223-5.3-.815Zm246.232,60.107c-4.327.815-5.842.306-6.6,1.834s-2.488.713-3.57.917-2.38,4.279-3.029,3.668a13.407,13.407,0,0,1-1.947-2.343c-.974-1.426.325-1.121-1.623-2.649s-5.734-1.324-5.95-.713,2.6,1.121,1.623,1.834-3.354,1.528-4.219,2.038,1.731.306,3.354,0a3.789,3.789,0,0,1,3.462,1.63c.649.815-.757,1.528-1.515,1.834s2.38.306,3.57.408,1.839.815,1.082,1.834,3.678.1,6.167,0,3.137,1.121,6.924.408,5.517-.713,8.979-2.445,3.137-1.324,5.409-2.445,1.731-1.426,1.839-2.649,1.515.306.974-1.528-3.354-1.324-5.3-1.426-1.947-1.223-2.921-1.528-2.272.509-6.708,1.324Zm291.67,158.213a3.932,3.932,0,0,0-.433,1.936,26.976,26.976,0,0,0-.108,2.954c.108,1.019.216,1.63.974,1.834a4.1,4.1,0,0,0,2.7,0c1.3-.408,2.6-1.121,1.947-2.241a26.708,26.708,0,0,0-2.6-3.464c-.757-.713-2.164-1.834-2.488-1.019Zm-1.082-1.324c.108.407.325.306.649.611s.649,0,.216-.306-.325-.408-.325-.408-.649-.1-.541.1m124.306,57.356-.108.1c-2.38,1.63-4.544,1.121-8.547,2.037s-11.36,3.668-11.9,4.89,0,1.426-.541,1.223a4.132,4.132,0,0,1-1.406-.917,3.926,3.926,0,0,0-.865,2.853c.216,1.324,1.19,2.139,1.082,3.871s-1.082,2.751-.974,3.973,3.029,3.464,3.787,4.89,1.3,1.019,1.731,3.566,2.38,3.973.433,5.3-3.462,1.121-1.082,2.445,4.436,2.343,8.33,1.426,2.813-1.732,5.842-2.139,3.57-.815,6.275-1.019,4.436,0,5.409-1.223.216-1.223,2.813-2.038,2.38-1.121,4.111-1.324,2.813.611,5.193-.611.649-1.324,5.734-1.324a34.351,34.351,0,0,1,9.2.917c1.947.407,4.977,1.528,5.734,2.343s1.839,1.834,2.164,1.834a3.382,3.382,0,0,0,1.947-.713,39.953,39.953,0,0,1,4.652-2.445,4.973,4.973,0,0,1-.974,2.343,2.248,2.248,0,0,0-.757,1.936c0,.306,1.947-1.019,2.272-1.019s.541,2.343.757,2.547,1.082.1,1.839.815a8.554,8.554,0,0,1,2.6,2.547c.757,1.324,4.111,2.649,6.167,2.954a24.02,24.02,0,0,0,5.409-.1c1.515-.1,1.623-1.426,3.246-.917s-.108,1.528,3.786,1.324a12.229,12.229,0,0,0,6.491-1.834c1.515-.713,1.731,1.019,3.678-.815s2.38-1.426,2.7-3.566.216-2.649,2.164-4.686,2.38-1.121,3.678-4.177,2.921-6.011,2.7-8.558.108-.917-.757-3.667-.216-2.547-3.029-3.668-3.462-.917-4.111-2.547.216-2.139-1.082-2.139-2.38.408-3.246-.713-.649-1.528-2.164-2.649-2.813-.917-5.518-1.63-1.3-1.019-1.3-2.445.108-2.853-1.947-3.566-.865.407-.865-1.936,0-1.936-1.731-2.343-2.272-.408-3.354-1.732c-1.082-1.528-2.164-3.056-3.029-4.584-.541-.917-1.19.1-1.839.815a5.765,5.765,0,0,0-1.623,3.566c0,1.426.866,2.139.866,4.075s-1.947,3.769-3.138,4.788-2.164.1-3.246-.2-1.3-1.324-3.462-2.038-6.275-1.324-8.114-2.445-.541-1.121,0-2.343a5.7,5.7,0,0,1,2.813-2.853c1.406-.713.974-1.019-.757-1.63a22.685,22.685,0,0,0-7.032-.713c-2.921,0-4.652-.1-4.544,1.019s1.947,1.528-.541,1.223-4.652-.509-5.734.306-1.3,1.223-1.947,2.954.216,1.834-.865,1.834-5.085-1.324-6.491-1.732a3.8,3.8,0,0,0-3.787.611,100.873,100.873,0,0,1-9.3,5.094c-1.839.306-1.731.2-3.895,4.585Zm-76.812-48.595c-1.19-.1-1.947-.306-.433,1.019a19.713,19.713,0,0,0,3.354,2.445c1.406.917,1.947-.611,3.029,1.121s.649,1.732,1.839,2.445,2.055.815,2.272,1.426a3.906,3.906,0,0,0,1.947,2.343,3.562,3.562,0,0,1,2.056,2.038c.757,1.426,1.947,2.445,2.488,3.566s3.895,2.343,5.517,3.769,4.544,3.566,4.977,2.954,1.623,0,2.488-.2,1.19-1.019,1.731-3.056a2.718,2.718,0,0,0-1.3-3.464c-.757-.509-2.272-.611-2.7-1.019s-1.082-1.936-2.056-2.343-1.19,0-1.19-1.121,1.19-1.019-.325-1.63a5.641,5.641,0,0,1-2.055-1.426c-.433-.306-3.57-.815-4.328-1.426s-4.219-1.63-5.842-2.649-3.354-1.936-3.895-2.751-2.272-1.528-7.573-2.037Zm33.538,23.228c-1.406,0-2.056-.509-3.029.611s-.757,1.121.649,1.121,1.19.509,1.082.611-.649-.1,2.272.713a10.346,10.346,0,0,0,5.842.2c.866-.306,1.082.713,5.085,1.121s6.167-.306,8.763.2,1.947-.2.108-1.121-1.623-.408-3.57-1.324-4.436-.917-5.626-1.121,1.082.815-2.6.509-2.38.2-4.327-.611-1.947-1.019-3.137-1.121-1.514.2-1.514.2Zm29.21,3.973c-1.082.2-3.137.611-2.164.917s.216.509,3.246.306,5.734-.407,6.058-.917-.541-.1-1.839-.407-1.19.2-2.921.306a6.665,6.665,0,0,1-2.38-.2Zm10.71-.2c-2.056.2-1.839.509-.216.815a12.392,12.392,0,0,0,4.327.2c1.19-.306,2.38-.509,3.678-.713,2.272-.2,3.029-.2,4.76-.408l1.839-.1s-.216-.2-1.406-.2-2.056.1-3.246.1-3.246.713-4.111.713a14.1,14.1,0,0,0-2.921-.2c-.433.2-.433-.407-2.7-.2Zm11.576,1.732h0c-1.515.611-1.623.815-1.406,1.324a.8.8,0,0,1-.108.713,9.059,9.059,0,0,0,3.678-1.121,5.8,5.8,0,0,1,3.246-1.426,15.185,15.185,0,0,0,3.462-1.63,12.03,12.03,0,0,1-2.7.1,7.166,7.166,0,0,0-3.246.713c-.433.407.433.509-2.921,1.324ZM881.5,313.5c-1.515-.713-2.921-.611-3.029-.2s-1.3.408.865.917,4.111,1.223,4,.509-1.19-.917-1.839-1.223Zm-13.848-29.952c-.865.815.866.611-.433,1.324s-2.272.407-3.462,1.426a18.91,18.91,0,0,1-4,2.241c-.757.408-3.462.815-4.544,1.936s.433,1.63.433,1.63a5.092,5.092,0,0,1-2.488-.306c-1.839-.509-1.947-1.019-1.947-1.019a2.221,2.221,0,0,0-2.056,1.324c-.757,1.324-1.19,1.426.216,2.241s-.866.815-.649,1.324.325,1.528,1.082,1.63.974-.509,1.947.306.216,3.158,1.406,3.26,2.164-.306,3.246.1a6.323,6.323,0,0,0,3.354.306,7.9,7.9,0,0,1,3.787.306,15.038,15.038,0,0,0,4.76.815c1.3-.1,1.515.1,1.839-1.121s.108-2.445,1.623-3.362,1.623-1.019,1.839-1.834a3.719,3.719,0,0,1,1.082-2.751c.974-.917,1.515.509,2.056-.2s1.082-.713.757-1.121c-.325-.306-1.839-.408-2.38-1.019s.216-1.019-.541-2.445-1.082-.917-.108-1.63,1.839-.917,1.947-1.528.541-.611,1.731-1.223-.216-.306-1.406-.917-3.246-2.751-4.652-2.751c-.757.1-3.462,2.241-4.436,3.056Zm170.285,76.2c-.541-.306-1.082-.1.216.917s1.406.713,2.164.713,1.515,2.038,1.947,2.547a12.721,12.721,0,0,0,1.3,1.121,7.762,7.762,0,0,1,0,3.158c-.433,1.019-1.3,1.426-1.515,2.343s1.3.611,2.38.917.865.306.433,1.121-1.623,1.121-1.623,1.324,2.38,1.019,3.57.1,3.137-2.445,3.57-3.464-.865-.611.757-1.324,1.406-.408,2.272-1.324,1.839-1.936.865-2.445-2.056.611-2.921.815a4.46,4.46,0,0,1-2.813-.1c-1.19-.408-1.406-.408-1.947-1.121a5.47,5.47,0,0,0-1.082-1.121s-.324,1.223-1.19.815-.649-.815-1.3-1.528a7.254,7.254,0,0,1-1.082-1.426c-.433-.509,0-1.426-2.055-1.63S1038.479,360.054,1037.938,359.748Zm.324,13.04a16.235,16.235,0,0,0-3.029,2.241,9.883,9.883,0,0,0-2.164,2.547c-.433.713-2.164,1.528-4.869,2.547s-3.786,1.324-4.76,2.241-4.219,3.668-4.652,4.075,1.515.611,3.57.611,5.193,1.223,6.924,0,3.462-4.279,4.544-5.3a19.364,19.364,0,0,1,3.895-2.547c1.731-1.019,4.652-2.954,4.652-3.769a4.3,4.3,0,0,0-.757-1.936,2.462,2.462,0,0,1-2.164.713,1.188,1.188,0,0,1-1.19-1.223Zm-13.523,13.855c-2.056-.713-2.38.611-2.7,2.038s.865.2,2.6-.408S1025.5,386.847,1024.739,386.644Zm-68.59-9.474c-2.272-.509-1.947.917-1.515,2.038a7.618,7.618,0,0,0,1.623,2.853c.866.917,4.111,1.223,5.409.815s2.164-1.732,3.462-2.954,1.839-2.649,1.623-3.464-1.839.713-2.921,1.019-2.38,1.121-4.328.815a21.6,21.6,0,0,1-3.354-1.121ZM927.48,300.151c-1.839.306-2.813-.815-4.219-2.853s-2.7-2.343-6.491-1.426-3.246.713-.649,1.324,2.921.917,3.246.917,4,.408,3.246.713-4.219.713-2.056,1.732,1.3.306,7.032,2.241,6.708.509,8.547,3.056,1.839,2.038.325,2.751-3.462,1.324-2.7,1.324,2.272.306,6.275.407.216,1.63,4.652,1.63,5.518-.917,7.249-2.343,2.055-.611,5.734-.1,4.977,2.751,9.52,3.566,6.6,2.037,3.678.2-3.895-3.056-7.789-5.2-4.111-2.343-5.3-3.871-5.193-3.464-9.737-4.686S941,298.113,935.7,297.2s-6.383,2.649-8.222,2.954Zm-30.292-7.131c-1.731.815-1.947.306-3.246-.2s-.974,1.121-3.787.2c-2.921-.917-4-1.324-7.032.2s-1.19,2.139-1.19,3.26-2.6,4.075-3.57,5.2-.974,1.528-.216,2.241,1.731.408,2.164.815,0,3.158-.541,4.075,1.19,1.121,3.029.815.216-.408.216-1.324.865-1.426.865-3.26V302.29a1.205,1.205,0,0,1,1.19.408c.649.611,1.623,2.343,2.38,3.26s1.623,1.528,2.813.917,2.38-1.324,2.38-1.324-2.38-.509-2.38-1.019.974-1.019-.649-2.751-2.488-1.834-.433-1.936,2.056-1.528,3.246-1.936a14.225,14.225,0,0,1,2.921-.306,4.5,4.5,0,0,0-3.029-.509,28.149,28.149,0,0,0-5.085,1.121c-1.623.611-2.921.917-3.246-.1a6.3,6.3,0,0,1-.325-2.853c.216-1.528,2.7-.407,4.652-.713s1.839-.306,5.95-.1,4.327-.408,5.626-1.528a11.047,11.047,0,0,0,1.947-2.445c-.108.1-2.921,1.63-4.652,2.547Zm9.737-3.973c.325-.407-3.029,1.528-3.57,1.936s0,1.019.433,1.528c.433.611.325,2.547.541,2.954s1.947.815,1.947.815a3.114,3.114,0,0,1,.541-1.936c.649-.611,0-1.324,0-2.445s-.974-1.63.108-2.853Zm-6.6,11.818c-2.7-.713-3.678-.2-3.678.713S896.322,303,899.135,303s6.058-.917,1.19-2.139Zm5.3-.611a1.944,1.944,0,0,0-.974,2.343c.325.815.866.306,2.272.1s1.3-1.019,3.137-1.019a26.875,26.875,0,0,1,5.734.917s.865-.611-2.164-1.936-4.436-1.222-8.006-.407Zm-52.687-45.64H849.91c-.433,0-1.3.713-1.947.917s-.649.611-.216,1.324,1.19.713,2.488,1.019.865-.408,1.839-.611a1.986,1.986,0,0,0,1.406-1.324,2.175,2.175,0,0,1,1.082-.917c.216-.1-.757-.815-.757-.815a1.667,1.667,0,0,0-.865.407Zm31.158,2.445c-1.082-.509-1.623,1.324-1.947,2.241s-.649,1.528-.108,2.241.325.917.325.917l-1.515-.713a7.267,7.267,0,0,0-.433,1.63c0,.713-.433,1.019,1.3,1.63s2.272.306,2.488,1.121.216,1.223,1.406,1.324a5.88,5.88,0,0,1,2.921,1.019c.433.509.216-1.324,1.082-1.223a4.084,4.084,0,0,1,2.272,1.426,1.957,1.957,0,0,0,1.406.611s-1.3-1.528-.757-1.63.757-.306-.757-.917a12.433,12.433,0,0,0-3.895-.611c-1.19-.1-1.19.509-2.056-1.019a3.077,3.077,0,0,1-.216-2.751c0-.306.649.509,1.3-.509a3.85,3.85,0,0,0,.757-2.853c-.108-1.019,1.082-1.426.216-1.426-1.19-.2-2.488-.306-3.786-.509Zm13.74,19.255c.216.713-1.082-.2-1.515.2s-.649.306-1.406.509a18.842,18.842,0,0,0-2.488,1.324v-.917c0-.2-.541-1.019-1.082-.408a5.086,5.086,0,0,1-2.272,1.324,3.117,3.117,0,0,0-2.164,1.732c-.216.713.757.713.757.713a6.363,6.363,0,0,0,1.3-1.121c.757-.815.974-.815,2.38-.917s1.3-.1,1.839.408.108,1.324.108,1.936,0,1.324,1.406,1.63.757,0,2.164,0,1.3-.1,1.19-.509a3.468,3.468,0,0,1-.649-1.426c-.108-.509.757-.815,1.082-.917s.433.509.866,1.223.541.611.757.1a4.346,4.346,0,0,0,.433-2.343,4.241,4.241,0,0,1-.216-1.63,2.117,2.117,0,0,0-1.082-1.426c-.433-.2-1.731-1.019-1.731-1.019a11.191,11.191,0,0,0,.324,1.528Zm-6.708-4.381s0-.509-1.19-1.324a5.378,5.378,0,0,0-3.246-1.324c-1.947-.2-3.787.1-3.029,1.528s1.082,1.528,2.7,1.732a4.526,4.526,0,0,0,2.6-.408s.108.2-1.406.815-1.731,1.834-.541,2.343,1.19,1.223,1.839.815,1.19-1.63,2.6-2.547,1.515-1.019,1.623-1.936a4.135,4.135,0,0,0,0-1.63Zm3.246-2.649c-.216.1-1.19-.1-.108.611s1.947.815,1.839,1.324,0,.611-.649.509a3.361,3.361,0,0,1-.974-.2c-.216-.1-.325.306-.108.611s.108,0,.649.509.325.713.541,1.324.541.306.541.306a9.318,9.318,0,0,1-.108-1.732c.108-.306-.216-1.019.541-.815s.541,1.121.974.306a2.47,2.47,0,0,0,0-2.139c-.216-.611-.974-.713-1.839-.713a6.06,6.06,0,0,1-1.3.1Zm-14.93,2.547c-.433.1-.757.306-.974,1.324a3.7,3.7,0,0,1-1.947,2.038,26.216,26.216,0,0,0-3.462,2.445c-.108.306-.108.1,1.623-.408s3.246-1.324,3.462-2.038-.216-.306,1.406-.815.757-.611.866-1.426-.108-1.324-.974-1.121Zm95.42,29.442c-.216,1.019.433,1.324-.974,2.038a11.137,11.137,0,0,1-4.436.917c-1.406.1-.433-.2-2.164-.2s-2.272,0-1.406.611.649,1.223,3.354,1.121a29.928,29.928,0,0,0,6.6-1.426c1.731-.408,1.623-1.324,1.731-1.732s-2.6-2.445-2.7-1.324Zm7.465,2.139c.757.713.433.611,1.406,1.528a6.97,6.97,0,0,0,3.57,1.324c1.082.2,0-.306-.866-1.019a9.542,9.542,0,0,0-2.164-1.936c-1.19-.815-3.246-1.222-1.947.1ZM884.963,243c-3.678,1.528-5.409,1.426-3.895,3.464s2.38,2.853,2.6,3.26.974-.306,1.947-1.834,1.082-3.668,1.515-4.279-.866-1.223-2.164-.611Zm63.289-77.426c.433,1.019.757,2.649-.108,2.853s-1.515,1.324-1.839,2.547-.649,2.649.325,3.668.325,1.019.325,1.834.325,2.853-.216,3.973-.865,1.426-.649,2.751a16.391,16.391,0,0,1,0,3.26,23.282,23.282,0,0,0,0,3.973c.216.713.649-.407,1.082-.611a3.384,3.384,0,0,1,2.813.2l.865.611s1.406.407-.541-2.343-2.272-2.139-1.731-4.686.757-2.547,2.7-2.751,3.029,1.528,3.246,1.732-.216-.611-.866-2.038-1.3-1.834-1.515-3.668a4.891,4.891,0,0,0-2.056-3.769c-.974-.509-.541-1.324,0-2.038a4.033,4.033,0,0,0,.433-2.954,18.572,18.572,0,0,0-1.082-3.464c-.325-.611-1.406.408-1.406.408Zm-1.731,27.507a2.887,2.887,0,0,1-.541,2.445c-.866.917-.216,1.121-.649,2.343s-2.7,0-2.7.306a1.976,1.976,0,0,1-.974,1.426c-.541.306-2.488.407-1.947,1.63a12.859,12.859,0,0,0,1.623,2.547,7.019,7.019,0,0,1,1.515-.815l1.3-.306s-.216-.408-1.406-.713-1.19-1.223-.974-1.426,1.839.1,2.813,0a4.837,4.837,0,0,1,3.137.2,8.528,8.528,0,0,0,3.137.917,5.028,5.028,0,0,1,.757-1.732c.541-.713,2.272-.407,3.895-.713s2.921-.509,2.38-1.019-.541-1.528-.865-2.343-1.406,0-2.272.306a4.762,4.762,0,0,1-3.137-.407,19.732,19.732,0,0,1-4-3.158c-.108,0-1.19-.408-1.082.509Zm-5.193,11.614a2.273,2.273,0,0,0-1.082,2.139c.108,1.019,1.515-.1-.216,3.158s-2.6,3.973-4.327,4.788a6.457,6.457,0,0,1-3.895.611c-.649-.2.216-.917.649-1.121s-1.515-.306-2.272-.2,0,.713-.108,1.223-1.731,1.936-1.515,2.547.216.815-.865,1.019a2.968,2.968,0,0,1-2.056-.611,25.261,25.261,0,0,0-3.895.408,4.452,4.452,0,0,0-3.462,1.63c-.865,1.019-2.921,1.121-4.328,1.528s-.865,1.732-2.488,2.241a2.118,2.118,0,0,0-1.731,2.139c-.108.713.974.2,1.19.2s.216-1.019,1.19-.917,1.082.1.649.917-.865,1.121-1.3,1.834.216.917.974,1.63,1.515-.2,3.137-1.324,1.731-1.426,1.623-2.751-.757-1.324-1.947-1.732-1.515,0-.108-1.019,1.947,0,2.813-.509,3.137-.408,5.193-.815,4.111-.815,4.219-.306.757,2.038.865,2.343,1.515-.407,2.921-.815.108-.509,0-1.121.649-1.019.649-1.019.757,1.019,3.029.306,2.488-1.019,3.029-.917.974.509,1.947.1,1.082,0,.974.306,2.813-.611,3.462-.917.325,0,0-1.121-1.082-1.223-.649-2.649a6.663,6.663,0,0,0,.433-2.547,1.137,1.137,0,0,1,.974-1.121c.325-.1.325-1.324,1.082-1.936s.541-.917.541-2.445-1.19-1.223-1.3-2.241a6.215,6.215,0,0,1,.325-2.038,12.209,12.209,0,0,0-2.7,1.019l-.216.408A1.117,1.117,0,0,0,941.328,204.693Zm-16.12,16.2c-2.6.306-4.327.509-5.842.815s-1.839.815-1.623,1.834a18.327,18.327,0,0,0,1.082,2.547c.216.509,1.082,0,2.488-.509s1.3-1.936,2.7-1.936.865,1.019,2.7-.408.433-1.63.541-2.343-2.056.1-2.056,0Zm161.414-79.769c-2.7-.407-3.57-.713-3.787-.1s-.541.917,1.19,1.324,2.6-.306,4.219.509a5.416,5.416,0,0,0,3.354.713,3.412,3.412,0,0,0,1.731-.509,50.256,50.256,0,0,0-6.707-1.936Zm-31.158-28.729c-.974.2-1.839-.408-1.515,1.223s.865,1.834,4,1.528a48.492,48.492,0,0,1,5.085-.306c4.328-.2,5.193-.611,5.193-.611a5.911,5.911,0,0,0-2.055-1.528c-1.515-.713-3.462.509-6.708.1C1056.005,112.394,1055.464,112.394,1055.464,112.394ZM958.1,88.147c0,.611,4.327,2.343,5.842,2.853s2.813.306,6.058.1,3.57-1.223,3.895-1.732-1.515-.306-3.786-.611-4,.306-4.76,0,1.19-.509-.757-1.019-2.38.2-2.813,0-.541-.713-1.515-.713-2.164.509-2.164,1.121Zm-16.985,3.668c-1.515.408-1.406.713.325,1.732s1.082.713.433,1.426,0,0,2.38.713,3.462,2.038,4.868,2.343a4.517,4.517,0,0,0,2.6-.1,8.615,8.615,0,0,0-1.947-2.343c-1.406-1.324-4.544-1.63-5.085-2.853s-1.406-1.426-3.57-.917Zm15.471-5.3s-2.164-.917-5.517-2.343-4.544-1.732-5.734-1.834-.974.815-1.406,1.528-.757.611-2.488,0a51.706,51.706,0,0,0-5.193-1.732c-1.731-.306-2.813.713-4.868,2.038s-.866,1.732,1.623,3.769,3.57,2.139,5.517,1.324,1.406-1.324,2.813-.917,6.383-.408,6.491-.408-.325,1.834,1.839,1.324,4.111-.713,5.193-1.426A13.977,13.977,0,0,0,956.582,86.517ZM806.961,48.11c-.649.306-4.328.1-6.275,2.139s-3.246.611-4.219,1.834a17.987,17.987,0,0,0-1.839,2.751,5.581,5.581,0,0,0,3.57,1.223c1.839-.1,5.085.408,6.816,2.038s3.137,1.63,7.465,2.139,2.38.815,4.652.713,5.3.2,4.652-.611a2.44,2.44,0,0,1-.865-2.751c.325-1.426,2.272-1.426-.108-2.343a7.229,7.229,0,0,0-3.895-.408c.108-.2,2.164-.713,1.3-.713s-4.76-.2-5.193-1.732,1.082-1.63,1.947-1.732.541-.306-1.731-1.426-5.409-2.241-5.409-2.241C806.42,47.6,807.718,47.7,806.961,48.11Zm21.637,10.9a6.616,6.616,0,0,0-4,2.343,29.958,29.958,0,0,1-4.111,3.056c-1.19.611-.866.815,1.082,1.324s5.409-.815,6.383-.815,1.731,1.019,4.868.713,7.789-.611,5.517-1.732-1.515-.611-4-1.936a14.4,14.4,0,0,0-5.734-1.426s5.193-1.223,4-1.223-3.895-.306-4-.306ZM695.529,41.284c-3.029.713-1.947,1.121-3.895,2.139s-.649,1.324,3.57.611a28.168,28.168,0,0,0,7.14-1.834C705.049,41.386,699.964,40.164,695.529,41.284Zm6.6,5.094c-2.813.815-2.056,1.732-1.3,2.445s2.813-.408,3.354.408.757.408,3.462-.713,1.623-.815.649-2.038-1.19-1.528-6.167-.1Zm-15.687-.611c-1.839.611-1.839.509-.108,1.019s5.95,1.019,8.114,0,1.947-.713-.757-1.019S688.5,45.155,686.441,45.767Zm-26.722,2.241a64.421,64.421,0,0,1,7.681-.1c2.272.2,1.406,1.426-2.7,1.732s.433.713,3.354.611,1.082-1.732,3.462-2.241,4-.2,6.924-.917-1.623-1.324-5.085-1.324-4.544.2-7.465.1-5.193.713-8.222,1.019c-6.058.713-.757,1.223,2.056,1.121Zm22.07.509c-2.488,0-8.438.917-3.462,1.223s4.652.509,6.708,0-.649-1.223-3.246-1.223Zm17.418.713c-3.57-.815-3.57-.509-6.275-.408s-3.786,1.223-2.055,1.732a9.3,9.3,0,0,0,4.435.1c1.406-.2,1.406-.408.433-.713s5.518-.306,3.462-.713Zm14.822-2.954c-2.7.2-2.813.509-3.137,1.121s.433.509,3.246.2a20.634,20.634,0,0,0,6.058-1.223c1.839-.713-.433-2.343-.433-2.649s-2.6.917-3.354,1.324S717.166,46.072,714.029,46.276Zm-211.612,103.3c-1.406,2.547-3.57,3.668-.974,2.954s5.3-2.853,5.193-1.019-2.7,1.63-1.947,3.362.216,1.63,4.652,2.343.865.407,1.947,2.139,1.839,2.241.649,2.751-4.544-1.63-4.76-.713.433,1.528,1.3,2.751-.541,1.936-3.137,2.751-.325,1.324,1.623,1.223,6.924-.713,6.058.509-3.246-.2-4.868,1.732-8.006,3.566-4.652,3.464,2.813-.713,12.55-1.63,3.029-.1,9.412-1.426,4.327-1.63.865-1.324,2.272-2.343,1.515-4.788-3.137-.1-4.652-1.732-1.3-2.038,1.623-1.426,2.6-.408-2.921-2.751-2.055-1.936-4.652-3.871-6.816-1.732-6.816-1.732A7.582,7.582,0,0,0,513.343,151c.866-1.019,1.731-2.038,2.488-3.056,1.19-1.732-1.19-1.63-4.111-1.121s-3.895.611-3.246-.1a8.845,8.845,0,0,1,2.38-2.038c1.406-.917,1.623-1.426-.865-1.121a26.846,26.846,0,0,0-4.977,1.019C501.551,145.707,503.823,147.133,502.416,149.578Zm-6.816,5.909c-4.436,1.223-3.246,1.936-2.488,2.343s2.056-.408-2.056,1.222-4.219,3.362-2.056,3.668,1.947-.815-.433,2.038-3.895,4.89.866,4.177,5.95-2.343,8.222-2.547,2.7-1.426,2.7-3.158-1.515-1.834.325-3.362,1.947-3.056-1.623-3.871S498.413,154.774,495.6,155.487Zm55.824,40.547c-.216.407.325,1.528-1.515,2.241s.865,1.426,1.406,2.139,1.3-2.445,1.19-3.973-.325-1.63-1.082-.408Zm-.866,6.011c-2.921.917-3.137,1.63-3.462,3.056s2.38.306,1.623,1.63,0,1.936,3.029.713,1.3-2.343,1.731-3.871S554.346,200.822,550.559,202.044Zm45.114,15.893c-2.6-.2-3.678.917.649,1.223s6.383.408,8.006.1.216-.1-1.947-1.019S598.918,218.141,595.673,217.937Zm24.45.917c-3.57-.509-2.6,2.343,1.082,1.936s2.272.2,3.895-1.63-1.19.2-4.977-.306Zm-88.172-13.448c-2.921.306-3.137.917-.866,1.324s1.947-.1,3.246-.713-1.082-.713-2.38-.611Zm-174.5-35.147a19.252,19.252,0,0,0-6.275,5.3,15.258,15.258,0,0,1-4.652,4.381c-2.38,1.732-1.19,1.324,6.275,2.241s6.924,1.732,8.655,1.426,2.056.611,2.056,1.63,1.623.408,2.38-1.223-.757-4.483-2.272-6.214-1.947-1.63-4.327-1.223-1.623-.408-2.488-1.63-2.272-.306-.216-2.241,2.6-3.362.865-2.445Zm-229.9-3.362c0,1.63,2.488,4.381,4.436,5.2s1.515.408.649-1.528-.216-1.936-.541-3.158S127.551,166.286,127.551,166.9Zm12.658,8.761a19.638,19.638,0,0,0,4.652,2.954,21.781,21.781,0,0,0,6.058,1.834c2.813.509,4-.2,2.164-1.223s-.325-.917-3.462-1.426-3.895-.306-5.518-1.019S139.019,174.844,140.209,175.659Zm-70.321-17.93c-2.056-.306-2.921-.408-4.327.407s-1.839,1.426-1.082,2.241.325.407,2.164-.408.974-.917,3.246-1.324,1.839-.917,1.839-.917A3.739,3.739,0,0,1,69.888,157.728Zm-.757-1.834c-1.406.611-1.839,1.019-.325.815s1.3-.815,2.38-.713,1.3-.1,1.3-.1a6.248,6.248,0,0,0-3.354,0Zm-39.813-4.279c-1.947.611-3.678-.1-2.488.408a10.78,10.78,0,0,0,4,.815c1.3-.1,2.056-.1,1.623-.509s-.649-.509-.649-1.019S31.157,151,29.318,151.616Zm637.65,175.532c-2.164,3.26-6.816,1.63-10.494,4.075s-3.137,1.63-.325,4.992-2.272,2.954-3.57,6.826,1.515,3.158,3.029,6.418,2.164,2.343,4.977,1.834a19.383,19.383,0,0,0,4.76-1.324,42.215,42.215,0,0,1,2.272-7.131c1.839-4.279,3.137-7.335,3.462-10.086s.649-4.788,1.623-3.973,1.082.917,1.082-.509-1.082-5.2-2.921-6.113C667.617,320.628,669.131,323.888,666.968,327.148Zm3.246-220.969c-3.029.408-4.436,1.732-2.272,2.139s1.947.2,5.626-.611c3.57-.815-.433-1.936-3.354-1.528ZM726.578,69.5c-1.082-1.121-1.947.306-12.55,3.464s-10.494.408-20.339,5.705-7.681,4.584-8.33,7.743-2.921,1.834-3.786,4.686-5.95,3.056-3.462,5.4,5.842,3.769,11.143,4.788,6.816-.1,5.626-.408-5.193-4.584-4.327-9.373,3.462-4.075,5.734-5.909,8.33-6.418,12.225-8.048,13.956-3.668,19.041-4.89a.682.682,0,0,0,.433-.1c4-3.158-.325-1.936-1.406-3.056ZM698.017,101.8c-1.3.1-1.839.1.433,1.63s4.327,2.649,3.57.611A3.873,3.873,0,0,0,698.017,101.8ZM735.882,87.23c-1.623-.509-2.6-1.121-3.029-.2s1.947,2.038,4.111,2.343.541-1.732-1.082-2.139ZM339.271,177.594a25.56,25.56,0,0,0-6.708-1.528c-1.623,0,.325,1.223,3.029,2.139S340.786,178.1,339.271,177.594Zm-6.058,7.131c.108-1.426-1.406,1.63.541,2.343s2.921.815,4.111,0,.216-.306-1.406-.509-3.354-.611-3.246-1.834Zm754.707-49.41a19.1,19.1,0,0,1-5.409-.407,4.236,4.236,0,0,1-1.082,2.445,1.222,1.222,0,0,0-.325,1.63s-3.138-.917-4.868-1.324-3.462-.1-4.544-1.936-4.111-1.528-6.6-1.528a1.665,1.665,0,0,1-1.839-1.324,2.121,2.121,0,0,1,.108-.815h-1.515c-1.515.1-1.19,2.445-3.138,3.158s-7.9,1.223-7.9,1.223,3.786,1.834,4.544,3.362a15.709,15.709,0,0,0,2.272,2.954s-.325.713-4.977.1-4.328.611-9.2,1.936a81.9,81.9,0,0,0-11.9,4.177c-1.406.713-1.515.306-5.734-.407s-5.193.815-6.275,1.222-.649-1.732-.649-1.732a12.94,12.94,0,0,0-3.462.611c-19.69,6.724-6.167,6.316-6.708,7.743l-2.056,5.2c-2.921,5.807-4.868,2.751-7.357,7.335-7.789,14.568-12.225-2.241-12.225-6.113,0-2.343-.757-5.4,1.515-6.113,19.365-6.011,1.839-.815,19.906-9.169,5.842-2.649,2.7-4.279,4-5.094a9.8,9.8,0,0,1,3.354-1.019l-3.246-.2c-3.246-.2-3.246.306-5.842,2.139s-4.544,2.139-4,.713.649-2.853-1.3-2.139-2.7.611-6.275,1.121a20.96,20.96,0,0,0-10.6,4.279c-3.246,2.649-1.406,2.343-.325,3.056s-5.085.509-8.006.306-1.406-.509.325-.917-2.6-.713-6.383-1.223-2.38.408-4.544,1.019-2.164-.509-3.246-.713-6.167-.408-9.629-.611-3.246.2-4.219.917S941,153.857,938.19,156.1s-6.383,2.649-9.629,4.686-3.678,1.936-1.082,2.241,2.921.2,3.354,1.834S932.456,167,935.269,167s1.947.509,2.488-.917-.649-3.056,1.623-1.732,4.219,2.139,4.868,3.973-.216,3.056-1.406,6.011-1.623,7.233-3.246,9.373-2.921,3.769-4.76,6.113-10.6,8.354-12.658,8.863-3.246.611-4.219-.611-1.623-1.019-3.895.407-3.246,2.139-4.111,4.279-2.813,2.139-4.76,3.769-2.488,1.223-1.082,3.056,3.895,3.769,4.111,5.5-1.19,4.381-2.164,5.5-5.409,1.63-5.409,1.121a35.351,35.351,0,0,0,0-4.788c-.216-1.528-1.947-1.528-1.3-2.038s3.137-1.324,1.3-2.445-3.137-.2-3.895-1.528.325-2.445-.108-2.954-1.731-1.019-4.436-1.223-3.246,1.63-3.895.1.325-1.732-.974-2.343-2.272-.2-5.409,1.528-3.678,1.426-6.275,2.139-2.6,1.223-1.947,1.834,2.813,3.158,4.544,3.464,3.137-.509,5.842-.509,3.246.306,2.6.917-2.6,1.426-5.95,3.668-2.38,1.834-1.19,2.751a20.026,20.026,0,0,1,4,3.871c1.19,1.732,0,2.445-.216,3.464a3.685,3.685,0,0,0,1.839,4.177c2.272,1.63.649,1.121.433,1.63s-4.111,5.2-5.734,7.539-1.731,2.547-7.357,5.2a28.591,28.591,0,0,1-11.143,3.26,55.131,55.131,0,0,0-7.14,1.426c-1.515.407-.974,1.324-1.082,1.834s-1.623,0-1.406-.713.108-1.426-.649-1.63a7.076,7.076,0,0,0-5.734.713c-2.488,1.63-5.518,1.732-6.6,3.769s-.866,1.324.325,2.241,6.6,4.381,7.9,6.214a8.567,8.567,0,0,1,1.623,5.3c.108,2.038-6.275,5.807-8.979,7.029s-3.354,2.445-2.921.509-1.19-3.056-3.246-4.483-8.006-2.649-9.2-2.853.433-1.324-.325-1.324-2.6-.306-2.38,1.63-1.839,1.324-2.272,3.158-.974,3.871.865,3.668,1.406,1.63,2.813,3.668.865.917,4.327,2.853,2.6,1.528,3.354,3.464.541,2.954,2.272,4.686,1.839,2.139-1.082,1.121a15.358,15.358,0,0,1-6.275-3.362c-1.082-1.223-1.839-4.177-2.488-5.705s-5.409-3.26-6.924-4.381-.649-1.936.216-4.381-.325-4.89-.649-6.316a34.366,34.366,0,0,0-2.921-7.131c-.865-1.426-.541-1.223-1.839,0s-2.38,2.038-3.678,2.038-3.246-.1-3.029-.713,1.515-2.751,1.082-3.566-1.623-3.362-3.462-4.279a11.327,11.327,0,0,1-5.085-4.279c-1.19-2.139-1.406-1.528-3.678-.408s-7.357,1.223-9.845,1.324-.433.917-1.082,1.732-3.462,1.834-9.3,5.909-6.708,4.177-8.222,4.584-2.488.306-2.38,1.936a12.873,12.873,0,0,1,0,4.075,6.089,6.089,0,0,1-1.623,3.056,14.843,14.843,0,0,0-1.515,3.566c-.216.917-1.515,1.936-3.354,2.853s-1.947.713-2.813-.611-5.409-6.52-8.979-11.308-2.813-5.705-3.137-7.131a67.72,67.72,0,0,1-.216-10.493c.108-.408-1.731,1.019-2.272,1.63s-.541,1.528-2.6,1.63a5.279,5.279,0,0,1-4.436-1.121c-1.947-1.324-2.813-2.038-2.488-2.038a12.941,12.941,0,0,0,3.895-.611c1.3-.407.865-.917.865-.917s-1.406.1-3.029.2-.865-.306-3.137-.815-2.7-.611-3.029-1.324a20.133,20.133,0,0,0-1.19-2.139c-.325-.509-.541-.509-.974-1.121s-1.406.1-3.786.1-1.839.1-4.76.917-3.354.509-6.6.407a27.655,27.655,0,0,1-7.14-1.426,20.751,20.751,0,0,0-4.327-.407c-2.38-.2-1.947-1.019-2.488-1.732s-1.623-.815-4.76-.713a14.289,14.289,0,0,1-5.085-.306c-1.839-.306-1.947-.713-3.462-1.732s-.974-.2-1.947-.713a5.99,5.99,0,0,1-2.7-2.649c-.757-1.426-.649-1.732-1.515-2.343s-.866-.509-3.57-.509-1.515.1-1.839.306a9.939,9.939,0,0,0-1.947,1.63c-.757.611.649,1.528,1.731,2.445s.108.815,1.947,2.139,1.19,1.223,2.488,3.056,2.056,2.343,2.38,2.853.541-.2.865-.713a5.792,5.792,0,0,0-.108-2.343,12.4,12.4,0,0,1,1.082,2.038c.541,1.324.108,1.324.541,2.139s0,.713,2.164.713a28.108,28.108,0,0,0,5.842-.306c2.38-.408,3.462-1.834,4.544-2.241s1.082-1.936,1.839-1.834,0,1.834.757,2.853.865.713,2.488,1.121,2.164.713,3.787,1.121.541.509,1.515,1.63.865.509,1.731.917.541.1-.108,1.426-.757,1.324-2.272,2.445-1.515.713-1.731.713-.649-.815-.649-.815a6.6,6.6,0,0,0-1.082,2.853c-.108,1.528.757,1.019-1.947,1.732s-4.327,1.019-5.409,1.63-1.082,1.426-1.623,1.834-1.406,0-3.246.509a7.208,7.208,0,0,0-2.921,1.121c-1.515.815-.216.713-2.164,1.223S673.134,264.8,671.4,265s-1.406.407-1.947.917-.541.713-2.813.917a35.429,35.429,0,0,0-6.6.917c-1.406.509-3.462,1.528-4.977,1.324s-1.082-.2-1.623-1.121a7.82,7.82,0,0,1-.974-3.056,11.505,11.505,0,0,0-2.272-5.094c-1.3-1.426-1.3-1.528-2.6-3.056s-2.272-2.751-3.57-3.362a16.426,16.426,0,0,1-2.38-1.019c-.541-.408-.216-1.936-.865-3.158a8.778,8.778,0,0,0-1.947-3.158,15.664,15.664,0,0,1-3.462-2.954c-1.3-1.528-1.3-1.63-3.137-3.973s-2.488-2.547-3.57-4.177-.433-1.223-.866-2.139-1.515,1.528-2.488,1.936-1.406.2-2.056-1.121-1.3-2.547-1.839-2.038-.974,1.121-.216,2.547,1.082,1.121,2.056,2.547,3.678,4.89,4.76,6.316a7.292,7.292,0,0,1,1.623,2.954,6.107,6.107,0,0,0,2.921,3.362c1.406.917,1.082.408,1.731,1.936a10.507,10.507,0,0,1,.433,4.075c.108.917.865,1.324,2.488,2.241s.865.611,1.515,1.528a20.227,20.227,0,0,1,1.947,3.26,3.475,3.475,0,0,0,2.164,2.038c.974.306,1.947.611,2.921.815,1.3.306.865.509,1.731,1.223s2.488,1.324,3.57,2.445.325.815.325,1.936-.541.611.108,1.223a19.881,19.881,0,0,0,4.219,2.038c2.164,1.019.433.306,2.38.306a21.151,21.151,0,0,0,4.436-.713c2.056-.306,4.76-.815,7.357-1.223s5.085-.713,6.491-1.019,1.406.713.325,2.139-1.515,2.751-2.38,3.973-1.19,1.324-1.839,2.343-4.868,4.992-5.734,6.316a19.476,19.476,0,0,1-3.246,3.362c-1.3,1.019-5.409,2.954-7.248,3.973s-1.406,1.019-2.813,2.241-5.734,4.584-6.816,5.705c-.974.917-1.839,1.834-2.7,2.751-.865,1.121-3.354,2.853-3.462,3.668s-1.515.917-.541,1.732,1.623.815,1.947,1.834-1.19,2.038-.216,3.668.325.509,1.731,1.834,1.406,2.241,1.515,4.177a14.569,14.569,0,0,1-.216,5.3,19.064,19.064,0,0,1-1.731,3.26c-.649,1.121-4.327,1.936-6.383,2.547s-2.056.407-3.029,1.121-3.787,2.445-4.76,3.668-1.623,1.121-1.3,1.834c.649,1.121,1.406,2.139,2.164,3.26.974,1.426.325,1.324,0,2.547a14.031,14.031,0,0,0-.433,2.547c-.216,1.528-2.921,1.528-5.95,2.343s-1.947.407-2.272,1.528a21.72,21.72,0,0,0-.216,4.584c-.108,1.324-1.082.815-2.7,2.343s-2.272,2.343-4.111,4.279a9.931,9.931,0,0,1-3.786,2.852c-2.164,1.223-4,1.528-4.977,2.853s-2.056.509-6.816,1.528-1.3.509-5.842.815-6.167.611-8.547.917-2.056-.1-3.57-1.121-1.731-1.019-2.38-1.936-.216-1.121-.433-2.751a3.212,3.212,0,0,0-1.3-2.649,15.473,15.473,0,0,1-1.839-2.751,14.213,14.213,0,0,0-2.488-3.158c-1.082-1.121-1.406-.713-2.38-1.426a3.269,3.269,0,0,1-1.3-2.343c-.216-1.019-.541-3.362-1.082-5.807s0-1.121-.649-2.139a33.732,33.732,0,0,0-2.272-3.668,27.631,27.631,0,0,0-2.164-2.751,19.856,19.856,0,0,1-2.272-2.954c-.974-1.528-1.082-.815-1.19-1.426s.541-1.63.541-2.649a20.44,20.44,0,0,1,.974-3.668c.433-1.528-.541-1.528.433-2.547a19.6,19.6,0,0,0,2.6-3.26,3.577,3.577,0,0,0,.541-2.751c0-1.528-.216-1.426-.974-2.649s-.974-2.751-1.731-4.788a13.943,13.943,0,0,1-.974-2.751,12.434,12.434,0,0,0-1.3-3.668c-.541-1.121-.865-.611-2.164-1.324a6.1,6.1,0,0,1-1.623-1.019c-1.082-.815-.865-1.019-1.947-1.834a8.6,8.6,0,0,1-2.056-1.834c-.865-.917-.433-.408-.325-1.936a44.568,44.568,0,0,1,1.19-6.418c.433-1.732.541-1.63-.541-2.445s-1.731-1.834-2.488-1.936-2.7.2-5.409.1-2.6-.408-3.786-1.324-2.7-2.139-3.246-2.547-1.515-.306-6.167-.1-1.839.306-4.977.611-4.327,1.426-6.708,1.936-3.137.408-7.249-.1-6.275.611-8.439,1.223a6.012,6.012,0,0,1-4.76-.408,34.493,34.493,0,0,0-4.868-2.139c-2.38-.815-1.839-1.223-4.219-2.038s-1.623-.815-3.57-2.038-2.056-2.547-3.462-3.769-2.488-3.056-4.327-4.483-3.57-4.075-4.436-4.992-1.623-.917-1.515-1.324a42.977,42.977,0,0,1,2.488-3.871c.757-1.121.974-1.019,1.19-1.834s-.433-2.954-1.082-4.075-1.515-3.668-2.056-4.89.325-1.223.974-1.834a46.74,46.74,0,0,0,3.895-4.075c1.623-2.038,2.6-3.056,3.462-3.973s2.813-3.871,4.111-4.686a40.607,40.607,0,0,1,6.058-2.853c1.406-.509,2.6-.713,2.813-1.223s.865-3.973,1.19-5.5-.108-2.343,1.515-2.853,4.219-1.63,5.517-2.139,1.515-1.223,2.272-2.343.974-2.445,2.056-2.954.757.2,2.056.815a5.4,5.4,0,0,0,2.164.713c.649.1,1.19-.306,2.813-.407a4.947,4.947,0,0,1,2.7.509c.974.306.433.306,3.137-.815a78.913,78.913,0,0,1,16.012-4.177c1.623-.1.865,0,2.7.509s1.947.713,2.272.306a4.461,4.461,0,0,1,2.38-1.324c.757,0,1.623.306,3.678.509a7.526,7.526,0,0,0,3.678-.2,18.414,18.414,0,0,1,2.056-.815c.216,0,1.947.407,3.246.713s1.406.408,1.082.611a6.644,6.644,0,0,0-1.406,1.528c-.649,1.019-.325.509.325,1.528s1.082,1.019.757,1.732-1.623,1.528-2.488,2.241-.757.917,1.623,1.732a32.238,32.238,0,0,0,4.436,1.528c2.6.815,2.7.509,5.842,1.121s2.7.713,3.786,1.528,1.082,1.63,3.029,2.038,3.787.408,4.868.917a13.439,13.439,0,0,0,3.354,1.324c1.406.2,1.406.306,2.164-.408s1.3-1.324.974-1.732-1.082-.917-.865-1.223c.541-.713,1.082-1.426,1.731-2.139.325-.408,1.3-.509,3.57-.611s3.895-.306,4.219.611.325.509,2.056.917,1.947.509,3.354.917.757.917,1.515.917a12.392,12.392,0,0,1,3.354.2,35.652,35.652,0,0,0,6.6,1.121,9.4,9.4,0,0,0,4.111-.611c.433-.1,2.272-1.63,3.462-.611s2.6,1.121,5.409,1.019,2.813-.408,3.462-.917a13.5,13.5,0,0,0,2.921-3.566c.541-1.223,2.056-3.973,2.488-5.2a4.589,4.589,0,0,0-.216-2.954,2.8,2.8,0,0,1,.541-2.038c.433-.815-1.406-.306-2.056-.2s-.866-.306-1.623-.407-1.406-.2-1.839.611-.216,1.223-2.921,1.121-2.164-.2-3.029-.815a8.467,8.467,0,0,0-3.57-1.019c-1.19-.2-1.3-.2-1.406.306s-.108.815-.974,1.019a10.889,10.889,0,0,1-4.436-.611,12.882,12.882,0,0,1-3.787-1.834c-1.623-1.019-1.406-1.019-2.056-2.649a4.842,4.842,0,0,1-.325-3.464c.325-.509.757-.611-.541-.407s-2.056.407-1.3-.815a2.991,2.991,0,0,1,2.488-1.426c1.3-.2,2.6-.2,3.787-.306a13.142,13.142,0,0,0,3.462-.815c.541-.2,1.731-.407,1.19-.509s-2.38-.2-2.164-.611.541-.306,1.515-.407,2.488-.1,3.786-.2,2.056.1,2.488-.408a6.15,6.15,0,0,1,1.947-1.732c.974-.408,2.056-.2,4.76-.306s2.272.408,3.137.815,1.406.2,2.6.407.433.611,1.3.815,2.488.509,4.327.917.649.2,3.029.2a18.235,18.235,0,0,0,4.111-.2,11.546,11.546,0,0,0,4-1.324c1.3-.611.433-2.038-.108-3.056s-2.6-1.732-3.57-2.241-3.029-2.038-4.111-2.649a24.658,24.658,0,0,0-3.57-1.223c-1.19-.408-3.354-1.223-3.57-1.834s.433-.611,2.272-.917,1.19-.509,1.515-1.121.541-.611,1.947-1.019-1.731-1.121-2.164-1.528.974-.306,2.488-.509,1.623-.713,1.839-1.121.108-.611-1.623-.611a52.426,52.426,0,0,0-6.816,1.019c-2.921.509-1.623.509-3.354,1.426s-1.839.509-1.623,1.019.325,1.019,2.164,1.63,1.082.611,1.515.713,1.731.2,1.19.306-1.082.713-1.839.713-1.19.509-2.488,1.121a10.076,10.076,0,0,1-3.029.713c-.974.1-1.731-.1-1.623-1.223s-.541-.408-1.623-.611a4.737,4.737,0,0,1-1.515-.611,13.257,13.257,0,0,0,2.164-.713,3.208,3.208,0,0,0,2.056-1.63c.541-.917-1.19-.407-2.38-.509s-.865-.2-2.056-.306a2.362,2.362,0,0,1-1.623-.713,8.129,8.129,0,0,0,1.515.1c.974-.1.757-.306,1.19-.408s.649-.306.325-.306a18.018,18.018,0,0,1-2.38,0,10.157,10.157,0,0,0-2.488,0c-1.19.1-.757.407-1.623.815a2.755,2.755,0,0,0-1.406,1.019c-.433.509-.649.408-.866.815a5.464,5.464,0,0,0-.325,1.834c0,.611-.216.815-.757,1.324s-.541.306-1.515.611-.325.509-.433,1.121a9.6,9.6,0,0,0-.541,1.63c-.108.815-.541.815-1.3,1.426s-1.082.509-1.19,1.121a5.817,5.817,0,0,0,0,1.936c.216,1.121.649.815,1.947,1.936s1.947.713,1.515,1.324-.325.408-1.947.2a3.66,3.66,0,0,0-3.029.815c-1.19.713-1.406,1.121-1.947,1.426s-.433-.509-.649-.917-2.921-.509-4.652-.815a27.564,27.564,0,0,0-2.813-.509,7.273,7.273,0,0,0-3.029.611c-1.947.713-1.515,1.121-1.3,2.038s1.623,1.121,1.19,3.26,1.623,1.121,2.488,2.445.108,1.223-.433,1.324-1.082,1.324-1.406,2.343,0,1.223-.433,1.121a2.332,2.332,0,0,1-1.947-.713c-.865-.917-1.623,0-1.731-.611s-1.3-1.324-.865-2.547,1.082-1.324-.433-1.936-1.19-.713-1.947-1.936a7.076,7.076,0,0,0-2.38-2.649c-1.406-1.121-1.3-.815-.865-2.038s.649-2.649-.216-3.464a30.33,30.33,0,0,0-7.357-4.075c-2.921-1.019-3.57-.2-4.868-1.936s-1.947-3.464-4.111-4.483-1.082-1.121-3.137-.611-2.164.713-1.947,1.121a2.283,2.283,0,0,1,.325,2.038c-.325,1.121-.757.713,1.406,1.63s1.3.713,2.38,2.241a8.445,8.445,0,0,0,2.164,2.547,5.088,5.088,0,0,0,3.354,1.528c2.164.306,1.839-.1,2.38.306s-1.515.509-1.082.611a22.189,22.189,0,0,0,2.7,1.426c1.839.713,3.678,1.528,4.111,2.139s2.056,2.853-.216,1.223-2.38-.917-3.029.2.649,2.038.541,2.853-1.19.509-1.947,1.223-1.082,1.426-1.947,1.936-.541-.509-1.082-.509-.649.408-1.3,1.223,0,1.121.216,2.139.649,1.121-.974,1.121-1.3-1.121-2.813-1.834-2.488-.408-3.787-1.019.541-.713,3.787-.917,3.678-.509,4.652-1.019.649-.611,1.731-1.63,0-1.426-.757-2.649a5.562,5.562,0,0,0-2.6-2.038,20.434,20.434,0,0,1-2.488-1.63,8.576,8.576,0,0,0-3.57-1.121c-1.623-.306-1.3-1.223-2.272-1.528s-1.839-1.121-3.895-2.445-1.3-2.241-2.272-3.362a4.386,4.386,0,0,0-4-1.936c-2.056,0-3.678.917-5.734,2.343s-1.623,2.038-4.111,1.019-3.246-.917-4.977,0-2.055,1.936-2.055,3.871-2.056,1.121-3.678,1.63-3.137,1.936-5.626,5.094.216,1.63-.325,2.751.216,1.936-2.164,3.362-1.3-.2-2.7.917a8.963,8.963,0,0,1-6.6,1.834c-3.246-.306-2.38.611-4.436.917s-3.246.815-2.7-.713.108-1.324-3.895-1.223-5.409.815-4.977.407a5.706,5.706,0,0,0,.974-2.547c.433-1.528,1.082-2.038.433-2.038s-1.947.2-.974-2.445,1.3-3.158.865-4.686.108-3.668-.325-4.584,1.082-1.834.325-2.343-1.515-1.121-.974-1.121a48.321,48.321,0,0,1,5.409.408c2.813.306,5.626-.306,7.248-.2s5.085.611,8.547.917,3.354-.306,3.029-3.668.216-4.992-.757-5.705-2.164-.611-3.246-1.528-.325-2.241-2.7-2.751-5.085-.1-3.786-.408,1.839-.407.433-1.121-1.731-1.426-.649-1.528,4-.1,4-.1.216.917,1.839.509,3.57-.815,3.137-1.528-1.19-1.528-.974-1.528a6.455,6.455,0,0,0,4.111.917c3.246,0,3.029-.306,2.813-1.223s2.164-.917,3.787-1.63-.649-1.63-.216-2.343,2.272-1.121,5.626-1.324,2.7-.509,2.38-.815.108-1.426.325-2.853-.216-1.936,1.515-2.649,1.19-.408,4.76-.611,1.406-.713,1.947-.815,4.868-.815,5.626-1.019.649-.2,0-1.223-1.623-1.63-2.38-6.316-.649-4.686,3.678-5.6,3.354-.611,3.029,2.038-2.272,2.649-2.7,4.584-.108,3.158,1.731,5.2,1.623,1.019,5.517,1.019,3.029.611,5.626,1.223,1.731-1.121,4.219-1.63,1.947.407,7.9-.2c2.272-.2,3.029-.306,3.137-.306-.216,0-.865,0-.216-.2,1.406-.509,1.731-1.528,3.678-1.63s3.354.408,3.246-1.63-1.19-1.732-.865-3.26.433-.917.649-2.139-.216-1.426,2.272-1.936.757,1.528,3.787,1.936,2.6.713,3.137-.815,2.164-3.668.649-3.464-1.839-.1-3.246-1.528-2.38-1.732-1.406-1.732a84.235,84.235,0,0,1,8.763-.509c4.544.1,5.842.408,6.167.1s-.757-.611.757-1.324,6.708.306,5.842-.306-5.3-1.426-8.33-1.121-10.386.917-11.468.815a10.778,10.778,0,0,1-3.678-.917c-.541-.408-2.164-.611-2.164-2.445s.974-2.445-.649-4.177,2.813-3.158,5.842-4.992,2.272-3.362,4.111-3.464,2.488-.713,1.623-1.324-4.111-2.649-5.626-2.853-3.895-1.426-6.275,1.426.216,3.056.649,4.483-3.354,2.547-6.275,3.871-3.895,1.019-4.76,4.483-1.731,3.566,1.406,4.686c3.246,1.223,3.786,1.732,2.38,2.853s-4.544,1.019-6.491,3.362-1.082,3.566-1.947,4.686-3.246,1.528-3.895,2.649-.649,3.158-3.678,2.853-1.3-2.954-2.6-4.279-2.38-2.445-3.895-4.177-.325-3.26-1.839-4.177a4.016,4.016,0,0,1-1.839-2.547l-.541.815c-.541.815-.216,1.324-3.246,3.668a11.712,11.712,0,0,1-9.52,2.038c-2.164-.611-1.839-2.038-1.839-3.769s-.541-4.177-.108-6.928,1.623-2.547,6.275-4.381,4.652-1.732,5.842-2.954,4.436-2.853,6.275-3.973,5.193-5.2,6.924-8.048,4.868-4.686,8.006-7.844,8.655-5.909,15.687-7.844c7.032-2.038,5.842-2.241,7.465-3.769s2.38-.611,5.085-1.019,2.38,0-.433,1.834-4,3.769-1.623,2.343,4.111-3.158,7.789-3.056,2.164,0,5.734,1.121,4.111,1.223,2.164,2.038a13.84,13.84,0,0,1-5.409.611s1.082,1.834,4.436,2.038,5.085-1.732,7.248-1.019,2.7,1.324-.216,1.121-3.787,1.121-.216,1.936A41.3,41.3,0,0,0,627.7,107.3c4.76.408,6.816,2.751,10.494,3.769s7.9.2,6.708,2.343c-1.19,2.241.974,4.381-5.409,5.4s-6.167-.306-11.36-1.426-8.979-2.139-8.979-2.139A32,32,0,0,0,622.936,118c2.38,1.528,2.7,2.954,2.38,5.705s-1.406,3.464,2.7,4.89,3.57.917,4.868.713,3.462-.509,2.921-.917a5.435,5.435,0,0,0-2.38-1.63c-1.406-.408-1.406-1.426-.108-1.936s2.7.408,5.734.306,0-.713,1.515-1.834,1.515-2.751,5.085-3.668,7.357.408,8.33-.611,1.947-2.241,0-3.769-3.57-2.139-2.38-2.853,3.678-2.751,4.76-1.63,4,2.343.325,2.139c-3.57-.2-1.082,3.566,2.164,3.362s3.029-.917,5.734-1.732,7.9-3.668,11.684-4.584c3.678-.815,4.544-.611,5.95-.2s1.515,1.223,5.517.713,5.3-1.223,9.088-1.63-.216.917,1.515,1.324,1.947.713,3.246.1,5.409-1.528,3.57-2.547-3.246-1.63-3.246-1.63,1.406-2.038,4.977-1.936c3.678.2,9.2,2.445,12.658,4.075a48.855,48.855,0,0,1,7.9,5.094s1.515-1.732.216-4.686-4.544-2.241-4.544-5.094-3.029-2.038-1.947-4.075,4-2.751,4.76-5.3,1.406-4.584,4.111-4.584,8.438.509,8.438.509a12.752,12.752,0,0,1-2.164,5.807c-2.164,3.464,1.082,3.871.649,8.048s-.649,4.686.865,5.705,4.219,2.139,3.246,3.973-1.515,2.954-5.409,3.973-8.763.408-7.032,1.223a22.426,22.426,0,0,0,6.708,1.732c2.6.306,1.3-.1,3.354-1.223s6.708-3.362,6.6-4.483-2.7-2.751-.974-3.566,2.38-2.038,5.085-1.019,5.3,4.89,5.3,4.686a9.02,9.02,0,0,0-3.678-5.909c-3.246-2.139-8.438-.1-8.438-2.038s1.515-4.483,1.082-6.52-1.515-4.075.433-5.909a5.169,5.169,0,0,0,2.056-3.158,5.661,5.661,0,0,1,.216,3.769c-.649,2.139.325,3.362,1.839,3.362s8.006.1,4.544-.611-4.544-1.324-1.082-2.649c3.57-1.324,3.354-.408,8.547.408s6.383,1.426,8.114,1.324,1.515-.2.865-1.223a5.881,5.881,0,0,0-3.029-2.445c-1.623-.713-2.7.2-3.246-.917s-1.515-3.769-1.947-4.788,1.3-.2,4.111-.2,10.278-.306,16.12-.408.108-4.177-.325-7.029,10.71-2.954,16.12-3.464S808.8,76.126,818.97,74.5s3.678-1.324,5.085-3.26,4-2.241,7.032-2.241,5.734.408,4.652.611-4.544,1.426.757,2.139,3.895.713,1.082,1.324-.433,1.834,4.868,1.834,2.164-.306,1.3-1.528.757-.713,5.193-.306,6.167,1.019,8.547,2.445,2.813,1.121,3.678,3.26-.108,1.834-3.786,3.769-5.95,1.936-11.36,4.177-4.111,3.464-7.032,4.992-2.164,1.121,4.111,0,9.629-1.834,12.766-1.528S860.621,91.2,863,91.2q3.732.306,7.465.306c7.573,0,6.491,0,3.678,1.426s.541,1.834,3.895,1.834,7.573.1,10.6-.2.433-1.834,4.111-2.038,4.868-.306,8.871-.306,2.813,1.121,4.111,2.038,3.246,1.63,1.947,3.566-1.947,2.038-1.19,4.584,2.813,3.056,5.193,3.464,2.38-2.343,4.76-3.362,2.813,1.936,5.518,1.528a21.122,21.122,0,0,1,8.006.306,19,19,0,0,0,7.573.306c3.246-.509,2.272-1.324,1.082-2.649s-1.19-1.223.865-2.649,3.462-.713,10.17.509,4.544,1.223,8.33,1.834c3.786.713,2.6.509,8.438,2.343s4.652,3.871,7.357,4.992,2.813,0,8.222-.306,5.3.407,11.143,1.426,4.328,2.343,4.328,3.464-1.623,1.936,1.947,2.547,5.085,1.019,8.222.509.325.509,7.248.611,4.544-.509,6.708.408,2.6,2.954,5.95,2.649,3.137-.2,1.731-2.139-2.272-2.343-.216-2.241,6.058.611,13.523,1.426,7.789,1.732,13.956,4.279,7.9,2.853,12.333,5.094a8.319,8.319,0,0,1,2.056,1.222,18.771,18.771,0,0,1,2.272.611c4.868,1.528,4,1.019,8.114,2.343A55.678,55.678,0,0,1,1089,134.2C1090.733,134.7,1090.949,135.112,1087.92,135.316Zm-403.1,54.707s-.433.407,1.947-.917-1.082-.1-2.488-.306-1.839-.713-1.406-1.936-.216-1.223-1.623-2.751a3.142,3.142,0,0,0-2.38.306c-1.623.611-2.6-.611-4.544-.1s-4.111.306-5.409,2.241-2.6.713-3.029,2.343-4.111,2.445-4.111,2.445a18.184,18.184,0,0,1,2.6,1.936c1.082,1.019.325.306,1.406,3.362s1.947,2.751,3.462,3.158c1.3.407,2.7.917,4,1.426,0,0-1.406-.611-1.406,1.019s-2.38,2.751-2.056,5.094-3.246,4.584-.433,4.788,1.947,1.019,4.868,1.528a46.107,46.107,0,0,0,9.2.917c4.436,0,1.947-1.121,1.406-2.853a16.719,16.719,0,0,1-1.082-4.584c-.216-1.834-1.19-1.324-1.947-2.445s.325-1.834,2.38-1.834,2.38,0,1.19-1.324-.433-1.732-1.839-2.241-1.947,1.834-1.947,1.834-.866-.509-.541-2.853.649-1.223-.433-1.63-1.623.1-3.029-1.426-.216-1.223-1.839-3.056-.757-.917,1.082-.917.865-.306,0-.815-1.515-1.528.865-1.426,5.409.408,6.491.509S684.818,190.023,684.818,190.023Zm-322.4-83.029c-.757.917,1.406,2.139,2.921,1.732s2.055,0,2.921-.408.974-1.121-.108-1.834-.649-1.121-.757-1.121C365.452,104.549,363.289,106.077,362.423,106.994ZM789.542,47.6c-2.38,0-4.977.1-2.813.611s1.3,2.954,5.409,1.528,3.246-1.426,6.167-2.241,1.19-.408-2.272-1.019C793.978,46.174,791.923,47.6,789.542,47.6Z" transform="translate(-21.204 16.378)" fill="#e8e8e8" opacity="0.6"/>
            </g>
          </g>
        </g>
      </g>
    </g>
    <g id="Group_488" data-name="Group 488">
      <g id="Group_487" data-name="Group 487">
        <g id="Group_485" data-name="Group 485" transform="translate(11)">
          <g id="Group_483" data-name="Group 483" transform="translate(-87 1783)">
            <path id="Path_201" data-name="Path 201" d="M336.655,139.149a2.68,2.68,0,1,0,3.791,0A2.677,2.677,0,0,0,336.655,139.149Z" transform="translate(285.945 988.678)" fill="#012d4a"/>
            <path id="Path_202" data-name="Path 202" d="M342.6,145.088a2.679,2.679,0,1,0,3.789,0A2.679,2.679,0,0,0,342.6,145.088Z" transform="translate(287.138 989.871)" fill="#012d4a"/>
            <path id="Path_203" data-name="Path 203" d="M348.534,151.027a2.68,2.68,0,1,0,3.79,0A2.679,2.679,0,0,0,348.534,151.027Z" transform="translate(288.331 991.064)" fill="#012d4a"/>
            <path id="Path_204" data-name="Path 204" d="M354.473,156.966a2.68,2.68,0,1,0,3.79,0A2.681,2.681,0,0,0,354.473,156.966Z" transform="translate(289.525 992.257)" fill="#012d4a"/>
            <path id="Path_205" data-name="Path 205" d="M336.655,178.574a2.68,2.68,0,1,1,3.791,0A2.679,2.679,0,0,1,336.655,178.574Z" transform="translate(285.945 995.836)" fill="#012d4a"/>
            <path id="Path_206" data-name="Path 206" d="M342.6,172.635a2.679,2.679,0,1,1,3.789,0A2.679,2.679,0,0,1,342.6,172.635Z" transform="translate(287.138 994.643)" fill="#012d4a"/>
            <path id="Path_207" data-name="Path 207" d="M348.534,166.7a2.68,2.68,0,1,1,3.79,0A2.679,2.679,0,0,1,348.534,166.7Z" transform="translate(288.331 993.45)" fill="#012d4a"/>
            <path id="Path_208" data-name="Path 208" d="M354.473,160.756a2.68,2.68,0,1,1,3.79,0A2.681,2.681,0,0,1,354.473,160.756Z" transform="translate(289.525 992.257)" fill="#012d4a"/>
            <path id="Path_209" data-name="Path 209" d="M317.2,158.861a2.68,2.68,0,1,0,2.68-2.679A2.68,2.68,0,0,0,317.2,158.861Z" transform="translate(281.798 992.257)" fill="#012d4a"/>
            <path id="Path_210" data-name="Path 210" d="M325.6,158.861a2.68,2.68,0,1,0,2.68-2.679A2.68,2.68,0,0,0,325.6,158.861Z" transform="translate(283.398 992.257)" fill="#012d4a"/>
            <path id="Path_211" data-name="Path 211" d="M334,158.861a2.68,2.68,0,1,0,2.679-2.679A2.68,2.68,0,0,0,334,158.861Z" transform="translate(284.999 992.257)" fill="#012d4a"/>
            <path id="Path_212" data-name="Path 212" d="M342.4,158.861a2.68,2.68,0,1,0,2.682-2.679A2.681,2.681,0,0,0,342.4,158.861Z" transform="translate(287.6 992.257)" fill="#012d4a"/>
            <path id="Path_213" data-name="Path 213" d="M0,2.679A2.68,2.68,0,1,0,2.679,0,2.68,2.68,0,0,0,0,2.679Z" transform="translate(574.359 1153.799) rotate(-180)" fill="#012d4a"/>
            <path id="Path_216" data-name="Path 216" d="M0,2.679A2.68,2.68,0,1,0,2.679,0,2.68,2.68,0,0,0,0,2.679Z" transform="translate(462.36 1153.799) rotate(-180)" fill="#012d4a"/>
            <path id="Path_243" data-name="Path 243" d="M0,2.679A2.68,2.68,0,1,0,2.679,0,2.68,2.68,0,0,0,0,2.679Z" transform="translate(401.36 1153.799) rotate(-180)" fill="#012d4a"/>
            <path id="Path_216-2" data-name="Path 216" d="M0,2.679A2.68,2.68,0,1,0,2.679,0,2.68,2.68,0,0,0,0,2.679Z" transform="translate(472.36 1153.799) rotate(-180)" fill="#012d4a"/>
            <path id="Path_244" data-name="Path 244" d="M0,2.679A2.68,2.68,0,1,0,2.679,0,2.68,2.68,0,0,0,0,2.679Z" transform="translate(411.36 1153.799) rotate(-180)" fill="#012d4a"/>
            <path id="Path_216-3" data-name="Path 216" d="M0,2.679A2.68,2.68,0,1,0,2.679,0,2.68,2.68,0,0,0,0,2.679Z" transform="translate(482.36 1153.799) rotate(-180)" fill="#012d4a"/>
            <path id="Path_245" data-name="Path 245" d="M0,2.679A2.68,2.68,0,1,0,2.679,0,2.68,2.68,0,0,0,0,2.679Z" transform="translate(421.36 1153.799) rotate(-180)" fill="#012d4a"/>
            <path id="Path_216-4" data-name="Path 216" d="M0,2.679A2.68,2.68,0,1,0,2.679,0,2.68,2.68,0,0,0,0,2.679Z" transform="translate(492.36 1153.799) rotate(-180)" fill="#012d4a"/>
            <path id="Path_246" data-name="Path 246" d="M0,2.679A2.68,2.68,0,1,0,2.679,0,2.68,2.68,0,0,0,0,2.679Z" transform="translate(431.36 1153.799) rotate(-180)" fill="#012d4a"/>
            <path id="Path_216-5" data-name="Path 216" d="M0,2.679A2.68,2.68,0,1,0,2.679,0,2.68,2.68,0,0,0,0,2.679Z" transform="translate(503.359 1153.799) rotate(-180)" fill="#012d4a"/>
            <path id="Path_247" data-name="Path 247" d="M0,2.679A2.68,2.68,0,1,0,2.679,0,2.68,2.68,0,0,0,0,2.679Z" transform="translate(442.36 1153.799) rotate(-180)" fill="#012d4a"/>
            <path id="Path_216-6" data-name="Path 216" d="M0,2.679A2.68,2.68,0,1,0,2.679,0,2.68,2.68,0,0,0,0,2.679Z" transform="translate(513.359 1153.799) rotate(-180)" fill="#012d4a"/>
            <path id="Path_248" data-name="Path 248" d="M0,2.679A2.68,2.68,0,1,0,2.679,0,2.68,2.68,0,0,0,0,2.679Z" transform="translate(452.36 1153.799) rotate(-180)" fill="#012d4a"/>
            <path id="Path_216-7" data-name="Path 216" d="M0,2.679A2.68,2.68,0,1,0,2.679,0,2.68,2.68,0,0,0,0,2.679Z" transform="translate(523.359 1153.799) rotate(-180)" fill="#012d4a"/>
            <path id="Path_216-8" data-name="Path 216" d="M0,2.679A2.68,2.68,0,1,0,2.679,0,2.68,2.68,0,0,0,0,2.679Z" transform="translate(533.359 1153.799) rotate(-180)" fill="#012d4a"/>
            <path id="Path_216-9" data-name="Path 216" d="M0,2.679A2.68,2.68,0,1,0,2.679,0,2.68,2.68,0,0,0,0,2.679Z" transform="translate(543.359 1153.799) rotate(-180)" fill="#012d4a"/>
            <path id="Path_216-10" data-name="Path 216" d="M0,2.679A2.68,2.68,0,1,0,2.679,0,2.68,2.68,0,0,0,0,2.679Z" transform="translate(553.359 1153.799) rotate(-180)" fill="#012d4a"/>
            <path id="Path_216-11" data-name="Path 216" d="M0,2.679A2.68,2.68,0,1,0,2.679,0,2.68,2.68,0,0,0,0,2.679Z" transform="translate(564.359 1153.799) rotate(-180)" fill="#012d4a"/>
            <path id="Path_214" data-name="Path 214" d="M300.4,158.861a2.68,2.68,0,1,0,2.68-2.679A2.68,2.68,0,0,0,300.4,158.861Z" transform="translate(278.597 992.257)" fill="#012d4a"/>
            <path id="Path_215" data-name="Path 215" d="M308.8,158.861a2.68,2.68,0,1,0,2.679-2.679A2.68,2.68,0,0,0,308.8,158.861Z" transform="translate(280.197 992.257)" fill="#012d4a"/>
          </g>
          <g id="Group_484" data-name="Group 484" transform="translate(311 1783)">
            <path id="Path_201-2" data-name="Path 201" d="M336.655,139.149a2.68,2.68,0,1,0,3.791,0A2.677,2.677,0,0,0,336.655,139.149Z" transform="translate(285.945 988.678)" fill="#012d4a"/>
            <path id="Path_202-2" data-name="Path 202" d="M342.6,145.088a2.679,2.679,0,1,0,3.789,0A2.679,2.679,0,0,0,342.6,145.088Z" transform="translate(287.138 989.871)" fill="#012d4a"/>
            <path id="Path_203-2" data-name="Path 203" d="M348.534,151.027a2.68,2.68,0,1,0,3.79,0A2.679,2.679,0,0,0,348.534,151.027Z" transform="translate(288.331 991.064)" fill="#012d4a"/>
            <path id="Path_204-2" data-name="Path 204" d="M354.473,156.966a2.68,2.68,0,1,0,3.79,0A2.681,2.681,0,0,0,354.473,156.966Z" transform="translate(289.525 992.257)" fill="#012d4a"/>
            <path id="Path_205-2" data-name="Path 205" d="M336.655,178.574a2.68,2.68,0,1,1,3.791,0A2.679,2.679,0,0,1,336.655,178.574Z" transform="translate(285.945 995.836)" fill="#012d4a"/>
            <path id="Path_206-2" data-name="Path 206" d="M342.6,172.635a2.679,2.679,0,1,1,3.789,0A2.679,2.679,0,0,1,342.6,172.635Z" transform="translate(287.138 994.643)" fill="#012d4a"/>
            <path id="Path_207-2" data-name="Path 207" d="M348.534,166.7a2.68,2.68,0,1,1,3.79,0A2.679,2.679,0,0,1,348.534,166.7Z" transform="translate(288.331 993.45)" fill="#012d4a"/>
            <path id="Path_208-2" data-name="Path 208" d="M354.473,160.756a2.68,2.68,0,1,1,3.79,0A2.681,2.681,0,0,1,354.473,160.756Z" transform="translate(289.525 992.257)" fill="#012d4a"/>
            <path id="Path_209-2" data-name="Path 209" d="M317.2,158.861a2.68,2.68,0,1,0,2.68-2.679A2.68,2.68,0,0,0,317.2,158.861Z" transform="translate(281.798 992.257)" fill="#012d4a"/>
            <path id="Path_210-2" data-name="Path 210" d="M325.6,158.861a2.68,2.68,0,1,0,2.68-2.679A2.68,2.68,0,0,0,325.6,158.861Z" transform="translate(283.398 992.257)" fill="#012d4a"/>
            <path id="Path_211-2" data-name="Path 211" d="M334,158.861a2.68,2.68,0,1,0,2.679-2.679A2.68,2.68,0,0,0,334,158.861Z" transform="translate(284.999 992.257)" fill="#012d4a"/>
            <path id="Path_212-2" data-name="Path 212" d="M342.4,158.861a2.68,2.68,0,1,0,2.682-2.679A2.681,2.681,0,0,0,342.4,158.861Z" transform="translate(287.6 992.257)" fill="#012d4a"/>
            <path id="Path_213-2" data-name="Path 213" d="M0,2.679A2.68,2.68,0,1,0,2.679,0,2.68,2.68,0,0,0,0,2.679Z" transform="translate(574.359 1153.799) rotate(-180)" fill="#012d4a"/>
            <path id="Path_216-12" data-name="Path 216" d="M0,2.679A2.68,2.68,0,1,0,2.679,0,2.68,2.68,0,0,0,0,2.679Z" transform="translate(462.36 1153.799) rotate(-180)" fill="#012d4a"/>
            <path id="Path_243-2" data-name="Path 243" d="M0,2.679A2.68,2.68,0,1,0,2.679,0,2.68,2.68,0,0,0,0,2.679Z" transform="translate(401.36 1153.799) rotate(-180)" fill="#012d4a"/>
            <path id="Path_216-13" data-name="Path 216" d="M0,2.679A2.68,2.68,0,1,0,2.679,0,2.68,2.68,0,0,0,0,2.679Z" transform="translate(472.36 1153.799) rotate(-180)" fill="#012d4a"/>
            <path id="Path_244-2" data-name="Path 244" d="M0,2.679A2.68,2.68,0,1,0,2.679,0,2.68,2.68,0,0,0,0,2.679Z" transform="translate(411.36 1153.799) rotate(-180)" fill="#012d4a"/>
            <path id="Path_216-14" data-name="Path 216" d="M0,2.679A2.68,2.68,0,1,0,2.679,0,2.68,2.68,0,0,0,0,2.679Z" transform="translate(482.36 1153.799) rotate(-180)" fill="#012d4a"/>
            <path id="Path_245-2" data-name="Path 245" d="M0,2.679A2.68,2.68,0,1,0,2.679,0,2.68,2.68,0,0,0,0,2.679Z" transform="translate(421.36 1153.799) rotate(-180)" fill="#012d4a"/>
            <path id="Path_216-15" data-name="Path 216" d="M0,2.679A2.68,2.68,0,1,0,2.679,0,2.68,2.68,0,0,0,0,2.679Z" transform="translate(492.36 1153.799) rotate(-180)" fill="#012d4a"/>
            <path id="Path_246-2" data-name="Path 246" d="M0,2.679A2.68,2.68,0,1,0,2.679,0,2.68,2.68,0,0,0,0,2.679Z" transform="translate(431.36 1153.799) rotate(-180)" fill="#012d4a"/>
            <path id="Path_216-16" data-name="Path 216" d="M0,2.679A2.68,2.68,0,1,0,2.679,0,2.68,2.68,0,0,0,0,2.679Z" transform="translate(503.359 1153.799) rotate(-180)" fill="#012d4a"/>
            <path id="Path_247-2" data-name="Path 247" d="M0,2.679A2.68,2.68,0,1,0,2.679,0,2.68,2.68,0,0,0,0,2.679Z" transform="translate(442.36 1153.799) rotate(-180)" fill="#012d4a"/>
            <path id="Path_216-17" data-name="Path 216" d="M0,2.679A2.68,2.68,0,1,0,2.679,0,2.68,2.68,0,0,0,0,2.679Z" transform="translate(513.359 1153.799) rotate(-180)" fill="#012d4a"/>
            <path id="Path_248-2" data-name="Path 248" d="M0,2.679A2.68,2.68,0,1,0,2.679,0,2.68,2.68,0,0,0,0,2.679Z" transform="translate(452.36 1153.799) rotate(-180)" fill="#012d4a"/>
            <path id="Path_216-18" data-name="Path 216" d="M0,2.679A2.68,2.68,0,1,0,2.679,0,2.68,2.68,0,0,0,0,2.679Z" transform="translate(523.359 1153.799) rotate(-180)" fill="#012d4a"/>
            <path id="Path_216-19" data-name="Path 216" d="M0,2.679A2.68,2.68,0,1,0,2.679,0,2.68,2.68,0,0,0,0,2.679Z" transform="translate(533.359 1153.799) rotate(-180)" fill="#012d4a"/>
            <path id="Path_216-20" data-name="Path 216" d="M0,2.679A2.68,2.68,0,1,0,2.679,0,2.68,2.68,0,0,0,0,2.679Z" transform="translate(543.359 1153.799) rotate(-180)" fill="#012d4a"/>
            <path id="Path_216-21" data-name="Path 216" d="M0,2.679A2.68,2.68,0,1,0,2.679,0,2.68,2.68,0,0,0,0,2.679Z" transform="translate(553.359 1153.799) rotate(-180)" fill="#012d4a"/>
            <path id="Path_216-22" data-name="Path 216" d="M0,2.679A2.68,2.68,0,1,0,2.679,0,2.68,2.68,0,0,0,0,2.679Z" transform="translate(564.359 1153.799) rotate(-180)" fill="#012d4a"/>
            <path id="Path_214-2" data-name="Path 214" d="M300.4,158.861a2.68,2.68,0,1,0,2.68-2.679A2.68,2.68,0,0,0,300.4,158.861Z" transform="translate(278.597 992.257)" fill="#012d4a"/>
            <path id="Path_215-2" data-name="Path 215" d="M308.8,158.861a2.68,2.68,0,1,0,2.679-2.679A2.68,2.68,0,0,0,308.8,158.861Z" transform="translate(280.197 992.257)" fill="#012d4a"/>
          </g>
          <g id="Ellipse_214" data-name="Ellipse 214" transform="translate(594 2899)" fill="none" stroke="#012d4a" stroke-width="1">
            <circle cx="35" cy="35" r="35" stroke="none"/>
            <circle cx="35" cy="35" r="34.5" fill="none"/>
          </g>
          <g id="Ellipse_215" data-name="Ellipse 215" transform="translate(992 2899)" fill="none" stroke="#012d4a" stroke-width="1">
            <circle cx="35" cy="35" r="35" stroke="none"/>
            <circle cx="35" cy="35" r="34.5" fill="none"/>
          </g>
          <g id="Ellipse_216" data-name="Ellipse 216" transform="translate(196 2899)" fill="none" stroke="#012d4a" stroke-width="1">
            <circle cx="35" cy="35" r="35" stroke="none"/>
            <circle cx="35" cy="35" r="34.5" fill="none"/>
          </g>
          <text id="_1" data-name="1" transform="translate(231 2948)" font-size="36" font-family="SegoeUI, Segoe UI"><tspan x="-9.703" y="0">1</tspan></text>
          <text id="_2" data-name="2" transform="translate(629 2948)" font-size="36" font-family="SegoeUI, Segoe UI"><tspan x="-9.703" y="0">2</tspan></text>
          <text id="_3" data-name="3" transform="translate(1027 2948)" font-size="36" font-family="SegoeUI, Segoe UI"><tspan x="-9.703" y="0">3</tspan></text>
          <text id="Lorem_ipsum_dolor" data-name="Lorem ipsum dolor" transform="translate(140 3041)" font-size="22" font-family="SegoeUI-Bold, Segoe UI" font-weight="700"><tspan x="0" y="0">Lorem ipsum dolor</tspan></text>
          <text id="Lorem_ipsum_dolor-2" data-name="Lorem ipsum dolor" transform="translate(538 3041)" font-size="22" font-family="SegoeUI-Bold, Segoe UI" font-weight="700"><tspan x="0" y="0">Lorem ipsum dolor</tspan></text>
          <text id="Lorem_ipsum_dolor-3" data-name="Lorem ipsum dolor" transform="translate(936 3041)" font-size="22" font-family="SegoeUI-Bold, Segoe UI" font-weight="700"><tspan x="0" y="0">Lorem ipsum dolor</tspan></text>
          <text id="Lorem_ipsum_dolor_sit_amet_consectetur_adipiscing_elit._Tristique_vestibulum_facilisis_condimentum_" data-name="Lorem ipsum dolor sit amet, consectetur 
adipiscing elit. Tristique vestibulum 
facilisis condimentum " transform="translate(231 3088)" font-size="18" font-family="SegoeUI, Segoe UI" opacity="0.74"><tspan x="-162.501" y="0">Lorem ipsum dolor sit amet, consectetur </tspan><tspan x="-140.871" y="24">adipiscing elit. Tristique vestibulum </tspan><tspan x="-88.291" y="48">facilisis condimentum </tspan></text>
          <text id="Lorem_ipsum_dolor_sit_amet_consectetur_adipiscing_elit._Tristique_vestibulum_facilisis_condimentum_2" data-name="Lorem ipsum dolor sit amet, consectetur 
adipiscing elit. Tristique vestibulum 
facilisis condimentum " transform="translate(629 3088)" font-size="18" font-family="SegoeUI, Segoe UI" opacity="0.74"><tspan x="-162.501" y="0">Lorem ipsum dolor sit amet, consectetur </tspan><tspan x="-140.871" y="24">adipiscing elit. Tristique vestibulum </tspan><tspan x="-88.291" y="48">facilisis condimentum </tspan></text>
          <text id="Lorem_ipsum_dolor_sit_amet_consectetur_adipiscing_elit._Tristique_vestibulum_facilisis_condimentum_3" data-name="Lorem ipsum dolor sit amet, consectetur 
adipiscing elit. Tristique vestibulum 
facilisis condimentum " transform="translate(1027 3088)" font-size="18" font-family="SegoeUI, Segoe UI" opacity="0.74"><tspan x="-162.501" y="0">Lorem ipsum dolor sit amet, consectetur </tspan><tspan x="-140.871" y="24">adipiscing elit. Tristique vestibulum </tspan><tspan x="-88.291" y="48">facilisis condimentum </tspan></text>
        </g>
      </g>
    </g>
  </g>
</svg>
